<mxfile host="65bd71144e">
    <diagram id="2rBegkPQq6LkywT2YVd9" name="Page-1">
        <mxGraphModel dx="974" dy="666" grid="1" gridSize="10" guides="1" tooltips="1" connect="1" arrows="1" fold="1" page="0" pageScale="1" pageWidth="1654" pageHeight="1169" math="0" shadow="0">
            <root>
                <mxCell id="0"/>
                <mxCell id="1" parent="0"/>
                <mxCell id="2" value="" style="strokeWidth=1;shadow=0;dashed=0;align=center;html=1;shape=mxgraph.mockup.containers.browserWindow;rSize=0;strokeColor=#666666;strokeColor2=#008cff;strokeColor3=#c4c4c4;mainText=,;recursiveResize=0;container=1;collapsible=0;" vertex="1" parent="1">
                    <mxGeometry x="60" y="100" width="550" height="380" as="geometry"/>
                </mxCell>
                <mxCell id="3" value="Page 1" style="strokeWidth=1;shadow=0;dashed=0;align=center;html=1;shape=mxgraph.mockup.containers.anchor;fontSize=17;fontColor=#666666;align=left;whiteSpace=wrap;" vertex="1" parent="2">
                    <mxGeometry x="60" y="12" width="110" height="26" as="geometry"/>
                </mxCell>
                <mxCell id="4" value="http://weposture/live" style="strokeWidth=1;shadow=0;dashed=0;align=center;html=1;shape=mxgraph.mockup.containers.anchor;rSize=0;fontSize=17;fontColor=#666666;align=left;" vertex="1" parent="2">
                    <mxGeometry x="130" y="60" width="250" height="26" as="geometry"/>
                </mxCell>
                <mxCell id="25" value="" style="rounded=0;whiteSpace=wrap;html=1;fillColor=#f5f5f5;fontColor=#333333;strokeColor=#666666;" vertex="1" parent="2">
                    <mxGeometry y="110" width="550" height="270" as="geometry"/>
                </mxCell>
                <mxCell id="26" value="" style="group" vertex="1" connectable="0" parent="2">
                    <mxGeometry x="90" y="135" width="120" height="225" as="geometry"/>
                </mxCell>
                <mxCell id="18" value="" style="rounded=0;whiteSpace=wrap;html=1;" vertex="1" parent="26">
                    <mxGeometry width="120" height="220" as="geometry"/>
                </mxCell>
                <mxCell id="22" value="" style="shape=image;verticalLabelPosition=bottom;labelBackgroundColor=default;verticalAlign=top;aspect=fixed;imageAspect=0;image=data:image/png,iVBORw0KGgoAAAANSUhEUgAAAIAAAADoCAYAAAAnmez8AAAAAXNSR0IArs4c6QAAAARnQU1BAACxjwv8YQUAAAAJcEhZcwAADsMAAA7DAcdvqGQAAIWFSURBVHhejb0H4G5XWeV9bnpPSCehhJJAEqSThN4RRUYQYWQsFB1RR4Gxj58Oznyi38yIjiiKDRtdR0QGUAcFAiIIgRAgCS0kECC9t5vc3Put31rPs89+//eis/7v2fsp63l2fc973vrftktYBIptG+WM3S0Ne1TsKjcVNmDTRmgpRdhFYDlT7tLfNv2proQuI3a0pfDatua1Z1vkQAL6hGIX1lwNz4gMm1EBvk5nGWEax5qv6s3GCjJqfAxxN9cEQl0oSTLuORVGL6Odm2MJ6AuYfBWnDbCzI3dDcTbrLqbee6ilh1sRNVvzRDEUi80BFv81fa2HZw+UrYh9bnfG7lGblm+UddOT8UvAwMKi1y6xeZMcm3TqnqONXJbaUphzmIVaBinWpa60OQCC5FYFvGCvFvaEiW940Wxck41mKNpd5RiKKtrHTlVWl425H/OZoRuw36bOKiBU4CROWCczNQwmT/WaUFgjaTqsYPUIk+Iu1uHsXnDNECJ1cbFm7AhZuATHx0bxvBrUybNCNpurtmXl2DSFrJGSim+5HcMW015bPS6LRDXuvSOyBlEjjC+7fqQCqFPqdZBgkhE9uCLDHTPW5mnRobZQQOKYouqQZaUZPLR4yueEowzoa7uph0/9RPZRchNLi0rRCWbIxpwMVyWmTxbdN2oKgEBA1QVUT5n+VusMPPorZ6djydpG5ax6BEgWazqMDpkyDF+wB5PhibCzBmNgyyC3bRlMjJNIAfaU3AzKKbdMI8WcJ6JQCRn5ahTcU0G5KmBr3EY7W7yN1TpLkbeyeZzuh4at6OiNVqwom+r4KqcLGWtMW3tqOGirTceW+d9ryDMXzjAovYP6KEziLHPv7V0+U2h4j2MnN51FdJnpW4G/RDNqqMNWeTk2A7PjveW5x5MXgo225c9iUC4WylOKXC5PtuupohicuhcbW2KBclZrI85wX/BFDKOcVihy+M7DAaYNzZw7S7kMJqVyDzgW+8rda/avqMxCd3tMZPGbgWoXSVsub5nLGJvryhFIV2fDQ62BNogldDZRjHQtCBXXdFzt9sbsoBEzJQWY7YKJLwuDmHFNqIlwG5amuvhziDPp5ijqSaZA7m7ZTo5IxTFDZZE6Pma1Kc8cDzDMHcchnvuGWfr6EGAkW+VcMQwSLJfXkyAZFRHsOXAP/tUXqQjuneSeQdrwQCRTeaB2lA25ocGZvmkLKmaj3oridtuWdexJbtimwvUWZ/E3wjaUGXtw7Im7ZT5sanErv3SHoFM0p+q91g2yNbrR0QCBAy7iyneecc+lXvN5J+ObQvvCpzuXXahDN8udq9twVTZjbJkV5Nq6CE64xbZFpw+d22e6rSmEjKFYDhj3T0F92a1doUz0NHFWFC4hje4Bq727ubYkCds3CjWf3Kk73jPluKoR26fOFD3wvJdzslb9L0ENKuue5sFw45Nz0jeaBG2YHLtxDFkZiW5M0jjFC32mGGeMPScw/gWXgBfACHPw5zGUSI0z1sIICNJXUMb2b+WRE6Nt3e43IutodWsnJt+WKJ0BsKiwcYOYBd2kA5HguajDt2nxk3QVN1CGJktdW6g4GcxyzV9hN0EEn357QgdBeizeBKoZyurdguGIYP6QEh9UziZ0ThXxCHJaLo79GKz3aAhc86ZvJsQAJHqKOtaY/AVbKMjRk00gcc23HIy+l2/bzukaIJW6oh5lfUSidy0bzdqU5jKrjqbUtdAb/oI1FVut1m1YrWvOoNImmMoTP/ELhG1QpYzeMvSRaEaSJmM1QKDERG7WCBu8gjlNFFZ95daw5GTedy07dtyxXHrpV5err7l62XnnzmX/Aw5Yjjv22OWYY45Z9tpLT9rU34xTgXvs+4y04zkQ1euKAdmVRqhGi6Vbdcy0MAwvZCvG7JTXnSp1cEfaGrRs7gnWNdZyqQMzrygNqxQNfMVxWIeocO3YIvwrSN8RVHYeVCXuM8nIgtIwd56jlbm1ZeeiVgEfnePD//Th5bW/+9rlQ//0T01c+lX6vffee9lv3/2Wb/nWb1le/OIXL/e7//2dI2N1lmoH6yZsr06sfVl7u22nWomxgmGBUv9VqKMrWbJnvG2pZ0Zjg0EBirSVv6mvWqQ5eJV7iJuxQBbP/joJIRWT8dQYhh90mMnQ5BvOCXYrVs52V+YhkZnbddddt/zd3/3d8gd/+IfLBedfsBx40IHmcVLGnwVOLBtQa7Xcfvvty6Me/ejlRS944fLoxzxmOfjggyp3ymDr2GbbMBjZABnZcPUcRFcpf81ZgA9OyTDDtTI5GyhhbGDDtHYaM2VcRdjs1IrSXYkzonpBC/FTWN2iR5htVI3OMk1rIBLzAsY8ITs+PRkRdriQvGv54kVfWn7yJ39iOf/885c7darfptO77vIwQ3XJyzTUjjLQODPst9++yxOf+ITlt37rt/zQEDSrc0RwBimrN/CUard5DDk1hTUH7xZlOKWwOjeorWyJ3y3dboaGHNzko090FN5u1D3GYwS1GFGGvBkSbbVJslIMVC2aX2mj7sgOqJoqaIdKx060cu3ceedy3nmfWl70ohctN954Y7NDFLwZJB940EHLvjr137Fjx3LrrbfaxyaB5oWTcOeddy7H6vrgTW9643LSSfey0X64BDS6A1lp85qzPg2M3Y7iBM0sNM+yjoglydnPhym9qUaiAlQV8ykykMMdLEg0NeIkV1vCuEdOofHPUhawQoyV8Q3gceAvxmiyIuX8RhedKxLk6a1c3HM/8MEPLj/+4/9xufba63TPrXjNxe3bty/HHnfs8rSnffPywAd+03L4YYf7Xr59++3L9Tdcv3zus59b3v72ty9XX3X1su/++2YddDAHp97/1OV1f/S65eijj675xkEf3fSKmGOT7H71GeBfA/wBKd2Os7luJaCDbgC5iPHOvCwh5HmjNMO1inmyN3wYLFFKk5hlXwe/euMxx4HhdTUgfcQObpDFnHsC5uAgHrVJLvmdS8ett96yPOEJT1yuueaazbw7dy4/9tKXLj/yI/9h2XufvYfPkTWRPP7T/qtf/erl937v95bb77hj2UtEvJxVHv7why9vfP0bFL/P6FKqqaEtIHX2IFkKiK26bWod8GjOTWpk5sloipPUBKsM30tinYFEjrYi9nXxFakbWnIJUnwPLkMzV04slEmjllXHqtr50reVQ2wJTQRe4IwxfNUIPjbHsTsgpXQ7lNx0kO2WW25evud7vkf34KtGjju18Pe+932WN735zd4A+2rxWVTHJl1AHp3+99p7r+VlL3vZ8tu//Ts+9e9UPOPbe9tey0c+/JHlD1/3RyJ3P2mlWwo8jD5U0LdcPZiHGTE16PB2Z9LW1H4DQtaOwJbmKzs1q1FYmZKdb0IrRXd+SzgUyUgbCm4tUvdaZS+gRI45X8Nm/CWPfO5zjs6Yd+DgqZiS9FxEpkjERBFKU/UX/+t/LZ/85Lm+YPN+1sPB3U48YfmLv/hz3XsflqbnfMgSxkOqu7HNG+SJT3j88rrXvW457LDDwpNtn333Xd78ljf7NQSDJE5UQlVk85G0fCLILKEsqpHmyTMke2JL8enQBPErRVsyOVVHFNCkFNd25NaNyQ8kJweRvSSCcybYdon2embrYCMgNjWF4XAoVJidf2YIUkgDK3Y2VTbWVsz5xny6Qtu1XH/d9ctf/9Xb1Ux9/ka+uxx15PLbv/Pa5ZBDD7HdPXCiVL3xyrQKqkl9ysknLy95yQ/pLLDDOvfkr1zy5eUDH/iA+qhnE04ijwehgxsiJlVd6yEAa8GeYLIO9CtJ0EaHoxipvGQqVTtfTUlm0wPLJNYChTxyhGaCbeuyJ68lmWi/+x4OZDvKhlAxEYN5BSts+CYQ6fnTPZXH6J2quepGTs24eiwA8pou41Ah5TN6qvfJ8z6p03h0Xu170QtfuJx6v7yg44DCKtoTTH7bNXG8OPQ93/Pdy+GHHy5LbDxMvEHXAaarY35WubUBqFOdZwH4B1GCKxWMAvvwF2a9ZWoweFP8FmQBSzZlSmin5KqHx0J1dWveQQpg7cYpdPoO2hJqM6E7tchf+tLFy//5P3+3vPNd71zO+ejH9JidTfuABzxgefZ3fMfy1Kc+ZbmPHsP34cKL0JEbJDOP08/5zucsn/7Up8u8azn8iCOWj3zkI1pEnvsrYKMDwtypKelG3xXHOP/u7/7P8oP//t8v++2/n+zblptvvmk5+/3vX+5z3/tI6zNOEm42lRxbPg/QiLPtCV/rrcAOuCZwD1XnsSsRluyqDKr8mG41/gADWC3hTHt09v1fgP3NRaY3BfpGljWr+0wt7lVXXrn8j1/91eX9733fctnlly377rff1Kr6K+V2PT07Rk/bnqON8B/+w3/IqdysNSdtn/+ZzyxPeerTloMPOdhWXsnjJd+nf/PT3a9/EUrlbCPtmrvBBnviE5+4fO1rX7POmem7dWb4xVe8Imecmb9b+K4tnwpmlWwQy40JqrywEjabBsXp2hMtDSJx/osvpnIgsfvEn5rZhAy2jVyOGrzBnwTEVY3Uk+wzguJdTkQWCZnccC//+teX7/u+Fyx/9ba/Wq657ppp8VPC5G9fPUe/9tprlt/VU7L//Au/sNxx+x3J1bzK/1d//de6WDs0Vtm4Zz70IQ8d/RpEVyWD0X9XgUy1TQuRH/3oR1fbvG+w1/Lud70rLyePPgPps1rIs4AC91rmKakmtnuxTr4ZnrhwmNaN3F7cEstT1BKGMkRXo4HYR4v0S9qIXMOG0O0M+5BqY7Dqlc4uHXk9X4J8tMDLsiz+Zz97oe9Z8GmVV+d4Dn+Hnntv377dOqnw7bPX3stfvu1ty0/91E8tN950o+xuzX833XTz8qEPfUjt5CVe7pGn3v+05Qg9BKzIKPMsJ31GsmxVWgwCLYYTSFPO0087bdl33zz/Z+Hv0DXGJV/+cjYFN8fPcRhw5FnFyJ9p3qQGYXAmcLJexLr7djywZ5psD083TJYrNBsigzegjY1mZ8lAFoQmt1vonY9vMid/+ZLVBusNN+cx6bR/zTXLT//UT+tx/0t5bb0m5vrrr1ue99znLu973/uWj53zseUf3vsPy7d+y9OX2/rlWdH21VOwd7/73cvb/vJt1YRak+OrX710ufbqa7SZZKJ/sj36MY/y2WP0u0BXGump/OZIw2CCrRvAzGsJ++67fy76FMOziq9/XQ8JdI6bDuJGrMbbc5wzwPDEuAEHVwbV8yLGmeBUlYjZr81hQBt8W+weIRyEWF+Xv8wuHc8hv+MKfSr1IOXjnnv11VcvF55/wfKZC85fvvKVS3XP1VMlBaUPCA4RlIu4Zefyxje8Ybnwc59N15Vs544dy2kPON0XVL/yK7+y3Oc+91mOPvIoX/T95qt/y2/CHHTggWRQt9Q/zf7v/u7v+vV9bPSFx+UreeGHzmmmr7v+2uXhD3t49dmdMSKtujsoTvob1YdsMyvGZbn7Pe6eC8qK4+Hosq99ffgBcV47c1JRewO4PxN5Uw6/7sLqlLXASapT+FLUpDYv9bofagFltk2FB2qjDQiTJEgx10a1R13wwurgpdIPvP8Dy4tf9OLl25/1rOV7X/B9y/d97/ct//Z5z1ue+53fufzpn/6pFlVP36bYtLBt+bom69Wv/k1JyQ3nuOOPW1772tcuvPfuNj3u1Jx2n/lt37b8v7/0S8stt+RMgO/yyy5ffvVVr0p/dDH2mfM/o813u/W9tu29HHXUMct973NfMdPyBtwvF6riHRwJmSP5ixJg3LYcf/zxyp8Pi8C5bftty9XXXju4NeNB76qqpovA7I+BDUWYO9W+SkKjiFnQmJ3NvNwbEF0ygbbFF3ZXFWxp6nYSqgvDUoCza/nyJRcvP/ojP6ZF/97lQ//0IV/IXX/ddX4BhnvgBRde4Au1J+hq+eyzz9bTuTsrPk/3fvEX/4vbS3+W5ZBDDlne8Y53LMcfd5x1t12+Bq+5swme85znePMxPzw3/+3X/LY2wmXSdy3nfuLcZW9dIwCuH75DG5O7XFrqfFX35KmKD6EmQ4hbuk0oK2j3YPU5bwvr7KVrFDb74I08Hd+VngW0C6xbYCUObBI3+1A7r+1xKZv1vvfMKbDBZzNM9s7pDRPfDFumdjje+w//sPy77/7u5d1/++5lf12x57E1I8nToDxV2m///fW4eNnyYz/2o8urdC/lYg7ul750kZ+T01dCmcQXvOAFy1E63bvF7iOEapfcgPy8rXuXu+iiTuPh7wjJb/+rt+tBZdfyqU99ShuFV/l2+sWfpz39W5zCsTUnSTrX8bnV2vA1pNHuwGS4xz3vUTHRtQVqLsjnagPl2cM1gOSKm7BptOSkbVOtVtqefq8PAiD0TUtHD8jt3U8OqfjDKSZVO1RcdPHFy8/8zM/oufrlvhqnRVz76Io4r97tXPbZZ9+a7PTn1lu3L3/w+3+4/IkeEpigD3/4w8sOPTfPhfoufyrnW3SRNyaNhG4390tgF/Oh8Zx++um+CGs6Yz/33E/47d0vf/krotGnbdoAd+rp2iNh+K/Trg2siKW8aqdzD/RurQ0Cjjj8cJUVwx8nJanNQJ5rh+rwN4O2rEsGX4QAY4nCKrZUAd2izSqG3LW7FruOdlmPR7ZMGLnwh4NeCp1V72+6+abl5S976XKdHuv8MQnddty5w6+R/+RP/tTy5je/2afx3/qt31y+/d/8G2+GxHPPuHP5zd989XKOruovuOCCZbs2AGNmo5x66v2Xk085pRtLxaHCk0ZBLfCQxDOAZz7zmX7qhZnjU5/+tB+K9tGpucdxj7vfPemcK2n8+opv1ZYdXSGodMfwrRvB6+VEbdGm99vA0WdXM0a7VSeHHgJgxFYdaMjYG6OXZoV7PdAinUUeLjVgfRC4idOpZDfDvAzZaiqja4zIxPJq1+//3h/oefsFOg1rkhW/Q1ft3/atz1je8pa3LC9+8Yv8/vipp566POnJT1pe+cu/vPzhH/7BcvPNN4urBDpuu2378t3/7ru1Cc6pD2Zs8ydvnv3s78g4oLnhuSc65Bj9FwMurwbedONN5pP+Uj3zcF42gHTG71M0TiCDx2FdOWpg3NvhWgddGxVb/VjLwBscmEbynRbJ1yzXXfimh4A1yZbFE7pJL83soLMlgvCqVBUJRha1x43uU1pcngQYGx9JwS5/Iq0aFeLYK668cnnXu9+lheMCK1vnMY95zPJLv/xKX8ChM9ndF553P+7xj19+/dd/PR+YcB49+VOuz3/+C1yim8uV+zO+7RmO4Zg6LqiflbB97T1ATwcf9ahHSceii0G18aY3vdmf6AE7dcahXwEJ1lijFPdZ9e4Xu/PawNGfFeyx3qoN7XipzHFeyzDFYwVuptvy4YvANXnxvQBG16ACbZTMXJjo20SMqRa1lIZk3wvKZdgW0wCj2DCgJmCnfBdeeOFyySWXeKDgxptuWl76spcthx3KS65iOj8+BE+XT3Wcqh/6kAfX1bI8Gj0yj5f06973Omk5QBeLiSM+OWqYtm5gTNSyPO2pT/VTPpg8J+dsQ85m3O3Eu5UEkjD51hwWZfQF55S7KWSLOYbEp+T9C59BJPOUkGcGHjkGL9YMGqGJughcuxmEP9kQSa66H4nckVq5vM5eETY1S8hWTcAwBt6tqun49ttu86tXXJVf9MWLlksvvdST6KdYRoKJec97/j4v7vhvWR7+iIcvD3/Yw8QozlSGoVLqgbqn8smbW265xVaeA/uMJB8vofLY7/fmHUrBkXibAGphfk3kCU96cvWVeRK/eMmybTnm2GMqL5BQMpndRxPTVuqVE1E2XFt8Tfnq1y51u/buXSugW+4MphhDpI+qxrOAXJBw2CIkQYvuPbfy92DWkHmSwo0l1p6skV4Sf0zaX//1Xy8//CM/snzv937f8uIXvthPrV6o4/u///uX1/7Oa5crtbtpiFgG+f73vc8XWGy827RxXvlLrxwZNyeR1tMHuHThzDPOXB7xiEc4D0/V8DMGXg/IaRp+Yp3JcZ7+GHoCQIn4Dz3skOX44+8qm+LdZPXXhPkiLUGdBZP7UHpQOTaM2DByCHS64Pcn7rhzXAfst89+y6GMRXxn7j4rZnS/0uS7gZ04vdmE/N2WXVv8a58mR4ltIX6et0749a99bXnudz5neanulR/84AeXiy++ZLn0a19dLtPz9Uv0FO/jH//48mu//mvLN3/z031lfacu9PgA5Oe/8HklVHbdjj3mGD8VG31w6roHDNAB6izmy1/+Mr8w4w91yE4qzgBH6rn/uIdREkZBTbWnlMa25eCDDl6OOvpoyUVk49inx1ltVq4HMgeV26WAjVyE2bBmjRiry7VQ+pV3+eWXLXfwIRUUFfvrYeyEu95V4c1JTQzXF+Fh4xpg4iT1jHWC4l0Zu3OFWtiZST3akIKI7dOfOX950YtfvHzyk+f5LVcuwLxbfYOhWvl4lLrpxhuXZ+gK/zW/9Zrln//5Y8u+vpDL2SOnbYbK4sqsItFB5O6AID+v5594wglj8HCQ7nLkXcZmd223igpPZhTVVJP94IMP9lM9h3uS8wf22XsfbYD9dcYJYhXUiC/4sjOUpxIOyF9kt2q3WmNecOBTffnll0tQdnP1jEib4bDDj6hYBU05RhtR1ocA0FeL7jji2MWgIspX0gpiPaEOrFy5H1qUwADIfcXlVywvfMELli/psZ6nYHBZDO6FPL/nKRUfnNiL7jGZit9///2W3/iN31he+cpf0gVOruS5Bx93zLGWydxgQWi3bW6/ZOx8Iue+J59s1uBJ4JXE0KIz0QMmYhxKRKC+73/A/std7nKX8dDEpgw/Mt/t40KUmESDbl/latyA0xjMaSRH4dAN02WXaQNoLshPW9xB2OAOmBqscKmrVJfDLquuyaNo+wgAMpadauTvnnqb6rAeW1zkZTF3LX/8x3+83HDTjX4MhkN57/vce/mFX/iF5R//8R+X8z513vKa17xmecKTn1iv8Gl3c2W7z97LZz/7Wb/SRxB5eSNk9ILKUM5p8bZOO/fWk+55T2++9Cux3HNMq43vRVzTBDiMOCgtKebe97lPXn6eOVoENjfv17P5hwtYKUu3M286+RKBTXIHdy0u4+SC+ZZbb5VfbLXFJ4SPOZaHI8HcNSd9GIkkZgMY1QgRK/9fQEhENN0SnSi9MZgSuJe/4Q2v172Xr0DJpvohemr2p3/6J34N/l73upe/4fKMZzxj+Z963s7brizYyEKMBVkkHH74YRLblr4U04c9HQMIkvX00x/gtsMLbrz+hgjzALYMpvMwSu5gwC2puNuJJ/rFJG8+H3Lo6EXpXNmcc18ldzskmuJjrv6vRSq4wsW6XkqbmPZazjjjETj9F5BTJYdVgmWSsm6A0YPuTDroyEoUvYFNnE4qpG6tMIKS7/d/9/eXG27gPXMNSgZOx69//RuWY489zhPlQzxqnrY96clPXn7yJ3/SF22NftpJTr8YVBMxv6A0lnyyGW4jH8266ZabmuX2+E5+csmKo48JveiA1Dx8xbRrudvd7uavcjW8BG5PDxG6MMvI0hZeyxRKNPJS4zdnBePpiG6vQ76gi2Ke+0NgA55xxhlpgwkG0yLFgi8mRRWpCO50KWVyAljoljqxLYNlxF+K4EmyQYLifu/3fteP5/SPK3qeAXARGHINyp23xQN53vOetzxFG8Efx5atXymjZb+1O/oTYN+cQG+3kkM/7dRT/XIwY0WnnZtuysu5ZiP0MaP04VLh7ui4173vtey4Y4ftaTF/PAU84IADQqJMlXg3bjWQXLOQcRZ39ElIxaaJ88LzL6yHnm3L7bzr+LSn2d5bJhG0IwtJFOc2dMu2sSGcFRXkmkOwv/XEzPNMg55Q2TglVVYBA09XLl++ftll/ng1D+vc6x/84IesOSSMC1HbJOvGR5758CVvvBhQ7MrrAN0OIUz7IIwy1gbt8fLtscfyqxtYdi17S2BD8BDV3WnQpY6nzsgwltUNb1sOOvAgLTSbm6TyYYcin/uuQZW6QkqyUOronAJzOTpT5mJ5fujrxZdcvFzPp5D8LGpZjtOY+DWRoNijvcpXFTn8OgDPDzGkAASCMrBzIm3w6o44sZFIqINRWm3v4m+47senbIlX8EEHHajH+yNHnqAmybEi+qY/BT2LD1QoH3K59IyCp0BIWhIqy3U4ETYqBBmqPyzgE5/45NFVCl6X4KNdbN4KC6S0bmr9cXM37Qme+e3froXJV7wBFWc6zgLwyjwwYtMJ1+krmDLjSjUO8MY3vinvOcjAh1Uf/ahHly95tqxcpZTs9nyBKoqNFH1sRQWL2N4tUxS7VoAJZQIZdC5MkInb6a859xsk+A4/7DBdxOn5as9WgzBMk5nHuMc+9nHeNH5WoJI/PgtgXlY/6E7KZFe0CGrLlf7uq+sAPt+PRle/culXdEqc8gjY2+LRE8wRzXncBjwJL3/py5dbb+FCMDyfDeTgaedmZmJqFp1vqhvOkUT0eqWtxLe8+U05u6gNXs183OMfR6ekhuO+1eESe27y+WlgupWuzEcHzchg7UgGIxG7/JVlvpv28pe/fHnkmY9cTjjhxOUe9zxpefq3PH151a++avnc5z6nhcybFGAvPZ+n81mSwPdsDptidynDgx/8INWcXjPtnLZ5XZ9JSh8KQwhQPY+2i2tlWR6vyeK6Ii3s8te201YsFqdcFincOQtYAot7LSefcvLy0pe9VOO+53LcccctJ5983+VXfvmXl7vwUfCir7ljoPKdZUoHfMfQ0aPrebIk8Yorrlguu+wK38F4HYCXsu9+t7ubwTFfK3E4jyc4OtBc1GxQVsDqFspOcDpAklSjFngO/R9f9rLl/e8/e7lZi8LitI8WOLVyIcQ9jjD00047TU8J37Ac4nfx5nRT4iHmTPKc73jOcv4FF+g6goutbf6a9PvPfr9fbYNb4/OEZn4rj+BUlY/HzO13bNfTznsvh9TTzFtuvsUvOfOCjh9miu+cFbcBbFV5EfUHZfvtd/ihiesTnqYec8yxspOk2ZS2WIpDNTfTVKj/s2yK5aILf/s3f7O85Id+OK8xiHPCXU9Y/vhP/sifUBqAX1X6qHrKwd3J+UcDgmNUuC47VYanOtVIcuONNyw/8sM/vLzzXe/2oFl8JoO83l86mFB/Ds+t49uluJuW66+/vtNUG5FSC+UkDTm+9Vu/dbn9dq7eY+NFEF5ocTsyml7cRueypdrHz9nnKC02cLieUn70nz9qHbgNuK3sCbJ3U1msvOp397vfXff+k5dj6umt42nEAjzU7llBPP5sRe6JdgNOoCoxxJ7ziU/4Fcgg7zieeOKJiVdB7fnWMfqIsWSQTwVjtQBqsVUMnn01EZLtr85Tv+51f7S8973vq4WHsstv3PCjCDy14ocQHBinwWM675/jZ2LKXLkprAqzZ1me+rSnLrdpI7mfGhWn8Ouuu34zqDtaSGRb0GJhpKc/4AEORWYjXXHlFeUNmLjRO1VrVslFnG0EO6aMnvAm1Cqg+jHaOmSs8UVWkU4VbFRVfIE70yV6BsDjPm7m/tRTT/N7DmaoGOFGcmzts18M9ZIjtFX1rGaDVKTgCVHnWfxLdeH03/7bf0uAs8kv9wtf+CI/5p933nnLk570RD0/rnerJvCx7auuulp2xeGso+fFkN4LgJ17lk/ZtsumgX/gAx9cg0JVNSdJjqGZw71i2/Kdz3nOcqCeunE24AcXnvWsb7e7KLAkkDeJvaB22OkjeUuvetgSUD6gjJZzR5vIA1aZX2sjcPBomvdLvnxJvv7F0txy6y3LWWed6bgZbqXao9r08v6BitEE3om1khW85tEtntv1WPcTP/GTfisUJ4+rhx56yPI7v/Pby8//ws/riv0gv6zLb9r8xE/8hH8CZW1s8Qc+btAzg/7u3LTBu5KtjFQQpJ955pl+DsxM7KeF++ePfsTc9J2iJ9miMU13tSOLDr7mzQ810N93/O936ELqMNvNpDmoOqJksrujtseprpRgXlEoOJA5GparYyMOC/mxx9ZbILpkFtu2XT5z8tlDfHh5pfSxj3msYxzF/BQyh+sdAE+3oIcAJTC5Au1ZgyNO+sCu5dxzz/XHs3qMvFnzkpe8ZHnKU57ij1oxkRyc7l/8/S9eHvnIRy3b/BUmQQFkvVAXdLRMH8mBrVujxsag7IOj45u+6Zv8EIPCG0Pv/Ye/13iVhQWCLaLntROo7pydK8irdI997GOXf/fvnr+cdK+TRAgzr5iZEjgokc7tupyqPPFt14FovWxrLphT3TkEv4s4AkSfErjX3LAp5IorL19u0LWXGZpfPhNxyGGHeN2x9SjJHqnbbUgTOSdtTSQBIQJJzcbojnWigAn/2Mc+Wi+nmqIzwUHLM57xbV6kDUjnVbLve8H3Ldv5UqXb5tW3bcunddXtt32rPULXKWpIkom5oicPfnA+18cXLvgWzOc+94X1vQJzwq0wG0cuT2qsA1bn8QtpLMdEbxMFi1GhLlwhsQrULtdgNy0MHkUZJ1bV8hcx2xpB7UlA//v3/IMXniw7NPYnPOEJkroP4ldsVXPasqnUre6OW6ABdGeNkqccVnh833mn7okicPrnkzsnnHhXhc/BFSUTP3F6PJ9UoXe68UmZ8z71KTHS3kb+RhmdMmHLXZXj6GOOiUsFnw/gZ1dNKZ4P+ajGbADbd99iwTqF7TOvTIkJkDk6U+vMXdpjVKCCVZUkxDPDvlFs+tc+SZaLOw9fd8tXwnctO3beuTz5yU+WLF7l2MiAYruDp/T9eQAZ1ybA3CRIxIZNMV++5BK1yb03P4P2Xd/1b3eLnHcSH1T40R/9UT1PzlW89owex77id7Dcsbnb1oUKH1k0yJNOOknP309adt3JawM7/eGHo47iq1wrHO6gNeeQZF9dKio5qjdjVMMTXp6uQE4QeBI85r6T/QsYs125RtrSnWMYQSl1VuIOxO8O+I4k0wH77ec7Fqdz3/lCM4hsxWvjjtrqOcoGcIy02Mealaq6DAV2IIk+/4UvuOadKN6w4bdz0oBZSbARus1fpszpW1CeffWcme/eB03W1JJngvtSxaGHHrq84hWvWH7gB75/+cGX/ODyv972l3khiHg4Ojo8fc8SbmZsEJMg/EzSBk+ThcXe2VFym9w16ppcEF/0tLDyLEHQUdXuKKO7Z2TL8dSX10/8ErvaO/Fud8tX1bVwnWeESBjx1FbEUgXXG8BDLHtQEwYZAbTYunDzTTdLx7BtOU3PQT3rqLJ5J458gmy4eTPoQQ968MjDd/HOOefjVnvukrEU1dEjW1KiU087dfmZn/1Z/zLHSSfdMxPPDaKOjkbNEloIhjMxcVZQmYI4m+Lpd8L0iU0arreHzN0SfmpQHOZJt+QB7bc5GKYQK6Sw5rnqqqt08cq7ixC2+dmWX1Inpo6kSp4olQkZUTU8zt+SIc6DYUPEBlyqoPYECJzG/QUL4vQ0jt+5xUVI1+7gBDSeEdzznveQS+3AVfHe97433FoQQrvs2mcdyV1iJZf7oE554hU/oiAK4ReGEAx2DcqbSOIWmvROlnmBDqePlIxHNf10fzBVnCFbyFA3YZ04qmwel0mSunzk4WPydqlgXnj9gm8/hSTzyJOedTilxywCqbCzgqpYRDPEQRc6SjVVu+Pd5cftHjAXgLz8WU7VJbhSpPOgSFDFS6TN5TGc57RcxKVzoVF0m5XAUpf2FTfdKI4qJIYRC3nyx81HkqQqXoqeB7EZlxkyrMlc7PYU0cAmgzoTd+SBEh1S4Y30sQiKQY+mGqIS5qElVr8BZiSST05xZ0DPBk3bDjHDnqqdNZpuRFmgrzZWPyzoRlBpQ2acPP0KFysJ04EA2xRZZlhsmhNPONFvDGWy87Im3wlIhxUpvkUVqYlTzVEccpVQdQaI3tS43Kpz9z18AJsq5y5Epr1uoZzuXOKRNvKASuQzG+IeCSxoL0hMtnZbIyQZnIkO+Uaf4j3wgAMjiMHCu6/trFxuBRsNFEzBTIWi217ZtfYLQxjoXcSRzqtWML9nz723L9b4AuTammzsWlZy2FJDv8997q1TN53ON1h5HXv79tuq+bTTA7Zsu10TMpEjrw/k+aCqOhlVty6J/NQoJa/oeB2eBLxhrzHFAbVBeiGGx2NpJEfrnh6hI9Zskdu+FUfqGU9bmR8+hhZDWbnDtCZh7SbKkAS/FCyx40apYwTBgJ6j//gSJZ+q9amX7xjzho/D9IfN9CRJiQFJF4ynn65NcF9dzeZpHM8i+MnToNsqDLFzrvmy4BjTZp4ChUQXEoNuRgUWf0iqTcYGxyRJyW5SCgG/7BoXQ2umBSvNA7H38ruEg2DuxEbXEd1BOsoIZpNwzHHHLHfuyAtffFn2pptvXO7o12NUrhsLjf5Gd3gXReznYxQlUurobeO65VTWNLFcefIOGml4DA+I1SGS6cpXYZU735N7zWt+a3nhC1+4POYxj11+7ud+brnf/e6nkCxMWlNpJTGZyHja0r5u02s9mWb4njlsLdTyqOiFAmmlWaXRHBYvfiY1UwRL/VaV3luNlSJuK2ycMGzwQY5+zLbPulXBRfxCf8pnf8076LMNP1Tll8YbplU+JAsZoXuA7lDa9901HctSDa/FDFRCNdbMO7XjznjEGf5ZNF4M4gOWHzj7A1yam5d7VeVxlWTOZ6PUsctZvHS4fWlJ9mp7q2/WALkyIfJNjZi5Gx1Do2KmgA6fc7ovG04duycuiC9eTdkG1oge3zAENd4mzu7IuxadOJczH/GI5fobbpBxp3/C7s/+9M+WY47tb0mBPSQAQ5egWy4CBYbXUlgRbZ1Gsl4B8wGE9WtZfOLXQ2LSehBQi24lN6Es6FzE6A9LbfDyFtdtM1VtbT+tSVJb1otnDHEzbhZNonPAnVQe/G1iHENpSaUFccfKbSQthIenvV3vFuF8oNpvKD+q+Th0aypjetCDHohDMt9nuKY+IzGj2KqStpKP9pRFc1YbAFYRJtjS5qqZqyzctuUIPf+kczwNvOH6fggQaAS+Oxh1TSTUxMcrqLJUaiNTMPGsZ9AulWdcQduzIk1k+S1LqGaFElzJUVzvwKGiIyBX3VAit9pzlrAWjd1C2yGsZ8d1hB4jJrWLzbqEZqz3joyX90P4h1Lw+K6lP2o3rWFvGg74DfJ1TvqhDdBBMy2whX5AKXez2AB775N/XoRxLz2u+yNfUtdXASlsia20kcvBtoxqRU9yZ0GuQIFpSjPJgcde54mOzCbpqHAHxQVMT4hzuZBZVvoWeuqWJ/QzoISF4HCEDX71pyElLfMHUfWWIOzE+KhNYRAr5UEPfDAvotjEYt98Sz5Z1RhjKX6U2MdZXFWeBdiT4JRlK2SceJqTvyP5PF3da/hBxHxNuRmC4yh0VMqq4i8fstfWPdUR56ip8rACpSbDqgoH4sCoGrVRriQoQ8cJWYI4bVEb7kJzQy99Rfra5nL2pLZdxbjTUhct8DKUnDDKWFTb0L2MtX2N004/NV+wAVqgj3/iXAnSc+sAo/fpBmSDl88ECm5ePXXjq1G3NqRDcYV71NFHqdZQaEGOS758iRmjPUbuAGyJbJhTRKrWYY4Nh64OZfExxmb0qKrqK+WsDq3N7dUoVGTx5Fed0GwCy7bBjN9RuTV5xaTbT9m2iklbMndfQ9yC2grF8QYvevoiqOPZ+NU7cfff7wD/FhFJqT974YXJwY2BGh2fKpBSc8WZoK7ZC5UgPUo971TkdtMJPj5NQn9RQ8Yrr7jSXtI7SpxxsdSjGtjoVWGzNUc6rq34s1g1BJdo82kNdCbPhfqBxvCANxX16EI5whqSIWHIW1o1lAQ9DwcjoW3m9cYElvsIIpWuMfT4bJPQfUy++Jh73n31V8Dk542hq66+enD7oakfdithoTNFrIvAipyxYSJgNiCrE/vtXzztJD0EXHvdtSjuYCdI2xXbKSoGIaZ2BGgcZswTaFFW1WOXtw1yXJkIHVSZC+5B1FBqgu2McWuqkiT2NgrGhAowwo+Ncp3wSghsa30sIeRYVCH6wKx8nhW71b7pFHC63uUfszjyyCPt4/WBL3z+8/aBsCrMeXaHW5GP1/Csjj5X7c5ENDIVWIrvVjScOodwGtp+W56KZGzNp1ZzqZKzawmYw8HSGyKW1JKaP4zSalJsS6gPVFxkWtdh7W+QoJxdwnedajeMqImAyOGxFsF+N7pJrC0nrFI5zGeM/oqe/dGdLBO55kfQjTsYn7/kp+CcQvdjvh+xCWYA8lCrSg63Ih+vyMdY/UlA2BEjT5ZWnMCdErgIzNesYsdMI3braF65SnfLBTwcXcbfiC3wPUGu1Stg0iQ6SoX7MENG98fHShg9UGW5VMNyoiJ1QQVXR6ccmBXIHQ+fG7Yg+6/51D1LW8C47JbfdB739/Em6Ihr+W+k9gReYFsK3phVyUxN9/0Q0MQ5AbBcqzmlCtFAKEVbid/L9URzyIzHa8UxZYhE18s2NbqV1RM29wtX588ilFdGbFnbJhRkXNWSFMdZwNHQR1IK8lLaYAyXKwm5mepxI2+UeHVIse6OqT2Uim3ZkBzRbClmIAxKai7e9lr25Wm4NF6H2eF/YyONfujwAtsLgSLjHNcqqhB3uwbIXNLgOnSkMEjeVgHRE5u/nTtIXJmB20lk1zN4HDezF3A3JG+kFchriDIj6/Br5W0f/gllo8qhTL6VY2qkR7+OPAdwraJ1Uz0PQs3PlEoK2cquoJ4e0K/vexC2U+hos/UoLsuO2e/DOG6bf5yq18bXYL5FD5Ip106rvTZAJtG5q0M9AWBOgwIjaeJJ3KIzQP47BlZ7KNDd6IRSxwsplWd1rPzs6lKMUqZQBozVfd6asmB/2VZKcs1j7aZ6XZpNab5utqhg/ONe1hipYnc5U/BrfGucDaoqsMzpa/ds8q0d85dj0PIsTBxoRTV6HmfblAt3bYA1frNcgZ7upOTIlz8kYFPNK4HBPEDBYSYirKIx8QDq5Pcm080vbQobZyDIFb72v03lABLxjUjlyuLHMuwC89vztgkctWUmwua9rDDlsDeTtEL6iDMvMmIPj8o55ra8+MXdxT+hqHcATVEh7kbejXYrzmWA2xtgY7k2hCjpiEWBRFGyAUihi5Jte+fj3eVzc4gWNHFpX1AXa1AxqexBQkItD+a4ssEsjnuA+mz+xlYrEkgOwzETy67yyxxPCZ1/uGkHibbKXL6ONCaRHPNT4dU3kwLPC2a7IvSI+swWW0OSbjzmc81FM3w/so/BMa+iup6hOKx+GkgfOIwNoTpQhJ4bR+jmX6T2QOHlc4L2Myod7ja14yjQbTJGvxjosI/lT5tWKHSIRB/Mld4+V/ABk285uiUnjjWY5WoPTudLwkJ0t8khS/ew8zhXmRjzRg9U+LWMmTShe5IXp7b45bJNfYun/Trp6xmXP5Zn267lrvxeIh0EHksOm6jjmTJE9tNAix3rQ2VHCAmSAaEaQfQHQrTrMmDeEczv7PWFDblHX5wSAZnowpRvEzXouEVTNAPBSA4c+NqfSrWcIvVcFN2obglDMKw1CaWCPQ8lMQbDC1UxQufvOUuv4cCo/kbcDX625AlCW4k1csWiO+lu4HcYrrv2OncVPp8JgL0b33L6TL2OSVDwuAaAgStElQgiWPeElKdc4JBDDvbVJ5HYrrz6KtthMK7sakCnxrCSICa3acDtCRmAVAzHwOk8KvFxUK3WuMaKCc5h0iYw069yr5xevpiil8+6RM/JCrevW+Lgd9n6hM4x5gROjK1D2rijTIDJT+leedWVnkPOBvwkTRaz+lrI9CUP4vqwIsicX3QAqru5QalJ9GJaoFiTHXrYYf5+H43wxhT/sNHRkmHNA3AoqGTD5TbwqmZCyo4l0xd4qnCupuSRYbd5wk6ChgkhxZ6JT1yIkcOpWTO6P954Mntj4S5HRbsERTfXfbOy2o1K4aMcawaAlqB+3t6L2jn5CN4OXQTi5XMBfNeCPiWykqK5I4l2Jkwlg40zwIoNZQTksYxUdCO/iwewsAPuvIN/oMwnfec9CLpLW1oXnLdnATgwS591iG9dUAkta8DcE2uaDaT1zANkkdI9qnUzJrFbyeH+dD3BaufLEebUAzvgrH1Y+w7WxegDw7poYJ3B9m/0RQn/8YMfHC8F88Has848S+bNuXC04uan2/P40bMB3ICKzZ6uqAlxJ6cMfK2L36bLY74eT9Sh/sdMG+3sAfa7OeWdycjdDcnulsXJuAaX7MKAl37G31EzZ0Yvk3k9yYSnCCrJWDpV7QLIY8nsiGVI1ZdviFDdfi/Bxgwyn1LxeR4k82NW/icUAl+340ez87DHMbXnNBqlTerjcEXgA3khTcFTeCBzJioe7rFIRx919MI/Rmyd38nlp8vMoSBkA+Eli6BekTd62nUHPVobzXEam6pvLjp51bJlcMqHbDtlahD70Fy6EsUTpNpjKVdQSjVjWI7dpYt1yUY/QfkCKWvAqBrsPy8D9urEXHYnqfg6XT5PmZ+o5Qe1++FpndOAhy9yWw4hkur1IQCjSdPeM9ds22opRif5SjbfyuUNQVicgq7lK15SNrtQ/ohrfknwPK6WrajVGG0FXkqNwtqaIHCDxEalJle3B3DFnqMZiSE+/aP9cY+lmiavI7M46YstLirGObvXQgtym2FfGanchrVYkWm/fa7Ct0ltX3rpV32m9fcyZDv66GPqBzRD6vCAUZIhpQesm6dMtTYAYVOEs9TkhWtbhW+Ar3f5v3fUgHlMuuH66x3kJp0kKemAD3KVvT3m20aWHL6AHLxYU7SZcu3ncA5MizBWcI2kNGNNsPKHPaKv+HWzH7vGS8v5KyobxX9rFhz2RVzjJ1idmotcOVQhccQf+4f+6UP+RBDgLMB/JDv4YP5dnuCV1ZEbDHGSJftafRTHm1w3bYBuIshcTZOH5NtqAU4g0wMe+EB/GATcdtuteV+aBsxJJxJpS24xyNdCcsENotNjOluWAhKHCeVA3p0R+1pNgtA+MddQYebE4YuoNg83E5pJxQSTOZqjUdgW3DJmDNEbPRczMK0bCXJphGo+3v/+9y8HHri/1PhOO+1U5Sm+6o512z4KtC2re8lC65YPhAxOh05BjYkThMmvffLDjSzi7Xfs8BdFYPQxOkG1Bc5gUiZubVsSIUywbbLURsDXtgA75JaTJ+0WirJH1ERYHEXBkzncQjlHX4Ry7tZeYV3INq/tDdgRLyXpoQx+BdBVnv5ddNHF/uwFa36LHgr4L6nMSvgzOpY7kg1Inc4N5JVA3fC7sxEmlNJBRtlU8b92+R9+7o1a+cIXvqgqH1d2l+i129hIatgy5Q2jBkKIQ4vQNXBOWDraLP94Oql+lHegZeruijlTWrfs1Kl70jaCgdpyWMdih89fc4rsdP7bpJd7C1gBHeRSosQWrOd3Ga+99uqsXL3+f9rp/DhH5xdvNJbocUdyLUnmzjsuAiGYRLSFQjM3sBLOOuuR/sVPwMvCl371K/LSCJOhes41odNS96Q1tbaAEWn3MqwaWGHsEQuTT8JwuUiOsGZIozNsJtrZCAItyJdbgNk7SW2mst7+cXouWDMHhg7J6W3xMLsPZalE/CTMRV/6kn8hBNudO3Yuz3/+87UX6lLOcGJL2UJC7/hyeVmQddQGKIKr8ljRYWZ2sCGhZVy8HHz00Xxdme+qb1suvOCz7mj7TZ5iWso+Y7fqgCfZj/cb3HAYyGoTufMaKE4g28yaskj0+hTGmUIwiwJO60I28dSUN0b7JeS2QgOKXhlmP6Yyg6GaUCwbi8TkMC/ImBAyScvf/O3fuga8/f6SH/ohSRXXEDezVqpXHJZ4o59gvBeACWe0AMVRrseEKrnTl53dd8YZZ5lHA9dee83y1a+uH1D0XDtvJ0+mrIEK18m90lS4AZL2fSMdD1OQMvpUWF/xgteyOOauMK0m2/bsRsu98DbbWZkqd9amCBtV/NTo8zFcbbGRajjMGXwpnDUsN0UKv6Hwvn94r39PATP/+exeJ91TUl3LT8isCSRx7mRm8yNlDPMrgQ4o0pBmrAPzojh/WA9/+MNyUSKZn4r587e+dfg661gsVdiYyMCJsh4RU5UMQsWwuQlcUyh4yDFUuA0D8bRtZkyyxGzOxuh5+igwuc5TvGZQ+rG7iQIUtNQwmbvuX8XUwaTOCxfJHpW7lre//a/9ljsWfp7/rEeeZX71pqmuRhcqHVVy0z83ZeSbQaW0EHJhCJN9crJT+T/9+YBi/oHiO975v+3rhQm9gmrlM8lrLzcfJ4lrfkeKWyvTm8dDx+SJK14MSFWXrJhopW9Wwz+1LCUNDR3Bswenp50jDLsp5/50jZnczhlPyrW9ZKycMk77yP8c601vfKOe/+e/m/NfyB72sIdJJHGNqhK5HctJkKzDqaP6oIoX8YyprS2K1NK3mAO1xOvQxxyTf1TImYB/7njVVVd6LZx/IzAtUsY8Ob140odJQ5lkbp6gpNgN89p32Bw+ZIBigzJSt99JVNlWySqyNaRMKfWKWW64vwPKQDs2bc0JyOjlk8wiwgnji3p2dfGXLva7riTgTPugBz1InHDrZozFrrGUZoK3StkR6xogpNHZESEQ1Hq3sAV3PeGE5Yj6LxuQ+dHCD33on8x3yJyv0I9BG86+a8vW1m47noqxEsvW021jxLssLnXTcdi5uYzd3ng52NhgVEmtqdZkugsqKp2xNlMGWWKTZRCxxO/ShF4+ykjM1Uc/+lGd9vkMoC7cdA1w/F2PX+5///vFD49bNyq+RYf3VpVUetuBNkBHkcC0KI1pIubFsFUFU3PYYYcup9zvlHwmTTbenfrEJz6e3/9ZwzdArm5tpWAh4xRUYvLUYrkfTHzLBa/EhC2qY5TIZor218DWVDiircsGOgAUh5udYTSltIB+aW43bMZqcRgqawCdo5Ixzg9/+CN+s422btPFIP+PQROON2FwRzq1RajD13ZTp+yLQV0DyJB2ytf0Sip967yCpmZ3bVue8IQnLrfczH/izA8/febT59erghWsqtN0XkCZrgT4yIclVpXqQHYvKEHmXCnP0WucD/cvGQc6ERVHBbsaAw0nmuQ21+IMeWDqX9Vpt2T6Oewrhr9qA56OXCgqTn3iYfXv//49eeHHhGV53vOeG2mjH4E3pI/0IfnX/hjyQ/Fddh7XjDSmjrS/SLEGyCzEk570JHWQp4V0Wo9ZX/yC/0XsYKvquB7EivZIcpVlzXISuHtEj5tqjU68D2Qfm7G2VRtGBZvjmQuYruRqp7C6cThON5Thir5arLdR9WS17HY4evNVndcq8O5a3vSmN/lf0aHzy+Df9V3PV1e1GZjrsEd7G1AOrPFs+lvzS8E0vrpp0lXV8kiwHzEtevwNRP6Nyzc/7Zvzc3Ei8i/YPnbOR+XLy8KVbCNuA70LqdwYkFCyp6JycHSeaJFcwyeHLUHXRvlHYmBxgyVglE3VWJvSG9XiBhxls4qij31FriEkeixck6oeF4CqXvGLr/DXwQH/deVpT32qaZwdYCdnyq4qeVQKOtU+hFLzZtDoIaBLYdpKRyb3zOyJgYLM//jl82lw9tFV6h/90R8XRxbd3N3dVi6Cyxp0JoVDNnOiedCS/PhVeZoZf5ELG+MYiI1yY05gTbpjPC/qTSXINdIK7oHjPjgSrRnS3xzdNTL0nDvW9lg3wTh3LWeffbY/+4fM34kn3m25X1380b5rx0+pprpVt4cykSh9Bsj0N5Dl0i3WkAcjaigl4+OXP/m3JfwHbe71dO4T53x8+dJFF43Y0FUyWygVjxB1GMwhrtvo04InTbNpbicO05weS7N3A3lIUWpqGbhJGfooCxsKSJ7U6k8ChZroAuKkOiR6SbNzC7iW+vt/+PvlgP0PMI1vYPOT/PxA1GhjxGcld++nMLUx3GXz08BMfIJ9L4WlY4obcvahaopC+4444gg9Nbm/pCwEPyf79nf8tcnwR4h7X0vVxmp2GMQJC6jkLmSlWxMGoYPnjeFiC2QjpuLGJLJxSk6Up9K0DWycYdT/cbcOH8wMKz5UdJu2UyZ7z8s87xT88YMbH/voOaUt/lHt5+rij6eB3eGEqHScbDHvEe5G+xNYrwQaCbZfRfIrtQkzy45NlIlfreY/ekHHxLSc/f73q+M3WsaWfAgJ6o89c8SyOZnrUugwtRa50aLqzpDUE0dIzrJJgTP6IhlPjg1mQTb4bYXiRpolT+VaLcKglLWdXQsMn9hBcyIJqi65+JLli1/4vDQ7/GuqjzzrkYpRLx1QIZQJSbt7hPpojhjVBG2NVwJBB7efVrJjHBmobhNy9mbcdOTJejaQ/2alTmqGL7vssuUiPQwMqFG4ufcklkhPbpl8RWxX+5FKrnYnVyC9B5jUKiaO+yzgp223aKKNE5o5m9O34UGoHGHJUOPpfuIb2giUFnd5omQxo5fb+GNdQ93Jx+w1MD508+9/4Af8sTtjDa/aM7g2JYxsY6fDUc8Gqd8MAuK0PQOzKQUJVmcq7JbDRqTBk+51r+VhD3uoZVaEH4766Ec/Vl9lhgkSwV9jSAispG978HeKGWsHAuTKMfMtsqmt0W8d9CsG+3Ns9tRycRqe090cyKu+OUJhbkieflvaM2g5fFrnpXQePnncp61jjz1uedzjH1/pa/NKpv9lcW3E5DWyn7mY/EimqBgboPs2MMdZcIgrS94BW2Desrzyl145vijKjv2rt72tg9a/Du98wM3U9NtIkQ22QiT3KZp9JcfVSnxbx5WhuCh9JWRLJMcq59jYErrNcfYoZ3NSyh+HNVdTwhaBWyrFz3DEfdvb/sqvqHr99Jj/kIc8xD8K5fE5ZebF/SBWis02pmKYcz9DxFfbRYswvho20zrJismgIEtklxm5qdR8PoD/CXSPe9xD/sSd8/FP+N+cRS9UUPffyUyvJRxFtVdlmUYqW0ue04NeRGOLD0+mcGQWmPwmrlawwdYNuT9/4NLm9D1WMbzLo/WOT1mwa+qjwD37Nt15/uZv3i2Z+6cidu7QtdUZywH9j6LndgtjHl2klZpJaWurWXzs2DY+DzARq4E1LAHR43NlcWXVehtPf/rTrTMg/q/9q171a3FM6IzUngZibWKyEaaEpZfbXbQMTOmJjDVlxwqT6HhqnwmmPMJKm61BbwEAr3XGuW4cwaIYkykRZXAVeXP5Y/3Sly5avv71y8aLatded/3yzG97pqQpp2q3O9SWBI1rzoqGd+Z0u/loSbHHziheJ4kqb9nXNCWryGNNPHvtzaeEzsiXFWqSP3HuJ/yR8TBSriA3NnKg9y7VIdPccaytJ/MMPBns7r4t+Aak9VNFVatfo/UtG2br4gH7ZKYez3BspOj4NWcxho5wwQUX6uL569rk8T7zmd+2HHPs0W7eh8lqvRdE8ItUvSMIMyY/h9R29ebdK8k6KRBlJABqyE6im1x8TFSy09csms1+Orj3PvvIkpjbbr3N/+zQE1qxGU0158F2fOru1NgMZe92kmSCcrTHPtoqDWxESXGtYo1p0MdEUq5xsW20IaTrsabMnA0LQm0eylUKVonv2N65vOMd79C1U/4pBA8HP/3TPyNJY1OOEb/RHukZiDTd0iv3QkdrQgItdu9478aUymfsPm19BG5nMq3dWuN4UejZz3qWP8CAlacxfKFhnCrJoSp7YGpPIvagSN8IHeZ6jsJAbNlG+gjNdN2KXHQte3zdSBsXUZLdfR8sMr4YJlZascFSlaAk5XHkSLaCt3z/7m//j9tlXk5/wDctp5x8imMIcoQ62ZFrtDNmDDEEtfG2gnGSxdcAmTBbCnNQZSTzSDaIQkfHj5xyWV704hcvO3bc4StNHhb+8R8/5B82GFA6Mub0FVOtQNDNgXXm608Yi9MxquNoLdLIg9DcCYTJRbpM7ogMphA3Cc9aBcrg6SlTDiezkjMoGDOtQnbcnUw6G+JP/vhPlgMO4mtf0nXvOeusM/0yezIF1qSs8xZPmlER1TGZz9i8TcsXbVwE4tBRfroZXjTXPdkSk2jl4HGnfDPB8gknnLA8+SlP8WsAvCl4/fXXLn+sAUJwdFHhlmUT5ffRM68jf+WgsA9FtW7mY8YNime7rN12ADFjaDCxXjth7ZU4Doue8a5RPB5bszl2M2teLapTtO45Emdk9iJJl/8Nb3i9P1+Jk2/8PuIRjxjxVRk9HbRLxuQMJ+Pr7AJq+Qz5+lonG0ByD7gRlZJE5aTS4YlQAls32tGfWwqRpzHf8exn+7Xr/H/hA5ZXv/o3lu23cRaAl1zubHXIRiddEyebdG5tRpYj04kRJRJIttJqgpNHIDaVUFZsivdUSnWIPSiROo9BVaqpCsopvQAdn+mVU4ZcFNvo2kNPguWzn/vccuONN8mme4soPD77/zEniRvqSDfquFoHA4l5Tx1CyxNalVsboDI5Gb4OanSiIlDLRKdjWbl0xYOGooNT1/1Pvf9y3HHHeXJ4WnPjTTctH/7Ih8WsxSKcfMgFlmE3o9AXm0a5yTNotpW+Fq7H4tA3eLgwlRlqJi7xmfN1QwU92WXNypHd8uhbIRtqgiematpBld6sT37yE8v2eojkxzZOPuXkenc17XQZXeVG8q19k0T+aKlx0agC02dvAFwx4N/S5UI4ENrvXAhKiJwi8ERwyHavk+613P/+p8Yg/aADDlze/Td/o2uDOxU6BeGcVcAENsed3gK70hgifZv7NyMXVQirJ5NQOpWPxHe5W5tGW9d6vmd3C72h0O2R7vm3phhVeKHt1L3+85/7wnKHNgB8PgH03O+sd/6AjMmWWI4akTEkkqHAd/sSUwUoHnOM6xnAncsUxrZWBjKxZazc0mqSSt8AfA3ge7/3e8ZLw7zH/elPf3q5rn5HIPeGTGDnHKkwlOJW1yJVE8sE3D/dqIcZk8cGKCvQFYW4ZU7MiExsiYby0GV3e0L3fWD4a36EGqq4cabJ0ehyzsc+5tO+X5wR+Vuf8a22Ox6TDkLRs6jravUdxSU+k1CoS3CM2QhGnQECXxhMM9HxDXRPYwQf60RnYmzkFqOzP/axj10OP+KwpNXxmU99arnyiivGU0TQk9L6imqPRBygdCq3LtluBxfJ8gqfAWSzuTtHZ2zL5ufP48nsFiqoDl/70B4UbCmCEntZ+g9kA0rutm1fD+4Y53z845L38kXz4x7/WP9beN+LOSosXescaWu6Q0+QseZ0w9e57NKzs/QHhpe2yGGMOFQpGZjUdqwBhifFLPHaLJGon/npn9FTwHxcjBeIXve618mRNpJVcRFKD7DRnsfSDW9UxNk57IY6g+pczVedMUioCpB7XNRSI2CbdUKKX54OTB+xwrEQOYYOotahZOvDhQ7J9P/d73o3JIFPAe9YHv3ox5phkJNQJ0enr2nIM2hi2CMGqfqSuctBNUhSdMaxSagAF5I96gJiRSK68XZvigah6SAK+rblcY977HLMMUfZxDuEf/Znr89n3UIx3CT5MPZgBZspTGx2QDuJazsJUoFNNpAFYzk6b6mCAonFoD6sveiw1cLkE5/YusOYxDxlkXpMsStfyw3JmN72trctBxyQn93jizV8vE6Pn3EOVCAx1XH3x7eZWLIb71o2tQ9/7sP6EDCMpQOLchBRMrTdYwTksWgYJ4fs/IMj/mk0drLsv/9+y1/+5dtWSqpEOVyFDGMMqUJaK2F4ClsDAvMpOrDkTRqaDip8atxix3HIkmmM7niHJKg8g9sk81RmPDh1kFjHDt0R/kYXxj3WI486ejnhxLsmqI/OK7g/xbWQm1AcNodJBWQnz2HR7vkDIc4g6xTX6BcNQNMMKRs7r5xtca3OYD7woIM3XtXiS47vetf/9mOfn96J7HDnBG0Icpp3Ovvtki1WaSNOkDDkgheGoARWvRXJN2JLmObOpqFSGLKa2yQpw5cNH7+k5nWt24WfvdA6zwTQ+W9svIjmM+FAuJ4n35M3MSzEWMxWzImCopJ1Tievl4JB7CLuxu29rWNj9tHbK6iRyJRmp7ZJO0314x//+PpB6UzKxRdfsnz5y18uPUit0j1fMSZbjQ7RbXZMmjIkdB/amajo4yJPVbkD2eeNGGETmEbMFOyUzk2CKLFBkuAJrzq7wH768rnPfnY56JCDCdEdZG899z9xOVAPB8XyrZGcBJZOLt0wJ3+5Iqo5NI44HG9A4AwgQrlXuJOzLdPncemAb/8ku3AuFKY/x4pt/sSwf8/G3MU/KnnxJZew9UcuL8DaS9vK42rOWE5BAvKsm6mjAlJ1dIjNGmGTtCkXMJXZ8+5F5chGpOgtGWuMXXdpiwYcy67lM+efn5d/ZeBXP8486yzLnm/NxbTetaAIaWU813cJWlIN127lwCzZXTYnB98vCseqvSq3JpUupcPwbsh2p6PrcJtRlXrAp4V++Id/aLnNLwVnsO95z3uSRHDnkEsHmWMMlU/99WDMVTFGFlOQBKH1X+BUzuEeY1mbwz4UYU0YOLayd2eLk0olTiUxB4g3p0G2JYIf/6+99jo9FPIMKR/+fMTDHyFfOPSHXMknQy04gB+axqAad+wdOKI6QQElRz0EJHJdvBSunVhF6bZRq0U3KgJ1fD2lttpiTVVfRzzrWc9eDj/icBL4t27/4e//3ouRv8S6CD2106ioHH7mgupCZQeZp9p61CyGmfHJiZxUlmyrkGhWJJmDt2BhaHJL7j5hpo+qN2hQklByzRU0wqTwM29f0cMg/wfYdl0TnXLyyTjtpw2inaHSpF9RiMlrBZUzzlRqj4cYt7kRiyuGbIB2DsTgsnu8FbRmc3ydAo1OZxfqlqpYqvfaa3noQx4iez7u9OWvfHn55HmfNM9+FxU0IKUSYM4SUk9BUBiwlEwEto5rHkrFNmlKgYw6XpSiKr8he+JoZc3VsEscM9plWxR7qg9uQiT+7z/fovYHMwR+9IG3zgPZKpHLiEb3393zuNsdyXblJG0eqoprdP97A2zF3GiVjZGExKp6J4XVXpwVTScshcOzgMc85jH+uDP8g/Y/cHnD698gnzrVRJgtO3+Ultq1ZhYUPF6lK9OaULU7i1STNbm6r1NguCy4xGGWlDgKsnSZOvOcgPTNVg/BUi2EITcLc8sttyxf++pXTeD9kQc9+MHlriDLhe7nZhoSrxxLmss1XLJsuQlYUah5JRBbPHbN+ppiReJqElX06SeQ0CGYq5FGTya/KcRvCRHLu14f+OAHl5tvuW1m+rBeK8UkllSeleMDvzfLJtwFeAQ7gSZr8Ka6bGlDaAHXKk7IVmqaFyyN7QbmIbyUo9e63X7HHcsNOgPg4RXAB3zTA8xxRk9wcWMa9bxBAN1fh29C0WUkR24rrPPszFaoqOkoppCTwuhoTE1SHXMiLNvXZLDmSNi25YEPfOCy7375zBtnEO4Fn/nMp+WpHNildSS2TRktlkhiS3DvRZibz52GRbdaCRI74E282kI1Mbmto62e1dtoVo3BJPmtbObOsxx8u5aLvvCFvOMnE4//D3to/fCTmClBSVEMX1MRU3oPgfbm8QfEB+OhQ2SkfCrYQIgSabcsE2AwUFprvSYZkwewZ+A59NBDlzPOOFNKWuEt0M9e+NmkMtK5hmUXMLZ6Oqo3gayu181kYJMh48djpqtmpsRaPqNrEDl+B5aMER1/9T3iWJSmGdioVH/i3E9WxLZl33338y+wc2YkFXHrTKhucUJM61jRyWvIaDu1wzNHgArflmuAjgDF7AydtOBEyrr1NM9EDKpHUbKFdWq//d98+3Ir/11Eo7z99juWCy4435+Bc6xjppyIOvC62ShtFKpFyfMAXZuSCVonBmElItnvXEAWZBttyCJaoFA/MqOWjYm7dcXdrn3r3KTe5tdCuDDmK/VHHXOUz4xN98Or4GyVLplV5ubD62BB6AbQJTNj8DE3JZBNhunbwYInhjpHps3UkiSXnTr96xaF1k2u2C09y4LwkzJP9NfHMXNh+PFP8FZo5XYM/Iq1TmD3iHtIc7pvax+DGnqaNXOuQ+6IlRtLxQ3yhmjS2haSDk8G/UO2w7DOzdXqkOq3fa+++ir/6gdBdzniLvkdQPPD9TyryFwnw3xRZzNzoYOcA3YQQawUUzRKEpoZgs8AIxBeuJaZFt8INkGIaezODXQiuyCOzIJkVNkI5TWARz/60f7nh3x28PzPnJ+fQZva8nAJ41BQ/vDLUxPkfB7UFjhOfPJtuEshfLLTVnKDyi0MSiVxszp6+LGuSj++N8hqDjHqp//g2btr+fIlX44iG/8O3v8ICq4JzBXksAG5MnRn9YJ6nnRQ2jrmY52ndKvtsVHxEn2pcVovfyP3tvK7EqEaWaNWDI9aHQsFLK76E57wBP8CJoPgue9b3vzmpK0jdCbBVQ0cYFBlHnKUrU+zMGfgFA0cJQKHMIVM5DAMypySzs2hiWtJcEetCrXwgDGg2L1yeGX0K5d+pT4Ys8v3fn+ANu5OWnWArw/AHXHLsKscDXpO2z5PBQydAaZoAW3DYoUs1laUyfnKlwVqohT04tkpoaeZjp9835N1QXiYKBr8vvsvb/3zv5C9djSjMpU4EmWRQPaeeO2yWkIoeF0nsoryGZId4rAIyZAyp0o4ZIIsZZo91DBksxJtxtgCqga3y+Lz3z9bPkwXx/vsW8+OKKq9McZuS+iHiEaZA7tWP2k8CkhTHFI9/2g15aBUx6xToNZ2Yzlikl4BWbOeyBUdCrdlrPzaJW990kN8//Shf/T7A2PiRHZ+y0TaUPOSnT9zU0efe1F0obhOsskZrhL6IY4zmHnuY7wceM1gjtRm0TeQTIQqQ/WrwUMaodloCT7kkEN1PcC/gtvkbqQuZevZbqNzW6E2PA7xfDavdYWcM4CT4khVBa3YF00dNs+FEHJrrfuWSsdYPqcy2RMa+fi73nU5gs8KSoG5//4HLJ/61Kc32pnEylXJKTwJ5TQkhzQoK+CHu3nvSR/btG7ROiaqxXYZsoyBhRhXcq6WVQPmaJL4Rxvc4/s/rBxw4P75BZCeozBH3ZpBhyfDlm6MNgbK7krkrJHfDMrOtqsS4Oilo67YUYN0cdMStRulhR5IYE03Gsd+wP77LyeddG//70F8vD5wwQX8joCcncbMGJyLkZLDmi2SQ3ZZi2wNsXejlLCEpgjk6UzdL4hsksG3IZKb17H6glyMEZ8ZS3RnllYBtpbM019++793H68DjBeFpKfrjlj7ZgtKHZOtH7bspu65qMoOl+qhbfVS8Ka/p1alEw3vJuCa334rSiw9N8mxzXAfKwTuIx951rL9Nv7plAw6LuQFIY82sSkVEMF13Kuhm5mXrJrQ3LZUNsWtlsrjXOukIFiuhXFEBbmFLTkMYlStZ5eZkdw0Y2u57txxhzz4eKs8Rs8fPHNr9qs9ty3EmiO2MPthy8E4RlX2wY+dGL8UTCcM8SKVhbhyRZiOnnXBEgNvF7rFSDY3fY6TyFNBHveh8ozg8isu8ztkGGCa7pDcCzBkjshth2zdYtfkXv1jTUBx7XE+5bVJBXqRe2GAe0LjusW0TqRdqoiCQvpszsEY6G7aLf8OPwVOLprtli1U2xlnPJQ9p4ap4Q1IdVeLtkYDRcvBX6k6A0jGQBoOCK4hgOpILH0ABwYeOY3Oti5qCLanA5YUw+D55ct999vPMsFf++rX8l8xrVF07uQgm33YEcKagJHcyBnZmKS4dGATKtRjlt0XSJMNJZGSSWhTOCOngBktbZawuoV2CIRbpdAGQHSZjNUzQbXasha3sHrNHU5QDZpbNlUeV/sYZ6REqfDrAFgrJEIy2z5jVtekhIg/cpRdnchOo9H+k56bDv0h6ziLj0ABXQxdeeWVy/Zbb9XY1/wUxHg0gmXQA21UyMTYhBdP/Zji6JUn2pMt+8gRwNw0VSxG+lPqOrVVq40tQ0g9JdzH/2UFxOmHvlHrIGvbzNuygA0bJ5+FihCx73S2xZn0KnTFIbhTcYA+9Y04AYtpnbi7IC68vFgkTLssUQBCx6dI7kz6yfe9r//3IAtz+WWXLbfeNr81POWT/xtMQaw2pZWwKNFja9k0oxbdSGY/75ewxk+YVc+sTCI7LlYh+bBCiSKv8roFyzHnV8CwRQ8S15u0+1e961DHWMbM3CvP8HkthhZAUbVuBkFtZAPYM09MED1Nt88JKlkD3xw9FqkaW8u1k60xUWeceeays/7pFF+G4F+j9BJiXHPPrf5LUISpHQcmeaSJzb2SDY22mtm0KdIY4cTUvKW9FXMWP7x53mIzVeJ+++3rj8Uz97wVzAdCrMddPBqR3EEDGOJzQRuF2m8VoxqXKWpHNWZ3SYQ6AxSzMJbJZmkkQ3FmmUgWpxWk1kKuViY033nEaTedut8pp2jgeUmYp0XnnHNOdSm8jiSLjx5ZoT2rWQKGEitB0GNo+xY1fhaNak4iWM18WKpAq57RyOUuBbvGAZdA8ZgLyr333scLTijgA6G8NwKSQ2Ula07rMZBbN9viYA694biNmA6STWKvGH2oM0AzMePYAiYE68iYIRhOmMNpyZVWctgqKHbNnPtHa/vuu+9y0EH5//e8SfT1yy+rqDCSpthyjO7WwMiM5O4x2SZ0uxMf9Bja3qpqi/a3MTnm0sDORGPqOFDyrPfRfaRkHvqhI9B8qF0+GHOHnhrGUsl9NGQr1bGDIgGZPunPPlCCN0SjxgQY/zgDtDkJomXiOngNBGlGx5ybg2KeccvJSEy0Rjq8nzbAUUfx30fzvcGLv/Ql3zNY3/SmIpLEOQwaK1dsBBQBe/m2KJKij6narCS0IVn7GUEQuU1NXYNnMZJHLZGx9lkli7JrOazeC+GPXwP3mRC+2QRVto0+FJLCgkdTFMfFXH5lp+5UdtCX3gCK7E1kOFNoQQLAWIzJNkUaNcZAMpliSkcN94hO71r23X//5ZBDD/UXRLBedNGX/CGJbFxiJSDrwD/3LGL0+ErqjSCkdY54Y1Y5dTQewbtO/cLQk1+0aFmsGJV5TZFYwWEW4/QzmiaqGiEy3/UEvgPIWPdabtYG4DrALmJ6RZ1L6FoYOaZ84yFL9aBiku7m7c5sZHzjDFC5VZR9xcgUJHyreY3wWCuPIcMcMbaACizk43F/H93zNQfCruXyKy43B38fM0Zrs0MyuWjb/i2+VNPEgFpg5o2YqMme9YoMcLXGRCNj86ExZu6LQaVk2Sg65l0ygqwtJ510Uim7/AGRXXUNwBkiOVHq6KDGrNbA3aZk6GkfXypbvPIylW3jE0HYPEV2dhRpwkrsHDHLAYlHxwlgIIgjn3QZVh0K94DS5buz/kUKqDUynG5qc3LhSAxpRgcKVtOi3VWWo0rBk6ij2jalRJB5EFs3S+I5Vn3veetQlGyTIhe6a9SIxx577LgQ5PeB7rhzR8acdBtdiQXUiqyqxMzraNNlETqHGvX6SI+pngW4ERzmI1AXpCaRBuuqZHxl7wBvlTV73FX1CzuUZU4tg/Pq6A9GGMNprQZH/gwUX/pTh+BJiLAJ96kTtbuCCXAQBfE5BrQa8XBUzMCaqcuuNjB28ZrZtQZw6CGHaMPzDGhZrr/uOr9BZP4gJhZ1bXnqCUVzKmbMoSF5yuV5lJ6Q/lg4hlRCBYhpDqKleIOaaBfrhNEt7slugKjaLM6AUaIt5R+GQoaljcBOQGOxLeVwnDrsgeKTE5uPIuIyWvCIVTN4VBtBJGIjIyh30W2TYE+oiUiAXINou9sv3gaYR3ewdIGe+E+++558imvGdM3VVy933HGHc21NZ3mjI6P5wLY5osE8xd7rQ9sdXO8FzCjNVQXWoPcI51obtqSCTZHX64mlaRONVGtOOphfxk4eeyp0d9llgK3SDivcEi15t+RwOYhlg1zG3sipKNgQqnVzTnLb5yCXmdwROWpziz9swPy27FpOvf/9VDL+xaf/HXf200Ad4ppJyFT3FKBGVqGbU1sLwfMaA9pI4zGZzLuQqtvR6MCasiQwSXZibVWJHRuVpbXM9FSsORYkhk85anemEqvOD0smFFc+xcIt+TrSfgojHDBMLZV9ReKNpqihbIbyVZ86P+Px2Wf0Ne3noOwRWUyfLcuHO0abAkVpkEcceaT/MyhnSHR+L8HzTztj86qkPelkjSX5O6PtYyOXj5zUlKTDVwlojxH4DAASEhDAX2w1sOTw/CQkpTtOEmdObLnapLgygNEpKy6z4Tp+WQ4//HCCSidaf3KErdqTuvbPwKnOjTm2efINYEvWTaDL55v8NFjWMqdwuxK6/eK5lyXTD0sqMGXSUbpeW+c1kKOPPkoXY/lMwKfOO8/2+N1CxiSf01CkYYoB7GGXp/Qxs45Pu+hoHHk30IYJbmWyRZUuS/kaNQ0S5EPUYYt6PedseY2On5IXP+6cnv4cd/xxlk2ekiSvSts0ABuKUCtPOZsHajeO65KoAbL5KtR+7uVwioS5fFGpi1PIw10phfQvEx2kdhaJjJX/qcD/A+KUx6ugX/v613HUcNbI5BEodIzFbIIUt2c9SqLT2wFcLejQibYSDyiok1Yyp6Cl0sFoWHqLnh8dZpTcYqC2RhxCDhZ/+/bbTGRgR+keYR+BtbCNvmc60oMshcRwCUM3KnZ1lVMjGoG5h1g1R384R7uOWjHU9rdJ+ggpwRWLiSDWyKm6THwmkK+DcRHAayFf/MIXJdY86YDWC9lznrqsnZq/kG23oIMyqGAD2UFsgKIMv3Rl9bR0tHNhjwrcsEBYv32cHBSODkavKaYcNRks4Q49Bt588y0+BcI75uhj5CliVZ0vw6bGsXLI0xMQPXDzK00HZfevyELzA2WzWYUd8c65zKkxUHb8yDMWW34bVz3XPIJMBx5woM54x1vFyr/dH81uTVwpeu6rclOMy3OjG+05zEXLYcxG4nwGiN51yh5cGYz0ezZ0HW4ufCTT2Bhkloz8tnSMQ9KlHXrqwz+X5JUwDj4cir2pLY0LMCAxA15ZvTlAsUqY4oyarDrwdCxDSK9Quog+8o+xVS1UhOGx2qcDbssANZJxwIEHLHc54ggvKi8I3XLLrf6aeFojT3gEIdqGqryVMfmsNLmkBKhKo1ASI8W7SNcAY/5YqPBUS66ATtKiy2oczpgUYUyrBtyn6kwW96h4V3Zc3BvurIHD4Hpgn333GbyumUNyjgxOT5E201rKajJMF7WkllfkeiAx64BBt6IStxNCqfFZ69hoK4ghVx1QjJJtHkaNa5t/Q3HbXnwfgP8Ovs9y0RfzjzbpdZgTn0NNkKOt7oEUah8lj8I3CgzTHIrY77hkkzqzqsrsKjERKnE3PlKhSCC/7UpcqWwIG4MkOWyHi7ngD0LIwPvhnBZ7wyRSkvMQOQUZnK2cToVLUUgeEZR1A+6rOPjIbT5x3YodOlwlWcpsZjelwn2L2aDXWDK2+O3rvgkVEch98skny83nA7f5+4Hnn39+ORsTn+h0pCBfuTHTrmtsbZDgNZHsvklud14KpsCBCatQVQk0gpDhOjkgaTFxuy1TNXAdazOpnYIIz37MnAF28vp3BfNjiUcdmZ+UDalLJx5tu6o8ySs4ByZapn0rqYmgX46Ur9qjHOMhzkp6XoFOO+JiSlMqoNs2klRdfXMmc2MOkr8jjjr66HwQVmPff/8DlyuuuFzW9lJvBG9Jpz6gqL2OABnHBHFscbp1brwB0slO2ZM0Q76OGHLESlvjJ4+16QCq2wXS44rcpcf/m3UKDAccfczR3hjDQCyiClvQqZ2G5QbyOSaIdV2wkHV4t7S16p4s540t01EbARCnwxnXZgQp6La1Q5yKB3HNccoy9fX+p5zin4sj995777V86rxPT9zksCGJrK2oOaFJBNPI1HEBLix4csQ6/USMUAm2Bns3J6LEatRYub52iJAmmkS9kRKfDLoRwyeBew3AEXxfUBgdhUe8irFPOymBtLfhEypfp3WPdau9FzsFcpKnDWGkga/c5lqZ64iJgYHQR+lU9IvaiJBynWWe9u7QBqBvvCT+9cv4RFRxp7nvgIwFYxy9nParsa3rRx9XDv7S5dA1ANZKZo8KJw/cWCKMPOWDg0ZRXJnWRhKQ05COdQYMW+GXmZ+PRe9BH1kbwFlsygLbAFxT4IwR90ooXYUtom10uxvGqSMbB273AB5BkUOLMli1ALHr2Bij9J5DuysmDWHQbebrLHD/+8nNRTA/Hn2HHxJGSHceQxLWeAULrQDJm6mN9c6JfyXU08AtSeiwzHR6DFBIWFsgSBo9AehhJ2t82XMWCuWh0HH9DTd4oKi0efAhh0gxoyxTaCF6DcqSbOq0/2R0tAuUMhS5R9XoHJCahhR71VNAWGWoxsYEq6SmjUyNNAxjPI3W7Vwe9ahHpf86rtcd4vrrryvKGpczVZD+SV9NE9Jm5iMUzy+KIYVcuulpYHd8ggwOGg2SraoSdx+Q7OR0K73kISMnhgLEnmOXdvtNcRWRL42uMQxVmgm2uLQqafRelZnqRGKxN7OO3Hzg8ulVAjmaDezvumI2UERX0zxEog/K2XGelOpnbmWnAOKLfPzxJ/jHsnDygZhbb71NHEiJoK/9glvHjwU1T1aqEjk8H2UyxzZrBpJffINktK8NrjGGRAc2+GBWRM0u7WYcZPvccJ/Os2G2Lbfdlv8nRB8ZKC+JArkHsq+wMJmNkrpT81FYW11hGwndtwR40bADt7Ul1gpGHdXG4AukMsxDyaZakQDTJgfpwANOP33ZsTOfB+TdwZtvuaXILjxP7qv4iVH+uCSVQGVx0sXNsy4pqgl1uFTWZH0hCFScSSUPozHLgtSRkkr62KWYIlbYGtu5qbIBtrv2BYnzqC4RdB1UcCGDpxf6mwfYC4u8BbHVvaMJtAncvgqp7TLaLV76Y2LJEyqWoqqpESFhJeQOBR760If6PQDMN95043LTjbougiKkUllcx6jorD3nRd+sRerm8/qN/rBVcr8bGHkNw1YxA+3dinRDR26Rp4rkxK7ZV1db+VoYMJM87mF45quo9dwNNsnZbu92YmtSGmiblmBOuXK2WtdYL7mJ4qiNdTt0TWw4bcPUizlSZxUjC0fyuQA/E9jmC0BeGfWHRO0lmVpC8WTEFAyhsqUHwLXc81SMPhXLF4Huiw04M6Qca9lJ4+kSrFKPsi3zY1bHu5bZ1NqaO/wh0J7KZk6aCmpbYi5E8QtPZiiHBuPxkHvMeuK7hQ1sNUHEmJuKTLzNRjbbjKSIdZTcanzAUojONx8sOiM45LDDXPNMgIcBnEwhLSYVAaqQR2oJ2FIIrVNJKC7tRMXQhOmlYBurw4lhSiNt7qBM45qm40HFd3702e0IHZixl49X/9A5Nn4oQVxPki1Fj7vQSi9KtsEasEEWWm+CINOav0cnm+xmU1soFhUbbkxKz1LrgTUcKy0HlWrnVI65i8cde6woWhSdl6+55hrFrjlNG4Fr2iyyWp8222gnlUjKWqGhRUce7waabmcjCl43Qk1bqnuwZnS46+LNeTaURAedVdJONoCy7swGsGxnTy7A0BGN2FiL4alOrvooJnQf8Eybxn3tA88cV3a70q8oBdnc52ovni3tDjW5t3KOvMuRJeW/qfARsZDEFg1x9Kkq9wTfeq8rrC10hatEg4fLzV8KHVitDmBBUg1kgYS2qeb0a5TTfWrTlDPoSZTkBZdfhju1C/oCxf1okoWRrFA2KtncflE8IfCkeyKQK26IKhzq9uhhEVTPW+//CqJ6+POgbVRF/hofCMPkOlIdeOCB4QlsAGzpGpz0b521QpKt6I2wG5PY+JJT2dTh3mKbYDe3uFlUrZgKizVTF5Mkz0R5UqlfyVlWl40+3dNlzga9Abxw1FbX5em2R3IBk82eLGrffGAx05OTrGZVkYVTMfpth+hpc2o5kLvtw9MC7dOvOcS5V5OXpvs+ePQjc8QPSF537bXW2cg83BDjODHW1OmB9SkP4swaYvUtOZNrfCYwLDmKHPtYgjQdipkd11tl5JGaTRiL2ykgcmx98Ym3QDNna/sNbDm9MXxIyHVMuWmUjdPrjw/+UCWs2lbYWd7mYCh79bf7RtUvOPlZB7YMOu0TV3rYQPzZVAvgJK7yVrDHq1Xh94OQmStTGJ/+uHUTiYo/1mAed8MWOqAKGT8lH0YN0nPfuqedJvdQ0VWZZqyctbnunSSJg9ttGGKXvQd0wP58Jq4uAO1LAGKupCuAegRXu6ZSZCqaObhJZeDLxVKM84J2YE2zEIOb0+Gq5sWeLXNkq0zR8LV9RTZJ4qg2Ltxk8G8EFvw9CfIVZYxOhsoQTClsH87VgWltuuZIMuMfr730MeVbia4oYwtnKiu4GdQ9WWBj4B1nFW5e+/fEy8bp7w6+HmXIJuIcbR610jjTWoxqhZhl89lBdSY0RsuyR6sWlHid4q4F7xYHWAVErptCtdytDdpY5G6ndFU+FUtsSv+r+Jz6O04QYZ4FaxarkR4bNWFl7tqpaGvKSQSaLgIRdEjzWHR0vCXskmqcgrQtnDQQnu01WYmR3yreKc78aEcdxdVvopmEq+spkLtYC5JogM4fIH5kdMwmuoVkTwsFh6qgX6qs2gE6+xQxTV5s3Yege9iR04Qlg1emvbLYWDmgU1X/Y41sSI3NbNcbDC9e6ma4je6DK3lcx+YNppsebdpRwN5bUkpcvV9CxW1NSvtTVQc2JgsyedylytIRsd/zHnxF2qqwa7nooi9ucju9jqIY6VOxbJNc5FTTxqFPsqGnJyhpHyM9N1eTFj+gHhmCXkg30MyVH6k4JZY04OkZG2TaZiqQefSfzwCjP03ikJser70tjsA9vUYTa6Xqaynbqv8+A6RH1HiE6hw7EtEXIu3DlhSGqUxKZtwYfsdETpckTzzAKf/444/3h0FDzW8F0h4qnU7T6YtTWJ9gogofMayDndj4TJEwBpTemlW+okVqx4DkOI2+s4xsg188YH4vVfeoW1nBD2Vm4LJzeW6Kg4sauWcE5GIUyzSOSeoqSB6n9fh9EVjJNogCDUPKrbCF5BwQmrt1cBxbosu1WvmNoH38b+QYBBdCPATMkd1FG3SsarVhQ09Mjp6keRHdu5gH5ojV56jEWRiOiDrIvy6EDakL9g1VTi8UBpXzgCQ7VNixI/8wgw/G8gNS5mteYTtEspcFnQCVrp0jFnyBA3yzT4HeS+al96BfeRXW0ASmYWMSIqpMnipi7c4N1ECbOjJOJE51fDOGH0qgW3vvs89yxZVXVmcB5BwbJqN9Qe59BcmoNplC6ys3mAPio91hlWlmbGX7KWBv+jm1xr3REpNcuTa5ydhr0K+I8tL4IYccLD2LFlbq9aIzpWsKmXsbdOtovm+iqDCtGytOngb2yiHvEXL4pr/iZUfiSyKQ3Enipzijs6mDlQ/wsAH4XNyuhd8K3Lacd+4nSRCCrP2CjNPNqQbKMaVG7KODRqgFig5AThuY1v76fjxQw9kEi03/kiIpRUz3KwBFt93ipzni4fbW226NSfqxx3CHICh6DixIpKu4MSlhxCsonzUb2poNYT3heRq4EkAnnFAdJWEnHYNRQx1hE1xJ2QwujMGXb4gCDH4xk5+JIxYv/0YlV8QcNEarkiWSHs6cI21ybIFJYVamoARncTskTRtx9RZQjRDFVTOGjEqlY16MvqM5tDh00yO0Mbb0PXFXXnGVTQSfcNcTkKI33EcLw9697vZA2sTQDYGObFskP/F0H4DrmobRS2HYJ4yYdCqHOG0XuRtbuwvS5RkHH3zwcve7302pxFO7/G7+pV/96uhCquTodqIVwQrymtf9sD3MrW2OLGrT7QxueImyeyiWBxiVuKbPjpaT1FpNyiibArxpxNPF8Ne/9jWHsfmP1FPj+ZlA0lGEP5KgVlXiSL8579FHSgmIeeVhjhbM2RytwYC3UAc8ieVww9wYuByeqNF5kNy9wFz48WLQXroQJISvR537iU/UBHQMKLkDO49LWln5bnMD4W6gKPaMnIVWqSdXt5jNU4aRJ94YWhbG6S/1UAs+/d96i38hhPH7V9M0B/l/giO5kTFaCKTGMjwGbnTiB7UJMsSmp4EUdpTTjo6YEJOG6AXdHXPyAEGHHHnJc2pEwDtihNNOO008fiNgl98V638c0a15GLmNwB5aL3bqTtr1bFuRPBZT009Vu43OvogVNSqvFhtHK5rYxpRDxjVnak9Ho5SzP/AB/x9l+IcfcYT/xT4eNtXYm+J26NqW2rbS/c+B5q75r2CegEEy67LXPOAOnEwDFbNH34Amws/bSW5ikVUxRY6vck1De9uWe97jHstNfDpY8k45P3Huxx3h/kAhQj7iGBhZStOtJ2nN2kiGblsoIcxhtbQR3ak5YhHcGzVXTg42DotYqqE61zBCz4d0W1REtzeK8M8f+efxD6MO0kPiEYcfYbtRHcs1RuAuGBJ8qxmHYloT1rFnr2UMjtFR7wbKpFuHDFQvOwFgsOhT2hxWKwPJq8aRqpfLWkcJ0iXwX7Nvv+N26zwduv7a65drrt58PWBEyGCbk0TBNiZ9AjxaNh8MQZjobe5nHIZmc7QlYPdEm4BDh2Rz6misj9+KII//rProp3P0n36f/YGz/ZvJ4ABdFB962KHVD2IjTaMQsFUOo3zOXSI188686Gaz5HIbuQZwVCQLlZe5RWkXtQdacoiSGEQMgeOniRRGp8radGuaDP5/4En3PEmPf7w6tW254cYblssvvyKTTRPmEr1lRztRWZBLHJyqVwFM/Bk2M80IHEXYoKvsuLIPtL6bf81jk+uyqbr99tuXT3/q0/6GNBvnsMMOX44++uj4zetZE8Ym362RbwD5e9HMTVyrtQFATezKUYWQSV/RcnzWi58cUqzHmEWbMciWWGDaQf6O73iOJmOHjXwi5tKvfDmx5mTKmgvWnsnSjZTTrVZcDE0AawajJzWdQbA6km7ECq1Odp/iO8xYZ820yh2ZW3t3+efx99EzH7C3ng3c6973WvbxK4HKUX1bU8+NINd8iLa2OEFO29u1JXzaAJVoZFuTzTFDww+lRk3JEqVuZPk34ldnTVoMRD7vec9dtt++PalVfOSfPyr6ygFIOSjXzRChtfi4pfXEd2ypRsRaDo9FEsp6ekltc9gxI0uIS/W6EKmk2zBMBmk9ptYlnPPxc5ZD9LjPvf/W7bctj3zkI+NzfpJ0UtWOR7ZlheZozAY81xTYyIMZWUbsRRkboGNG4soVVGAHgz6tTIvjaVSimFZ7mVusWtLUBoO/173vvZxw/F39qVieGr7rXe/0R6RDU/YKmcI20PaOAB3LkTJF96N193koVBjCslRmtFhbK7rt5VPROsj2EqvslL1Y/DLo5z73+XwyWn/bt9++PPnJT7YveYWkEdB6fmPuY+UIvWlUbZitOePw+aVgmzEUmwlELFUwI0cFQo4fewM/Or51kLkzFb9631FdIyCf9cizFn4ynb585SuXLud+XM8G3JYyFpkM6xsqQbLnaM9qKQxhahfInnRF8ERgWFmRYvNFlbjuk+1J4PEyTo91jF42JGriGsTs8se/P/Pp/B4A3gecflp+J9GoUfXAXdFGVU6XPvR02GTIIMVUJ1ltNtQY/FJw98vtlF6iKJDXGmDvsh+j2medHG2QlFxrjYejLWgOUwce/OAH+w0hbAcdfNDyP1/96vhqhJkSIWHR8Osvp7gVq9YxqUvbAyppBfbQGlbTUQnpPdZaAmtY8xctRyeKbp9MWL/61a8uF33pS3bxr2Sf+7znxWlSR2wi2dSuHJkXLCtr9Ltcptg9O3TI4ReChrP8ecyFQKlaAzYlpgCza5eq8VScpa6nGEMeGcg47NYF5eJfyB10QD4ezWbilzMvufiSjfzVYgVVvXXUBbQ1omuhKCxfsgZ+mluTur7zNtfyqWrLKNX32Br0P3UiiZsYDtq1vOpVr/KrfsgHH3Tw8vSnf7M/I5E+J3+jo2PNDKarksvpqDlMcj8NjBdIwa5DG0DlRuZeOmEIIMpqStCqqzt0RBIZUrPYybeOXVoHtZGecJN6yimnLPe4x939Mii0W2+9dTn77PeLCncdaMOT0HI5vYiTvYXkKKX6QE+7OwPDIEH0RFBKx1dVnHCoe97ghZuFwF98G+Dqpmub88771PKBs8/Wlb/6K/2BD3pgvhySwBWkE2ztOauakUKYRitIHqoEz68YJKBOJrvWZwH2ArMszUktd+MbwKM/XN0IXFdSSk/GYGSpCeEPQOfe8PIf/3F/Px4rH474q7e/XfmLN3aAahpVkLM4lw4oqgZtQH2Qg57AhDfgSQGU3deUIKdZHdP4LXVBXrff0eG6exg3OiOfbnfs2LH8zm//9nKgrv5tVfwZZ5yRf52TqKp1kI7at1pytye55jhja2BYtTjgR4TZpvpIGAlV20oVoe8bDCQyR3yjIzrw0R8mKhEpU6lwJ8maWJA44OiSsjxPeNzjloc85MFulw+JnnvuJ5d3v+vdCqoopyGGvKpkd8VfD1wdwlbkTJSQslHcqd/8YXVTjQ7ypAeWhu4IS7HQE0m+YW+eUHkvuPDC5aMfO8evemK64YYbl+f923/rhewo98H9rvExtko11te6+CH7aJfhuY9IVWLV0xdDXJfS00EmD8WqlCZVY6ib0xyk+0UHJazT7MQrWqYWhdP/D/3QD2mQXlL/cOSLXvTi5bprr0vT4njAo64WEWuhDeljISYzGLQaC7VFR5DI1lGXK3WV1kmsOulWL2bfp+b+CKi84vfG179hufbaa+zfobPBD77kB5cT7nrXzjwlmVT+1Embyu6NgE3czG85GqiV1FXJhtrONYCh2sm4UYTppLZRx+aOMZJSgTQVjpzME0GMVVNWAtqQUWQyUVWfeeaZfocw7e9aDjvssOV//sZv+ErZA8ZeXNc+VEYNrCo3N8Ws7YfmpXYgRJNta78lBVkmWMLWRbWk2MSpdiOrfxZJRj/+9zvfubz1z9/qz/1hO+6445af/dmfldyjcsohV9Ou09YEHJCN9szrsI7brKK6n5JzDTAxGFu6YSGgdkAbpEjssBWKtCu8daLSidYa6zwyccQyQbHwgwk//MM/vNx62y3Ox9el3vqWty6f+9xn065j18FlQCraINirvG5Hx5i6aiTNp8QSPzE2RYvbNMLQudj0hvKumFCqQ/CXPFgKvuSSi5dX/Of/7Jd6ycGUvuAFL1gOOvDAar/5I0p25oc6Nl/VI7tuINNJ5F4BMMuALLJBVXy+HbzJCLbYtibxQrfRSVwESow2/PBLmmEbRPHNVeHaubct3/wtT1+e+cxnLjvql0T5r5ovfvH3LxddlN/SXVcHvoKmLkSRf1DcQMSuaYeK9q3TviQbV3+jXZT5C9xSLYb7X4LlqQ3G8d//23/3P4jEiO1ud7vb8qxnPSu5ypYwWwrMT+nyc6Z0c6MxKxFV9b5cM2Aoo9B2co5rgGAlAWttguhWN4FpvG4gstdEiZO3+LuHCdkkEPvUP2A1U/BzP/f/LPe5933cDh+b4i3i//Sf/tNy1dVXOX5j3TtPGXKP6cVVexzYujkFw8jkSg6RwmNqWiNsC2uOTkcO3QZnhky0/fKXv2x5z3veE66wQ4/9v/qrv+rvRYyHP2db264eRqEWD40+uyUXyFPLvQPa4NyVQzbMZuvmh4AYwLxwmxNgS3XS3HJSddQsQZozsICbmLhi2r2FwyBPPPHE5SU/9JJl5678ZAofG/voRz+6/H+//Cv+iXnzRqk8qryQ2YkjJa1locML5j4gK15xo98zVdiiZkw12Sww3mQkj80Gb3C98pWvXN75Tj2TAYxDffn5X/h/loc89CHuV1pUqZvbdzo3ELkheW1LcEE3qv8ocGKk3MSwKVC3PARY7SiKyorcDfhgYDTcUYITRnfz7Ur+IMFCORmAB4FMUUxVGQL+2JgcTpH/8eU/7g+McM/cZ599l7/4y79cfuylL10u4x9NV76eftB9GZapGtcm3QfgHLLbVTJQRa60UbaG+ubZoB1c5Sdr5miXF/8Vv/iLyxve8EZ//RvwDzKe+KQnLc973vPEc2CC6hitOCmm/Bkyealpy2MWKDQvPX6rrhPvDoYpxFYehWVkiDqS0A3gtRw4hxTr7QQTgTPEUHVks6lgoqhQmyD73GFAq74YHLs08EB27tI95heWN7/5zeNVQpLyU+tvfNOb9CzhUL9mQLJ5nSKST5KrtIsyejs6sNkne6eOW7QzAetpe81pst27vDlf/tKX6/n+x/zbh0w17/qdfMrJy7ve+a70t2MKaSM2l+0ejSPrqOYYKxzX5aL0KCqm6XHG1sizgLhd8zcHOEZA5/B+WemGOZLbDJyFnnVjVO5p+OliKQOywfMKrodLFT/xEz++/BtdFPKLmu6H8NnPfW556lOesvzZ61+/3HYbrx6SOcvBYcw7QnJ8GacL9xNFBXmTunxhA0S7EHTYE8MqK55P+L71rW9dXvB9L1w+psVnoUnLD0E++lGPWt6os0EejuBTs/Gjpo3YXEZ0zdi4lbsb1IGpaw6TLYUWX/iylYrTZ4CYy1JBdsbY5kIpW0ltxoROUbagFepGnI6RGMZ6LxwhE7Zv3778j1/9H8sf/P4f+B8uwXQXlOQ+973P8prX/Lb/IbMfV3V0a5tppjbAHtr5F6G2crarhSuZzy5ce+21y/d//w8s519wvl/w4SqbDztz2j/99NOXt7zlzctBBx1U7SnO8XMHJGu1vfDCZreaF47jut6wS4wmscdKX1PH6kqh9YmLTpFyM9HsdaDQiQYqBIFmdkfxpzCLrVe884626TyilN4lwi233LL87mtfu/zRH/+J722+N9lN3Lblud/5nOWbn/705YEPfKBfQOr8671ONzdc6ImRf52uhA0UvfvohS9cecUVyyfPO29597vfrYeot/hfwfGOXii5Znn+879r+fmf/3n3weNR+554l6rnBmusZoy5WGE39eSaw7dqIBaVDkptUevfD2VhgRG7BsTlrgbtsoyXhN9g8TfyhmtJojs1LYyButI25BZ36CnUxz/+8eVnfvZnlku/cql9oezlr1kfeugh/uGJpz/9W5bnPOc7/IFTt+ObHvkg10wmDtgYUbJHzSCt7eQyZID2P/SPH1r++h3vWP75nz+y3HDjjf6Fz/E7h/q7U89ceEHr13/t15aHP+IRywH7HTDmbKSiCwnZhJv+BvNZyBaKn3zp8TeO6DZHBG3XI0DgCdlMaHpVRnGyJcpokaZBEwVx7cJUE5l0iW3m2u3YKQEb1TbaS7UJGa/WKfc/6+Lwnz70T8sN/tl5kdKgKt0LtRlu0sLc9z73XR7z2Mcsj3vc45Zjjj12OezQQ5cDDjxw2X+//fzfO3k4cZxWmT8+lcSzDj6ydbsednjxhl81/9jHzlk+ee65y3vf/z6dfbYvhxzM6bw6lu7r1H+n7Icuj370I5f/8l/+qz/hO84+E0yvmKp2Q3MyfdPy9oTgk7qZvmZ0WquO6+W2zm3dAE4T0TIYW2DFMHTalRELmCOmXBLdUdXzPSEXKZMBIBfmASQgIujuc7H153/+58tfvu0vMfr1AnxuRxQWgMXkP5Ttq1Myv8p5oB6L99tv3+XAAw/yT9TvtTcbhsdy/pHldn9blxguOq+68qrlRm0k+u/P79dARr9U8+/e+Ij385///OXZz372csaZZ9RLvkUvpMcZyGSWZU/z1/wt1oSrLqF30oxhWn2R1JIEPxxlA5TZxsGy4CFan5cBQ6ospIriBMmF0TvfvlQU2TTCmJUilLie+mpKiLG7eNVRdz20gcv11OuVr/zl5Z3vfKfu2fv55VfH89SRMUgeF0MZmA5ayVMyvpzGaTwpIaeCxli8qUb7XOTtrY3DHPF6xbcv/+W//ldvEM4+6XOH9/xV3TnQFJt5nFBtbkJGEztjTLTTdNLi7/kLKfkt0X8FlBfdw7EhZFVSij8S7xEkk3f4mWDr1IKKnPokVFI3JmQxKnKzcmzLrXUcDo9fyIUczLUXtMyIrr7qmuX9Z79v+cynP+OPlfF08dprr1v4p0z7cW+vWeN5eZA8AzVJhrm7/CGOnbqa5+HhpHudpOuKe+pC85uWb/qmBy6PfsxjlsMO4ds86guxDh4ZhOorA4lTkNyTPdw9gystriK4hoc/hFjiRcm0hs8UWarQWAM3rWvAjQvi0UaxIhIJO7aNLEKrg1slQPKQtsSEpmLOW7FdGRtxyUUdU2e3qXjdg7D5RBGvD3Bqvvqaq5e//Zu/9f/n/eR5n1wuuPD85bZbti/76mHAi1YvMHlTKAm/2M3Dwd3vfnc/o7inFvxMndbPOuuR/uQSv2vAj1vkBR2FKGZ9EWuaAxxknjta1QbME1itpqmOmo2xBq4W4LsxYyjdWKmpN2IwyqxAS4MzYUsTpa1Mt4kwKBikqHZSiXE1AcwtzTKoNhwstOBNInljs8zoPFvzCWVyj5ALvqfJzm/y335bLvK2a5Ow4Hwngadyhxx8iBc6zW7m7YeDvhf+i9jarZ6nRvuxG1YqZg4EU7IhSth6Rxp6y1PcgPrPBnC7+HYb0Bq0p3CQpa7pqQF4EecGJdIHMDaQJ0FidXRlz3FwKqLNVW/aJIx+r0T3wzYge3dCGPNjvspUG7CfvJMvcdWGq5bVnrjrsGtmXNiQNhxvLTdirNHbghup/ldMo7JaTtyab3O8W+A5Cp/8vT4+d9E/AsdjCr7qbQLityjZtgEaTbeAB0RDDKKCe7I5wlMp0hhy8YLYrDnRGhdbhIoUZkWySaqqbrgt8+KokVlCxMVI/FBQh/voiQuXcSTeQlUlEyuXOaFjWd2CRTjKmf4Q03OHN+TWO7TSeUy2usY6ZlBI+4MsDBGBsThaf05BpMq6/+8B645y/ChjjfaNsZt/jwGT0WJ0SmBPKf3MIJMgqLBcMTPaMvy9Aw28lBkbEjIYlBm7p/8XsUGfFXfDhRdgdxQ5nY5pBm4qudYZwkxMQipDYCU8P+vZdAxRZ4CQujJqT3QMdU/S1MQeoLjK050kldPtIWzNKYyFrASFvn90xgxUkpKaPd/lBHM2BMU5pmw22lFA7lyhmGaU1IbJOZuM8jlzGzsplWS2XDakLfHFLWRzZ4DrqEHuo7I5B4DDfFAnpKyOjTE5NhdfwNiV7DoD+KWvylJeJ5bswIo2J2IQg0tzJ6cHEH1NUbaZ6s6Wgkt6NJXonYWRV1WSy8lgi8XOiVK0lp3GbfRmKm5VBrwS136mcCR0ctgXwhxudILJM8aiwNmaShoG912YGjbX/vKJaElF979YWINSN4enUnnGaywYsfM00IJVoYOqRt99ohAKEy9vKmSgZqjYvKgUmg8mOb1gYtVJ4mwVOtmcRnrmzEECMQR5aKHDicsW69WX5oBYNIUyDK/INU14CCS123CKWrARg+wqpStQ87bhm9CWdJ0+0M7atiFfNVcBGKgxBDkLJkcca73m6vwW7XalEwAcKyDkGZ0sYrW1wfMkyTIvyL+OSgZ1Iyy5Uq2cVkfq1SVBCoL9Ia++SS6YFtEyhfUOmNjr2MpTbioQ5mp0W0XM5HeGolGpj3vaEMBRU4eblU0SQ7v3nEGADBwgfCOi7HtxSmh/J42FPO2JjkjHO1dZPeAMNFk63rBI0bauSVb2KaG9TRmcqpondGv2eqBwdfRmwMMNs0kggt0lrwjf3hZVslThCxiHglhEGilYokHZYlU5aJJ1DHus1lr21nB8TN1GryVhFu1TZbcKo+pqB+TMaFJhlpfl/weUSQSAHzIoSAAAAABJRU5ErkJggg==;" vertex="1" parent="26">
                    <mxGeometry x="10.349999999999994" y="20" width="99.31" height="180" as="geometry"/>
                </mxCell>
                <mxCell id="30" value="" style="verticalLabelPosition=bottom;verticalAlign=top;html=1;shape=mxgraph.basic.pie;fillColor=#f8cecc;strokeColor=#b85450;startAngle=0.5031826745504864;endAngle=0.9;aspect=fixed;" vertex="1" parent="26">
                    <mxGeometry x="67.00999999999999" y="72" width="40" height="40" as="geometry"/>
                </mxCell>
                <mxCell id="40" value="25.7" style="text;html=1;align=center;verticalAlign=middle;whiteSpace=wrap;rounded=0;fontStyle=1" vertex="1" parent="26">
                    <mxGeometry x="57" y="77" width="60" height="30" as="geometry"/>
                </mxCell>
                <mxCell id="27" value="" style="group" vertex="1" connectable="0" parent="2">
                    <mxGeometry x="330" y="130" width="120" height="220" as="geometry"/>
                </mxCell>
                <mxCell id="24" value="" style="rounded=0;whiteSpace=wrap;html=1;" vertex="1" parent="27">
                    <mxGeometry width="120" height="220" as="geometry"/>
                </mxCell>
                <mxCell id="23" value="" style="shape=image;verticalLabelPosition=bottom;labelBackgroundColor=default;verticalAlign=top;aspect=fixed;imageAspect=0;image=data:image/png,iVBORw0KGgoAAAANSUhEUgAAAHwAAADgCAYAAADBugKGAAAAAXNSR0IArs4c6QAAAARnQU1BAACxjwv8YQUAAAAJcEhZcwAADsMAAA7DAcdvqGQAAH2TSURBVHhejb0H/KZVdS66pxdgZgDpvYkIIiAWEPHEbmLBxBZjiZpj7O2YY+6NNfcY2zmJKb8TaywR670nxhYFFKWKShOkI0hH6gwMw9T/ecpaa+/3m9F7nv//3XuVZ61dv/d7vz5vjmjEXJuHvw5Y56CPJmBOdpjTTg7BiolQM+G8eaEMUEsILCvUaROMITKJ5QgzSKGctQBFiSbGjjCPXsosKq+wrfhplLXOUR5ATVOLhOahRL88RTm/9ghDjKzSKeDAoD039iUicoAiLY4YcxXQh7m5LeHqnprgLshOzrAORroI9HgOvaxJpG+QpYZeUxccVokKCd+QAnKUqKqd/0NEuokkhMo+aVGo0wxxYAmiJh+1NzbR43pQZZwgwnsdg5nlzUL8aiOjga0mo0g4Bh6gW3jIgSmBsKWWyHVGTagZO1sT27Jtm5HYKgLCthZBBAHCOPBt7YpKNhFnsDVpK24ZRs9WrI7BlRtl3Azp3ipDjGFqn2XN6FDnkN8Wlt0/XyX1Qg9Ms0NYdmlQXbBjPncBs3WHokm1MjDgSWPAw0SNilItdupRqySpkqU1DFRt0kRIFB0y6nB1aBzhiBTqWxEhBGVo1PrAUxVy56NXSja9RWus+Lctgmjihi17YqopmgMhtEH4z4waofxyUapbeLcDqQzG0a+kRTZg0oKQR0Ce3cOjNg3o1sRoLTmEzCQVRW2E34Xsc+UYY6iljdbBO4qQZ4edhIEmdB3SbAeHRCUygFXwVPUkHRPblDBqvQlv6nnRHm7hpNHCaaQ8AqQwZUcSTCIXC2Xkv2u3mosSRLrAcxwLBQSZBIN+ca0CNnBf8tZJOX2e5kCJECSPPsrRjoKRg/mKMyzYECZEY2w/J1AonglBC7iPapbS1Ak9DcwZ/WCt8ZmetgJFHnCmWEpYxmbGa4vxZhYXbRgwS7dE1QIWhQ3n7iDUEaVwzdIFoHgwoG/Zsrnddutt7Td3/KatX7+hLVywoO2y60Pa3nvv0+bP5z0JckTaMb+AeN0HqQn7JEYpHaKakzoOFlKnQaQCNTZYLpwpQQrUHEjplfh0Bl8cqWkLMmTNV8hT2DNax+i0l5ydCcPI2SZA6JyIDXEM7AuOv2nCcXoRFzlm+kGPZBaclKuuvrp94uP/3E455dS2AQu9BTbxYpa42Mcdd3x72ctf3p70e/8JZtj1b39mrYYobglRKtqTK/jclBDVW/87V3DttLXnjD6LaclU6EGdQBTERH+cwZilGkrmOmKMbSWfYhg2W4w8YxraUFH3wCegi5gxl2O4D0fFrJlMgIKkbLhPYsQmHfXaB+5vZ591dvvMZ/6l/eQn57bFixdrYXMrbQvr169vhx32sPbqV7+6PfnJT2k77byT25gBoydWGWwdSzlSpJUyDNoYZQcG+mR1R44wa/AmcR8hjZNNBzGJBzLFuIoBhYQ5aUTNtYwoOP9Q6TevGF0aEwzYlrkvOOH8QbIyO67yqZrX1ty3pv3Xd76znfnjH7cHN2xoCzACdoOc4o8CYjR2HLzlEocfcXj7H//jf7SDDjxQsTNzo0weopHpao+GUDfkYCgCorQID8qAMbsjHTsyp1HbWD+B/bCdhWOmWbrWPahzkinSKhlsjslmR1FgQUIYyweoXxTKPktC/yYLLpR3kGYABzt/8803t1e96lXt2muvjfvlji1btqBf89ry5cvbgvkL2ubNm3EmWCvffOhOgi5pF/tU/8///M/txBNPbIsWLRKvI3uCVmNy1C+aWSHH716iDi0KPYNzulCM3TrfiN4b47czt8aEGUq3bZ2nLBB8Ueee/bYnuPr4RmMXa8E96MwQKOIQAZDLxX7Tm9/ULr74Eixo9/F+e9fddmnPPemk9tBDHtpWrlzZFi5c2DZt2tRWr763XXnVVe3b3/p2u/WWW9vSpUuVWfm5OZYtax/+8Ifb05/+NNiYMwYFd94IEtNFGQmUaYQV9XRSVISCkpNGAfaYpgHmkF9emCQzt3zTqG1lmSCa75kHMDcM2cVaDy2PmcwvsSq0Ztd0rEQPM6gDWvBMPg7Mk8CYIQoGdmoLbq3vfe9725dO/lJbgMU0eIue397whje0N77pTXpGxzkRgFy8SmZGtkWcfPLJ7aMf/Wh74IEHxGMrzD2HM8Npp/2g7bffvsoXnWFIoQYXk6GJCt7W7MgQDo/RttwkmIQIIiHk8E0QOUoMvfoDdLlmcwr4mZpgpbmnFMlYkhQzIolQCa48WpueW5HK263OFgjFvLqMtnVCJIbR5GL9+ze+0d761re2RYuXQNsiyoodVrS/+9jftRNOOEGnZ+9OuIfcrHVKJnAHfvmVV7QPfuCD7Ywzz8BpfLGbAXX/A/ZvX/ziF9uuu+7qPIVKaEl9kwqMk4US7UxDyR0NUzhzTKSVCXyjoKTsqt0epORHPTbVmd0R2pQ4AeyzG240VYJZbNtBK0tuhjilRzai+OMuSv9cu+vuu9vTnvb0tnrNaplpXbxkkW6Vu+++O/rfB8TMFJwDSEeATa9/8MH2xje+qZ3+o9PbfN6iw/+Od7yjveY1r5HsRa+sqketAz0eJ6om2Pa6D1QQfaxN3qqvkZlzYERsSArvZCNyRGUeMJ5BJrM6kyN9jh/LABTpYaBMDCmMISjFrHWlpUFxFlDRwYOoiYGD88gOfv/738dpeG0Mgsc8ncZzsUlnYgpUKWsyoXvCAwqd15bgfvsdf/GOtssuu2Qg+HO6ha9f/6BzMrac+nfflBge5iof/mDnnzogoNZ/TCfNclETs/pKUFd7GnTa02upUgcYkxQv0xABMvOxJW3IAHO4reTPJAUyV3bEMY4iexoRXHEAhwg5X1rwcR0qAW1S0GQEciJPOeWUtnHjRswFuzcfp/Id2gtf9CJ0JCJR5QAExNjVh6OTSjTK6tBDD23vefe727oH1vmxOwJuvPHG9rnPfV5c0l0QzpPzFpru+/nIYPPmLbpA5PNJWyCrLR3mM0JKmBif/Up4eejPvjtKyDxVWxhzMDrdumGwjoMDtiXsqCY9kE6grDEDeYsDzOdBfZovS+VQEVAIIjEhMaOwiKBhKjIHSz8Z991/X3vkkUfiqtsPm9Zv2Nje9973tFe+8pVaJMO5ImOooZVMBD9sXKyXv+wV7dxzz8U1ADqG64AH1j7QrsD9/Hbbbwd2bDylYQ+pz7UH1j3QLvnFJe0buK745jf/vd15591t/oL58h17zDHtGc98ZnvKU5/SDj7okLaIF5hjsxaFzG2MfRzljmn8wBkcElFwrTgj0WtaZxN0chopEmWzwTkGaG0G29SJY2LwLVwjjYXQYrMMnqxS5tqXT/5yyEwzr61csUN78YteDFOQAcfTP0C70xU94ri5IvKK/KUve2lbtGQxFYxjS1uyZEn7wQ9/UFw2Q5EhXNBrrrm2vekNb9JzAV/72tdwy96Mh4Er2g7b79BWrFjRrrz6Gj2h87KXvqz95Tvf2W659RbF9cYHRD8MKjaY6eXSf4RP6MEXZ3CkqBqDt46SOQaeIH0wUhxsnrPBryQAJkXzQtfoHhsJKoGbAkocaVPckJgSB7kFp8iPf/x/tsW4miZ705bN7clPeUpbtnyZeEoDIk9hmUsCNlJ2Rllh8y4vFuDJOPzwh7c9dt/NPJSLFi1sZ/z4TN362Qn2Q/lRr117f3v1q1/ZzjjrjLaBz/AtWKDn7Qn3w4NbhLPR6nvXtG9+65vtJS95iS42lUfMjtSdAYBAmT1TjUFwHNrbFVxsYZIjXDWVqt1326axWyHGksgbuu4i0gXZGzj8hYmiuNzocQuHol64Q31ABgd5N67Ob7rpFk8+CGyYL34wt0Kg65bOHacoQELoJBFhcw1z2ee1vfbaqx155CN1Oie4ya666kos2L0IZwz6h4q31Gc969nt5ptvhZV2lvPaZtx385U5PuRbh6v/zejrPNw95NX5jTfd1J70pKe0n/70p5qAbJq1D7UixT6XtFHSNIVsiA1DWqwP0znEsEQvZec8o180UY1DSEHEAanC7g2Dgv/UQ6XQR2XZGkrmQ4UHzNZZswNUEzTrQPGLiy9uS3GKVSyOnR/ilzqZRzHRQfKzJHoHRhsxdFSSN8wznv50PQpI65WXX9HuXY2HgPTDsGnjpvZ3f/u37Zabb9Z9vfqMY+Omje0v/uK/YjHPa+dhQU8//YftBS94gZ7rdxNzbQE20po1a9oH/tsH2j333CM7+8eeMEdsTSGGo07o1gEdpRjqORUijRLCyGSQtdHgq9yo6dGc8Uh+VIJiA2g3b5kuZfShSg1HHhzKSVs/mE7PSWgMvMwmV0TqFmhiYw6R0m697ba2fLvtsEXmtS3Ismz58rbzTjtlmzOooaAhEqKRMI4Tlkw/ITOv/d6Tnqxn77JdXhhedNFFGjiZfGqWj/ml4Z+8vffeq/37v3+jvfa1r2277bZb23nnndtBBx3UPvg3H2ynnnpaewQuNDfjLog50Pv2i0t+0T71qU/pbKX5ZdtM5K5AdlubNm5uN9x4Q/vlZb9sl192GTbJ3cqhXquD0QEWMHgM9lP35FvN2mLaQ0N7lNS8Exvw+/oobCJE1sHsGBz0x6FuEjDrzRDRlm7hvaOu5AoCwUavv/563aKUCfxVK1e1nTCxNagIdyYPQJCAgjUO+tLrkilDR8WXVp/0e0+CzQkXLlqAW+uPJBP/+A//2O6/7z6QcdpHAOUPfuhD7YhHHOn+ZVYmg37E4Ye3f/6f/9we+tCH6i6Cdr4484mPf6L98pe/RF/IVYTAdvnQ7tOf/FT7wz98Hh5yvrC94uWvwCOIl7eTTjqpvRoXiGedfTZybY4IQ09rRh7m1CQjl0chsdDlFBzIkLKNAQAZmT9RjNGuxWVtlRhWI+/DVQJBjlRZchLuW3OfJwyLw4ldsnhR23777TsrcygFFXLTS1BB0yCKio7Rx87kDlfjkHkxyFs2VV6MnXrqKXpcfd2vrtPTuryip75586b2xje/uT3msY/B2oLM/EwUjVJka7vutitu0Z9uu+BuiC/J0r2Yi/6Jj+uWT9DGRTz1tNPaYx/zmPaBD3ygXXnFle3O39zZVq9eoxd+br311nb22ee0l/7Jn7S3vOUt7VfXXYd8fo2XbTlLdgA1OiM71NoMgzwF5oNzUj4LufGVkoVq+JhHSm4qxzsu5jNibSHyiRfJLPMEK8uk3IKZ4kMlLgifK1+EW2L6CErKz0aVBBbIsstAnQd9QCy8VMg5UC7mo445GguNrjEVFvZeXLTdiwn/zGc/o4dbEaRn9/70T18B1dzKne2mDfUee+zRnv3cZ6vvNPFRxuWXXYFrAT5Ua3qK933vf3/7L297O+7378P4FiEMeXjWYECs0mbMAc8Q3/3Od/W8wZlnnSWeSKxwxDJ3hCqWZEooc9BSGUU9bENlNtHnyX4WuanGVi357sDR5uQtPAFDD+rQwOHQbgsCT72WWYAxxm4lZM1M7kCE+YAshlao4XH0irYnFog6TXyi5yxM7C9+cUlsPPZnfjvuccfpPlt9i0ROEe1lG9gA3EAvftGL2n26iKNjfrsJF37XXHMNHr9v1MuyJ3/x5Pbg+gezG8LCBQu16VKOzDrz3H77be0tb35LW7P6PvVJ7atBYEwClFdmdyz2kNRk8/ZihAAS4yJEVaJu/YQC7aVE1+A1kGu64GM2gAkVxGAdPYtPofTRhk4xVvEzSYBuYecHv8SaItXs99JlS9uOvCCkDs7SJYvbeef9pN3xm9srwyaczk94wgmaeMK72fwJqOtmMa8dcMCB7eijj3aL87bg8fv6dsH5F7Tvfve77atf/Uo8Q6cobeg/ev4f6RXA//W//j89t8/n/Pk0MB/3Z6fvw9ngWX/wzHbnnXciJxcxOpC1eLBLiXlSD7SMBW8V9ivnA8QiRK4ZZFtuonMo0WVLtxO+Sic40yG76ZnOSwYhbYC7TJ91gSZtFObjYTMxiB3MFw61h39O9qpVq7TB+Mer9vPPP7/dffc9bgu8+9as1n39dNDT9gianJZCa6961avbgzh9c8K5WU77wantTW96Ex7Wbdbjf+bjWeDTn/l0+2//z3/Dw8RntCNxlf/Yxz5Wz+h95Stfbn/6ilforEDwlP8b3M9//vN83p/tuQMq2X93D7DdwMLDV0vOSqIG1w1afPxBLLcgTaAkMwrK9nQ/xUHDglcSCJTh9W0ol9O7U8c83Jo4CMgb+AJFLBB1W3kAsGcO+22nxWJYULBmmhoUsGzZsrbbrj5VcwH48Omaa36lmqDt+OMf33bYjheNhnLDPk4w9zBzCMyF4T772c+SuoB+2Pj07JLFS+EDGafuJUuXtK9+5avtcY99nE7hhMdCYV7bbvsd2lvf9rb2hBNPrP7yGb5TTzm13XkXbuXBVQl+13gwYpwNe1MMDf0uKY5syfCKGCWBkmyVGcKzTog0xdXOkDC8DqbdBl2w6WEP5dYeXLfOAjicWGNIXaHRYHDySjJjVKeskrfoBbjfXoDmfLqmXw+5YvX4bNpLXvLHMPfgSAF0qbojoE3ovB7YbbfdwYKCidUZgrPAScb/c579nHb8448n2/F9cFZx8Ozzvve9T0/vUseSt6uvubpdfdVVkIf2t4IzKMaBQWdhg6ZUgnVFoPBaGBlKlHU0EqVbcAu6SocByb12PWlSBLS4fPl2WADeA5DvWxpvcTlR9QSLQpAvVPP1L3i41lRSxRFrCZi/aseddEUtknwQKOPYsmVTe85znhtB5tcGMhkm1wQ3RriBubbPPnvbkruNFeh8/Z1vm9argZkwxicxSm6SAw44QI/NN23mwzo+VJ3f/uWznzUrUhI8xd9///3txptu1Js9f4WHlrfccovvVjjfyO2+OiKH5DYzSxk65GJkcJKagJ4m1k6XF20YXDVUtKEBdIwPa3grYwPs6AO4hfNpSsYyoj8GJPp0q2Zy/PcOUI82pU9B82547JxxAjqrwUHfd7/9dD+vW6ddnUeYVpA7GuH99PJly+vK2148psdd1B//8UvagQceELEuPS6D4jgyvhiji1dqyMvT+saNmzUecnkh90//9E/YRH/WXvmKV+q+/5V/+qeo/7S97nWva1/72tfbho24FtANLfMCbIembSHtpNfAbVRZBXoaSSozBF+0KZCCE/TbgwOJPffaq23iGx/Csvre1XpRg8vghCirl5HPjq3gOUQ7qnMKI5YVJpHvdtWZJDgCNhyf/Nl3333j1m97b8Z6sKsWvFpIuTleX5exYvnS6l/jcbh0cJUahbZZJoIz0gi7774bNshB8PtGsBGb5tJLL9GTOT/7+c/0VrB/+Md/ahdeeEH79a9/3W67/Xa98HPd9dfpCZx3/uU72x+/+MW46LvdOfhXjQFal2gv25UpODmm6Jj7Lg9AWykFP7XKQAn4x6HTcyRystZ23nknv8PUjrYFD4vuX7uWIg7begNSSnLOQYHAkgzWqUuGkYPma+F8tUt65MJdJXxb2sEHH2ydQFDFJhTj/AYlHDLMa8uWLqsYHtxEeoi3mKdyc12xQOuKixYgS0Whh487rpKL41uCs87FF1/c/v5jH9Ot/z6cAdlfLaKCDGainW/IuPDCC9uLXvii9vOf/cx5SIg2yCPSlsj5yLWRVpuDmyaNM0BCndK9z9UNqjC4ZVUS57WHHfow7WBqvH66+557cMq6Q5HiqIFcuJ5Pfhwpk5gdZqW20UH9MYRecHi9wLdDKw0L03TL3muPvZw0j6hiL9msuAHQ06SzA9A5c+24447T7s8cHcgmnf2GMPiWL91Od3UaPP55Vf/JT3xSH6gQz2aN5cH16/Fw737cn+NGstkf0iD4oYybb76lvfvd79Z9u25r0QwZ6g9rHNlfR/ZaYJwqCAqUFfCaMJHmTzaBRNBJFkDTSlrbcccd8XAJD1+w2kyw/sH1WPC7/FCJQTByIUl3SJcsomA+BlOUgwoAuyQZWeBqcsF8XRDZ4zZZ6DE6blV8ps05MhfqaEMxECOrAXvy+By8EIbtcJ9+8EEHStZQkkjERBE1mZLx0A6PJPg0a84ZeXxo5n4w1Jv3aU97WvvUJz/ZfvGLi9uPf/yj9q73vEtnKZ761R7IV19zTfvCF76g9vTaAnM6TWHSL42O4/MYa6QcOpXi8oZEo9dmfhF7iMBO8EiNeOYznmmR8biV/OxnP++JUauhEcHtINkGd9bBPAVlGnv4pAhfIPGjAUK9QQNLFi9pe+21Nywx3MwftfvsW6OzwqF/bxouAJ8dIxzizbU/rro9y85gL46YqCBPwFy5qI6LyODyxSUu4kc++tH29Kc/Xe/MPeSQQ3TR9llc0Z/w+MfrI1jsGc86n/r0p9s99/gdOQbbt8QqxIL1WSuQpsyj/hnz80rOLE4TdXe9L6ADjn/8CTo1UeWzVFdccYWudhWjMBYZhBq8tMjKws1YUE3Jgku0jT7xlsPJEILHmrfOVatWkBV/mc49p8Zu5HWI2tF/LCSKdXiEoUjyMBn8QMWBB/IWzhy2Z4RzAmH2dMWYlZAVT5RUzKbEW/973/sePUPHM6MmPSaebfJDFp/77Od0Aep5YzXX/v7vP+bctkRtuNUZH1Racnw1bJQ+I/QIynwuMRSjP8sD2uBiJ5/9rGfpLcBpPv/8n/uUTsjoCXIDZuVLn/S4aUw1DBpjJmIdgY7lEyQLNbmiRMFn9hbjYm6vveNxNMDuOg3yik9ez1NSjgvd3bgRp3TkYj94/7rvvvv41GxGgbpGFCnkj4J/knDLHM9EBJ954zN1z+AZUbScAxxoNM8KjH3hC18I2c9gztdLwafq7nJEjiXbTCir/4FeSsJ40+LafD62UUJOrozpJY1GOR22YuWKth92JCc+rz7PPOtMc0wTT4sJXy6wwA5whq1kiNtlo7Ux6PUzYsxPq/JJAlCsXIkrYwjOnrlQioCKSb36EQVO+Njvu+++SxeeBF/ufBwu2CKJ2YojWAaRMvKmRujsVuPMmKZX3P72b/9WV/Huu/ua8DzAgppnAL11jHOKfHyShvfnAijKrUnK/GMPEkMPKPCIJtKQU4Lt6QnVOzQAp7MsjYY42NHDHnaYdjRlPoFx2qmniTmCD/P0PPuYTfmdV4tol2v52IBMgN9RI5P8tvFJjmMfdazaZqpc8r70HbSqJS2INYIXnbfceisJAr+YYP/99nM7SJA5xmz15EvEMCMtfIp39Wre5+IWDgPdfGTBZ+BWrdoRbcOixBUqON594sUbz2YE+8bribv4yptawFGL7Zox3GQpE3188naHahRcY0jsDk7pDqbGQOZi7S1h14hHHPkILLjvW9nB008/XR3wEAymZ9pcY9tZ8jDPA8ChKiNDR3HwIQfjipwfHHCfWNy/9gG9MVGZlMSZmHeSL3SLORmEe8l37ygnsHnT5vbYxz1OdppYmp9RoSt1epxz3YYH2x133Km4PBYvXYpT+dPcv5pbF8nJ3JTzDR3Zyy3oD9/wwTnlXcOGDRt16GyCG5oXm1xnIiqbXOnrfi8G/3kfbslcHlYxlyynoXxqdT/cGpYuWwYjOzDXHnxwXbvhhhvgNb+gZD4cH1m0sbK1EV4Mm32V/p1vfxdnlIe13Xfbte2Du5KXv/xl7UlPepL8QnBdssZRLgi1kSCiSR53YYF4K7IHfYFxrz335ER4rmhT/ywT7lcuiUHGlg2b9E4ZuWmJXAcffAi8GdshjrOF1+CTTGngk00XXXhhe/vb36Gz2YEHHNgOOGB/Xd2/+lWvbt/+9nf0Ua9JBjUCnSauiwT73X5y4z48ZCE7qFjWKJLOCWTD/EYHvekfk7Bl81y7lvc51BnBKhGyc2XGzEc5MmfFcBy6e8HF1OGHH6GHL5/7/Ofb5z73Ob1CpdN53nJmoDTMke3QoH7Zx8Xl6+p00Mpce+MCkI/pReYGgUN5gIw0O/Ws59o6bHZ9ipYRiF+wYKHegaN34YjDkuxxEWJD4V9e1Os3rNeNh+BifvWrX9PHpu6//z59g8Z2222nC7ozcL3Ep2Nf9rKXtrvuukvj0S0+m2Fm9CP7m22M8C0cHpHI0wTllM0AVL77cwlOW37RwJ/tuurqqyrCcxbRolh2fhjkR6eo2hGwj4vtyaFpnt5yzPu5fffZB6d4fh6dtAraGtosgz9F5Z7XLsCth09p+vS4pR166EPRnvtIjk4KUtGL6Lsd7hUtOVe8/7/99ts1F5x4vimCZyC+tOtIs3mwJJhTmjbtnK4BnM69YL/4hAwfl0vPQMTx+3M2btjQLrgAZ4C3vU2n/gJ4kdlKVMyRJcEzmYi08eJEtyAFdGqn+5muxzz60eApVA/Lrrj8CghQREaO6KWGUJOPSdFiVncm0G6VxE6rRxEadiiVqgCPgwzkcHyYHagqafyQg94WhQnl4/z9ccqMZnSIjYbUAzYIVbFq3P0ii+CrhVwAt+vH98cff3yxCK0rQErPI0H6jTfegBx8xSyyhpvVJjwE5tuweeWu0/gwAeecc2778Ic+BCkaAMpLEw62KVvtGgy7jEjmqSbYZfzRByf9stvZTnziE/XaMcGdyO9mwyWGiJpuJYwqYgi3EGDi8LHq7UijWZImT7MV5IA0mrmJ4JOeEwJFuTiAiMtb6x89//laaD5jt3LVyvbc5/idrApwUE2UIiKlEYpT6YUPnmo1d3gszc3PM4a2i1YafIawYk0TDoWj4A3jDlyRL1zkT7XaTSLfs7e5vfjFL9KbLPk6+tve/nac+jd4rHxUAHzx5JPbj07/seNifIIWLtpMHSyW+XBUkEmB7LJJPhQP2Pf7z/x97T7xYLr88svx2BOdIWVIqOhoLNElUMfGIzC3BHmUpIHIiWBbmc09jC0UiTRo/bv3+bAoc5B29FFHta9//evtPe95t64LjsGFUUJRJDsdKudzzYxSvclQX3jRhfWQipP6n37v91A7QS6cmY4NlzzsGm8kv/719e2BtWvlo53gGejd6N8HPvA3eimXb/l60xvf2L70pZP1ES8RcfD+/eMf/7helXNStOamAAgha+5wkNJfgVC/OCk2VOmeGRDpXr58WTv8iCPEpc4LDr74nxOeYBNuJgD/oLlJ2iyUjTDPA6CsCeFBHUcOIGEOCVGnEWBO55WzPQqL/MIXvkgfXOQE2EdEQEWQ75oXQ+4i+4u2cSs788yz9JWi7AlP7Y865hjJESmQqzAgayXCwZdl78SjBr4WnxG89fIbsPhpFz7s1R/a5nXC8ccdrw9BiMsxIs21117TrsYZVnMCm83MxT4roTV1Xg/LAoggWVlUQZFO0TaHwoxT4BG4gt602e/cXLx4UTvrzDPgjYCAdzfq3DRuIMCJo8kdq9zRvPhwTPrEWkFy2gSMWQ1mgz9o9KcuORpRHIqMV02OZiqs2XeAffEY59raBx5ot916i1+zh85vm/BDxox0e+yrI2hniUOJmGleu+yyX2o+RceibLd8u/a8550Ed18aIWL+5KUv9SYL/l133+XP3uHP7bKdbI9FWK1wweOko0GyNnmMyoVMEyOOPfaYeh6d92M//OEPFWsqGaUY6iFqHkL4oEuKuAphnXIIyl8OHOnPnKpZcGq9kdKp6Ug+hFz0rUBO8cAJnRk5wTpguvLKq3Hfz6tx67vtvmvbddddkDeDFRTgDJIVyaLkDYnvcdMjHhzMt/see7RjjsaZgqbg5hhYrVq5sr3qla+Kizi+Br+onXHGmXAl16jNhcM9tEVXK6Ky4IyiJYllC/sAvuDAd37y8bgSwX8tOs7TEWXnrCzqfC0ABjnJJh8s+icBICGPURSXCObgVzkuYqpsnJXKCgE8ASOkD8a6EajEiDg3kY9PQPHDEnweghufdw877rhTTVVOc28520PJfxD5JYa8IOPCk8WHeXzPG1/ISTBfzouaRvH6N7wurqGwFjjtn3vOObhb7a8suh2RdTgaEpL5XJLggFDZwhJHNJJgtznolTvuqDdFUOdCL126BI8L75Evkbl42NqlFFkRtIYHCGsYuo9lRqBOv+pQ6MbAaMsLRkdkbVDu+wMCZRm77rMAcrEKKAuS8/mBf/3CF9p//rM/a697/evbO//yL9v2/Dh1gYmGQMA9jI0PnPaD0/Qyqmiw8W1jz3nOc+wMkBp0gWeDZcuWtz335rt+kAux/Ay83klDBWTzITMvj7SAP792jywSIYcQvnIItu2w/fa6euQE6A0MuNXX88pF77vLJneQE+hBUzDL/uBxtSJwXKY+8XDmrHW3RD0lzEMG51V7wWeZtlJCyDDpKTNOsogQPSZyeZH2l3/5zvb2t7/V77ODMXOIo3IGTqPFOePHZ+hpVbFg53P6S5cuQ44hDmKfTyBkvqRLB/PwrVWXXXZZ+Vxj7O5EgaKuDHwaBuSEDKY6SzNVuUPRgQs1fdcLwSDb1uFCRnKEOtC+MHhCcPiqkYJp/UKKtWVW46Rp7mGr/rIKt8VkeyKY0w/N8E8H4/DvplQ4XiI347i9CMfSmDeMToDABcYFFx+D5zOPBYrKJ0FHeSGwrW9961u6e2S3NuEUfeSRj+Azyh0ZGk0LHBPaXLZkWV1DEbff/pvgIQA1c2YYUyTmc/A1GaOLIu1sgARtF8I1P07rNyl4cmn223UiTA2zNF+TH3JPHtwwe0qgsMLBaixFQ9H5POynyRJBkuvstuIZiH/Z1Dc7kuNbFg3WOSyJ8ofCeKmMl8RWVHdniMjnMXselEbz2fSVI/fce6+u7unnp2KPPfbRYmUKgn1TnKw8oKFj/GJigU4cGzfynUjhZ8kqEtkCQPfjcHZeE0AFB/4zvVoM5OIRnBw+QxURgD8ixCC3g3wW5K9Y2XqeIKuqDaG+qCp0MfoZE6eYyJGCNiBrHM4EbnBkC1k5lSMVViEQFB0eHAglswgMczSxZ/AMaOH3z/EbpsjntQY/vrQTLgIJ9Y8HfEqH8Xj+PBqCFo/TngXzF+IiQGxBvFAzhrpPIBDYCP12xmQyIeq8BdNv8IWCTXpowLHqfhMCX9Uxz3t/5FuOfBRzVEGaTDRRagigenyZa+Q7Vw9BNvTH/UDJTqq9AUwWJuVlnWVwmS+G1jHkqT6PuSFS42G/OSyTRXnN6jVY8LhgQwf4wQu+ylaI1ALHk6KKeXpZmk/MEFwfXkSOMeFROcr9HkPWsUu95q1ZnnTDzpf0eB/CySKLV+q77LKrKJpAHpiISdpx5iTH1kh/wXEcyOji5Ks1NkBHOM2WU7bcqCy6h2XEcYHkoEK47jxLBfaD/c1jBrnVlCXHHMgWBI3H3h1X7ahn2PQFB1vm2pGPfKQuxOTNflUwhSET8vBNEbz/Z1/5UjXfMNKR3OwJdciohksEG30xRaAeeq4lH3S+0Y4LzkXghuCH5PXxIIA67Rqc02qNMp6V542MMIpoeFJQMg/Nik2B8pioq5S9jwZDITYPXFw8yuoTit4HoBwd8itvuGXtdUY7a5ZG1ib3lh517KPae9/3Xn3d+J/95z9r7/qrv8JdJK6JKgCgjDjPRzrcKl+pYzeZke/amZwdItBMx0fzXN8cnXcfXfUQBhWdvalgIISfjXrda1+rN+zxmbZVK1a2c8/7SVytjnD6zN2zjbC9e0NSKIrsCFHhU4MGTxE1ux9WHJnXjtHnPiVm9UDkS6TY2ZaIyfjQod5W2MLPUjL/o+Nbz1uye53gxTHf/Mg3X/Cui2/E4GfX+CTMOAbGsRhT4xYuMyoQJaIeCNkgMTbKz0bzdVqCL9rzMWTnjmV0IpKwkihhMIqVgEQbDdkZVQqiEGJGIDZC0mSmlVoIqUN81VicGn93JSJl1Vok/wN9gjsDPnTImsvkUmJJb1741mKLxIKbqGfL2uBY+a0TeBjGwULmR5cZMc4gwfFkaiZkznrihZUny6EePY8BIMiL+x2+xcbw6Zy/YkC+s9UUiy9bL0qkx3NHRQYjgwO1L0ihHP7sr+F28i7JMqXoQSaRRyPsQCJOTOZz7wPjPKBSNpJjJjPTJAaw1yXhmbNEITfNBKRrkLlZzEkaa4bxft+f8/Pj8P322x/88RFTYNzBcNCnx+GGJ8xmNKiGqcPOegiifOmll5bCL7Ljx2ZqTgG6HCISZA/YGsGJg47kmjsc1SQbVDJp4nCCmEv51CFKrsVCoRAk06JLVhEyDlbRSeWx4IWGWfS0T5AE/vdWzUx+cAq5wIlqUdRBm4JmuaIVdMotZnt+SXVhvMLG0/uy5Us9h/KOoBGW8BGKMqlbpxIbDVGAgOz8sHt+gxLfi82vt9TOj8lmzgoBOEBNaEy4vCkCNNcFIxpUmwIXm22Gqhp+tTMYudChSeDBPNVGeFWhCJX51S50U1mWk96QMhcK1bbDilIGIzlDjo7k4mB726DUFIxjyxo++q+5+mqonCMcWzbr+mmrVSRRJlpS5oJzkYSwAMlzm33IGcfJ5nev+ntX/IYIvtdNiHwssxOVmUZ20kkiV/BR+X5PVtS2M0hhLCsR+fYzi2OADElwh8FmagY7j/pAcFOMcdTDpx6GTIr6CH8+DWyfPEHLXE5omj25QT2b4c/k1RkALmoxvAkzc/MbIP3pWVhB5EuqmarABOIrW41RD8syKWG3kXWCQbRxIn7FtyZHr/hWXzxGkyxEYC6ab9kShRoM6ho0EOwUgCSyMC9L1UnN0SRK79um32IAiDUfqlEgofpFXQ7bLUZ7gH1FMBjLSnUygfQDvt9P08AROpGStBmKbdgumMw77rhDT7poq4On34sRw0HT0rldxim9Y7i1CJR7omoUf3fceYfNOHbehe+z6pOTpSUADt4Xpe46uhCzO+udIE3uAP6YMM2QIxVvRbT5ZdH0G2qmDGLNEHCEKQ/C+yQbcCWUDEGxntqcYIGrEbro6l+3ObnjRRUpEK5uQ2by4OC7Y3ll7yxzeh2+E1Hr316XHVhwZjHJsuwDaBjC0NDGjRtwOl+AMHR/C391YKFewWH/x4YkMRxHv7VQpgGxNQH2G6jj1iiP3QU9Zap8bGnW6SyZKzMmIi0QQlTMoglH4p7boJ59nIAOejIpV8P/HbQBzC1JOg6HBsxJ1wQTW1f4lLbeFiXM+Y2Ucrnn0ew24SgwxvY1eFlgL4fBRVqDB/y8YGNeTgY/ceEMfdkKNGhytgG064ju1+RGkgqTzr6EQTlTAAazlIybAfuo/OlX7cXlJElCo325AZpGvYJpC3vk6b6sDbHCpA2UoRHeQaeJKntRdtZ8hS0fu+u1Ns4jk8K3VUogIgUtuAyxY9kbDT5YzjuEwHHfGr6tNnYYXEuXLBV/2DaWSp3tBvVxGnskrZTVPvuUJBHGPJbNoyAVFZTcKUOlhYZv4lKKnrNLRBABRTocMllQwh3zDlBIRcQOqoNrnCci59rOJAKMG88ggY1886h8UPLSiW5xnKyzp7JWTdwoJ14BhuotgKQbcEq3Bckh6I30gbgN2T+EGTWyrSRNQjeimanOXBpPrZjrmgfUddusSQqOxLShlhj62EbsHnvCL0KS8haEEv+kR0ggeQPC1MeXAeht+saxpi2ETC2NBQx87ly3cMTVcAqhZfIZ+GZKX/iTxtNEhSDHbHwubCelON5yp0GcLlrKKiHZqENkZVcYpmmsh0/9is7VogIy90zaA5aI9MCSIRBzOWNkLkWBXS5HESw12Q4R6tYoZzKzJrkUIHRhkEebKveGM+eL0Xl6syNrXc9wnSqGiAbGjvVG45ROn/w5ZGMiDwp/usqqS36VNTEutYDEairbQ02LWFwkCDm5RElyaYjWY9AGgqIZ2tgvvR4/IlRXvewZLVV/lQj/OCz2mK1yx5icIfO5rDpCvD7TOR0n0pm2je7pvVGNeeNVuqORG8bxhZeZ1oTxIak+ouiG1TsZCd9yfFDOoZHDhwF+PxVba/re0CImQuy5IWsGAtVUCuyquSpFtU9LM+YmoHrIrgXRLVPsfc6aeVgjI+s0AxbH6bIlezBWhhfA/TIrl4ZQ21C3uQBR2jfmRhHjtAd/1INCK0V+ISL9Wmw8WtI7j7Tok4wF2gx9qQ+FNJHqaVL8cPD0YQ8/HbHcXyqr3Ttfn36kpLhgMYYbi7tLGyyMGs8wSbYT1OPwvycT/1wc5SKtFwJ5QpmSyDj3aQIFKHvIoLOuPqEOWRMOybLTWs/aeUQnIp/AtmGfmOIwcnugpDGJcWt1LP6oywQDbTjqs2QAHy3xUZIfwbifKqlTIciljD4N9+GRAV5NMCTzQ1G75rAPixb5M1XsEN+Pjgfk8tXgEUQ2G1ccFfi8kTJT6NFEQrc+IeJUOSaXQIoLWEToQAKxUCuGiibAsfalYFsaHGFQyr7IGvkkqoRTNsRBzL6pBkFjC6QvUQ8xy8PSC0Y4tnvCLfDFk2hQH1rgLzhydpLi+YCenScXJur9PlwIgXzWzAmnF4XBSCWFr8EepJrqjTfcFDKb5R+BMttzBRMHZ+9gFTWtAhV2tqcALGX71PJQbCoEaudjyT5TRMGDvuSJhP7SxiLjWIjDSWNtpK9MdOJgxfg+8pQ60lZHEWBXh2woszoArfpkmcpNN98EFQIOfm9svoNVPJBYe6ZtSQ91vSk6zUrowoCjOiahB+aL7gR/OVBfkxk7KaHJQpyXBzoMNFkL4tBcKhM/AUPvZQ9Qego0ZTq5rXQ5ewBbBQ3ICe+DLb5cAKvsg2Ugcg0jVGmYNVqiQ2HLtogud0ZvqxA0fknAZn1FiN+uzI8N9xQhRKCqnp63cGhaKB40da+H4UiVFkXhuyT5jUNcZJ5SLvj5+ZJzUIQzUaeE6XJlO6msTYJCg5Uy4cg+9ImHF9zkCKmgrjUTmFP/QelL1rsZi9IL1dnXaUMd3ewY6yOZMrYC3GagRFKnZGnr4BXETwVwRhps5PXSovjBX5mwgvn5gBE8A/hWnpGG78M5upjsDtLcaUKlCofz14H0I2+I5UXDj3/8YzUS9EDmoMgaevqD2jtDg7W0merpCcVVyITGWUlCiDzsDrkD3eCZRkZPic470s2s7ZS7DKCFF5G0hDeQGmo4xehh0s0YypEys8np8d1WgKI4OND+XXfFN0YE+Huq9XGlATmyWegqXY2XL3tDQ3SrekeRkzWv7bnXnn4+HTR+Pvx7p3zf/lxYwckrHTCkCngS/WraGNvRO27uiFzUskPIKd4a2Dwkxs0o72Ic09Fbi80WqNfrlcQxo1+BHH8kpc+LFyzF4RBFpFhv+1WKT7B/UcOUvhtuujEijRUrVrYdVqyAn1aycJjMYivoFu5BQEiiJp+Kg3qnRJD5ITs/pO28085tLj4ue+kll+gbncyJxjo95JiwBEVNurYR/ois6Y5+5C1NXGKan6BFCwRB6ymnebE+ABgwmUciZSBjimcwOpsmLDvOWUIcUOsFzxhrREStYI/fisp4lJ4ZaOgcOXfddbe/1w0KH4PzPnzFDjswAIjc/i9Qzvz+bqiEesiDjTBY1j5QHdT5cdmHtO3426Mw8U11/Eqtiy+6eBgwMJGzodHoBUjU/RAqSnTx8NQS4QhwbKPOJmRKexzjIqhEO7nxXJMkZQJ5YDMTkB8TLwMVe1TWbklb6pTNrVxUlcs6D5lSScAYNAiWbrv1Vn3BsHzz5+EWvsPkpVKXPZFkjjfyxhMvsNGimaomSpwMmoDOH6F5CN/4AIVJdthh+3YJbuU1biIVVTNJ6NMgaPS0530X27PEcrilwK8uBiQOun2xPVBMh5NJ3G7vWhEg2ZhMoqeg1R72M6QqK08E6waDf074yDY34ah6DSAq+Ttpguuuu758PLPqB/Yhe+o8P3FOoMFyzCsDtTXqvozFNlqjOUNEgZvfdsxvRNJbbWBg41dceaWfgSOHBRsagjO1JluJaICAOhfVE2SpYEqIg30C2HMVAY7IT3sCQ0hmHy+MiqaJp2JDMnyLmS5ywjZkVSg0C7JWHTsvrT3DkCs7AZPmYnA5cE4/MsT3IvgXkfn5sgfbPvvsA3GbGaeQI59pU8aghqN6N4AmmeFmG8cdf5w/jBAxV15xRVujX/OfRSQjL2ItwJNNy0ZQSKMx3krSTy3nyMACK/GwJXIiVGU+RVpEbZd9+QQI/0ZW6r4lhjWqiFSZ/L5lnSuh6Oq0a5V0sA9QrHcOJTULEp9Dv/FGPsllD9+bfsyjjoFCLWM63JQyUFDlizY0Fqmp/laoXxRAY//46776PpJ4M8Svrv2VPv7iQeGowXkwik2EK9ck4fzmS8ThSTPRKWMabdoKZa72AYhjri6bPzAFs4gIJGSIGFdCzt141mDbtfXCTE1tij4YEzDVWWmAVgd2fuECv7WJHyLkK2R80WRv/hwI5BxLRqtPMrGItlDlvX10wA4FQcy2FZyZAlR5ofasP/gDfdSIFn7O7JTvn1KLku1sBfq35VMgjn5+By1sCfpSVT34Emka24jueHEGV4XTExt/SKlbq/5tl6tPjHXB2UvS4uMgB3x6aGH/PdXJpU8kaDhi08gKojWD3+Py6+t/3baQBzz+8Y9X0owgKFOq6wJBLQi14LU50wOkTc0qUzjL3tpJzz3JXyEF8Nb+ta9+FRI2gLixXBYFZRhzEZWXDsbgCL7JmYeecpg+DCyHRZMmLLi9JUhwsrmaAnFDgFRjJeCoDNGO1qkmK3SyolZuyihsQjnwCWnZb/j4VxtEsK2HUZjT97EJyM2PCx9z9NHg2FeItokKVzYA5uFXjQAq8HQiIAIK+TzxLJUCF2yHPfzhbR+dVuznD99ccQV/dBUA2WYMXhPgJcjJzlrG0GRJAfbouylsPw2oKr5qwm1wh6st8CO9WJ7EkW8oRtK2csITcd5MAcrhylemlJ82NyQlTBEXY0g3xOpjoPIL1ljy50YW40bFZ9f4jU/8eSzHDdEQ1WKaGKg2UMPGz44YYTCoBGRDgf8JBeDC77hqZTvw4IPk5Ji3326H9m//9r/gpcE8gp3wnHizuEyCa5Y6UOR81bwB9tNpZet4O9RMuHx9wlbdomw88hbGyVYAEfGZICgTwDeaU1ZuBwqUJuFaVPu1GaBXM9VHI3mCHOBumWvf/95/6FERvwCAP7HB710dNxahrGPDIaep34dnI2oggqtdC7SWiQBv2fLlel6du07A7J133nn6Fb7ORiSD1Tnn9hUxEXUuwATp86EqaOHJdAXaJyYYOIE1MUnI9iVblK8ShD8qA8ua3G2AS5p80iRmPAOHMVLsG8387u0S47iI/IlLzqnOBrDts+8+/ooVJuoLhciIDRNj1WyYsUr2qLOs2QuKSiwTjSEkgssokPjj6ffh4Zl2F/5vu+22dv3119Er3tihLjm+HvuiGmgAlYhnJVpl3DacRpFZOgBFJPdQWHgiiSptjoUQMbO4limjIKUQ0CZmvLToa8QkPEfwsSMmyiuGXTPgHLV2xhlntB30FCo33Tz9ztqKHfxMpxdqJjBy+8xjmdDNUvpIkCUMlDUDQ1SADfPg94vtvsfuNIjFn6i86KKL4+pdRNn7VAESGS9NGOVERVAQwZZtUGEcfSgrGIjkGef7TWoowRupBo19g2UtfkmzcZ01vZGEjEox7ItMjo5uW0slfOzBJjzePu8nP8EQnIf1w3HttHD8ik7wMlIYlH42jQUn1amSB0saBCrRmEqyzOTu4zcBvvH1b2wbN/C7wvwDNd/69rdMjrbUBpJmvF95SnSJ+XTQVhMOAwQ/Ri3LAG8lx9iSmKiKd825UwwLTAj7Jp1+NcE5YKOUA3DKrwJgXCkz2GrhDJ/RJFVJUzSJ/8zYG77pppvbzbfcHG8cndNPXxx77LFg+Ev9iGFNDYbDJvOwmFjwroRXYreGNCT0MkTHIPJC4iV/8pK2w/Y45QT93HPP1feOcCncKRLlAjws2nXFOkBzHFS3Q78D/dDFUDyFyE2PvJ0iudTgOR2t4VGFwv86RAU0iVJQ8D9nVTE0sRehjBAt7a5Lixy5VWifMqMWDQXm5+abb2p33nE3g/E/X99xe9RRR8lfU4K8KboFAAbZ0gH4Sit2AAeUV68VRIFHBaUnHFHxmxkf/ejH6DTOheF7rf71C//aecmVZIGdVYfDLiQNhSenGoaNTnmBOEMMbgbN7B8no1G8qGWjnuGhREWIQicOmUV0m2ojGnJ8AKbODdk0I51h07aHTHXMKUu0R5xzzjltHV96hp8f5HwpvzOdH+CM1VYUOlvzqjLsM/CCqw/cIRCSncCkD2cEQ5nItkMLh78Tn3iiO4KO8Wm/f//GN3D6WR28niSiVHpfDl2DKo/dE2h8MUhidkAawWwcdJ8ZwE4nKxy+jTnO/tRskaoaktzm2x5em4wMIGLx0s265hF1USmA28dGpr2KmdvSvve97/kTojDQ85o/f035C3B4nrvVWYiwoeoXbZNV9YDtcZoEPdUvgrdCxHK38Yl8fxMEb2lbsBs3tQsuuEA6kSGa0trNwNDAaM9eJKRvO2wAty5JeQy8IdawZywNy2MXp244dDYMnZA8GMBnSO4xwvzgRHKlkpR2VwTtPz//gnb1VVdJmWtb2hFHPEJvPOGqZOpJP9Iq28QhV1y0ZUECj76X2a8Mo5yNpMDKe2VOP4ux++67YZB+X8XaB9aiwz/XEwWEB5+yE/SSm6TbI0SwGAa7twlnwUSoQz4yjTbLJBaeGJw3SMIkWsbFEsabKGSqOsLEgpXzyWAfit6T9IQ/4nx0DsHN/4UvfL4tXb7cDHToCSc+odMTJTteJWyzNxCKPqUD3CUmMFqSwEHnKzi8T7XUswxMdei1r3u9P+wGCk/rP/jBD/WOGOqRxRHSx6lmvCXZ2G4oNmdcj9gKyXWAULeqmTj2u18ERi0aeX1UjrJtzEt5q9w5TyKGreIYEPWsK6BWq0+t3Xrrre2ss86G1X1dsnhpe+Qj+YYH36AyDeGmva0yQ89kiWUtOKdeZhQ13MzITkRCecJeyaUjCrznPvc5+uL8JP3yl5e1m2+8BRqzDguMQGZzS7CWAzz0nvY6vatigcMBRtmjrs6EjZVsaEcJKRt1i8OqdRn/IiqohwuQsj8J8lXQF4YB0/ghVjsFc5HOqKfcOf0u2pzeUOI+8q1Nj3kMv2KbXM9RIscw2jjbw4wD9RMYOMiULxJxcNGx8rOW3dZMnjWtnDBeRfKLY8lZtnRp+7/f9X/JR5A7uf8WYK0klENhzT6gcq/CDiiF+pc2kXBg6DmTqmSUfaIDVsepsz1Bj9nMSSp5wRmoOgPSFfnT5awoZbBmFDm4LDOKmIfH3HP6LZO1ax+ARn1LOxGn8xUr/RVd/fE8gNA8W2leIpVuUDmXAGPiFg4HSfIFAcSaiEw+NEKvgTriyGcDJ554oj4NobWC/oPTfoDHkXdFvj69BkiRylVMGGOlowy/QR05KskQTFsc02nHwUoIPTG4sn8VivGKHblzA4gganDZGc10qJJcCoNIv6hIOpgBZ3dK1nPt9B+djrtF537ggXX6vVEtIv8U7DaVK9pXVzKxTMEB6MOChzdmcBhSeDIakBg6sjpf96fEH6Tdg98dhpzMt/32O7Tvff976Le/blu7kbXYkBWYE4DBqPHsCRCJyxJ9tSPkNBFohJPSEwCakNHAgNAzLQvKmSspqNOnvNZchZhjtb9SFqQrXlTI5mU4wVj78Nj77LPbDTfcpDhSH33ssW3vffaVf5gZKNBIoB1mHkwhSIh1IiDUfXhH0QNDcoILEQ1EvgBbc8XvDePFhT63DBN36U9+cm7buN5vlKBt2CeBwSCRw+9Do0kboSwdvDVE00LuB+thlXFoA6jbGKrKmsEEjWPI6CM4iAr0YtdFX9kNb2LLwmyqqAnm+Iu/+K+NvxRFbNq0qb3oxS+OGBTVD8tWXc92UTsgsrO7fcHlSLDzQQRrsjhJG+mAJk8N+r1Wf/iHf9juu28NTcKll17W7pn5mStBebhgTli1Kk5hKTEax4/d1UBZw2hz39UaCZTOp5CsxOwCBQeEMk/8hualkpjs8eFgNcYUL/sIQMi+ZY9Z8p0tN96EW7ecDQ91d4+rc3PNGjGr26ID/YlZVBtacNFjIVTWSHBoJnpCSsO824BjVDlofp/3XnwnjGxb2q+vv16/wsfTOuEUGLwCe6cS0rLZcsEQK6c+SOQExnTBllTXyQWj+BRKCSAeppzgjB456meqrMHNRSLUrQxLzDYjeKRqigKO3CROu6V9//vf12vdtPPYE3ePfDlUPP6POSUz3ugu9i+ljq1O6TPxABr1qsjJNscE9fp5QCJM/NzZi178wrYBV+vz5ubrB3C++MV/9cSQgpp3DRUa9rKw4jHOJGPGDmjkgw7ZIonQOGHSzfEwkmxPaeJTsE5Bd11B6JnLICm0iCtNqK7noAfE2gXsp7763tW4+zsPV+V+fz+/P+fZz3mOfqSfUDoVcfQkQqo1cnCKgkAseERGlbtHlVdlzAIdhQZgolykSbct+c9+1rPb0iWLQN+iX034zne+o/ex65ZEDlNFDDeOmqMcf1KIqNm0Jp6xIGsPU5XdUA2iJqUSADmwYiqFzcxFgXFUoyQz9xcPkjWRslHytHI8zkPNoJqxIlmKOg78K94E5bn55pvblVdegVhc/yABv+Xyec97nmT3i8TgO9hQnUqgBhgAX7dwh0eCUFSxx5AYR6iCyY0buhVQ039OGAAOP0N+wIEHOZ6Tgr/TTjvNaTuRhXz+j+HnoGQREX1nX2xnErWGAaV/7KcfpgQXyLOJKMGTgROiXFBicsRjWxGgdtS23MKYS+PBkTrBmKQ7TlnkrzMH4wo0zLWTTz65bdC7gPnK2EacJV/UduDnx0TZRhzltKnDrF25Tdts0n24O0Juxgoy4qB9mAhCA4jkjhHJfvhY8+BvcR122GFwQYN9Ca46v/cf39OTCopCXi8Mj8xvrkJweDLtISyZT80LGX4t/khPXsb1msyiAT2jZfVNLMPXAWNEcoc22H5R3CuYHIdxykXZxmpUdpT33rumfflLX44f8W36ZOjL+TviWCZSMz/5vZ1KA9skoepBBC+eeKGS3EkvcOTuFCjjUJ9pstM6HfLZRvB3ro855pjMqPulX133K/9eh1JmIiVzfsGbMJG5OcgaVIK2EKlEJoiZN5BxrGAms8YWixFLYioObSaZbCfsSgI8IGQckU+AEJLCNS5QienjH+K+8W//1ubHtznw4JX5rrvuClr2b4hVcrelPkKsjT+L6BO98Sw8xJgQBUm0PgEj0g3oAoq2tFCG2CNxtf6Yx9TXTNG9es297Zabb2Gw+1EHCY70/SkHaZ2RmrDkhUjkOhpWFC6tBPxHHCqaWDC/ZK9qb89qTSRRm2GQiucKoMQDQcrf0WUmtObU1vnBwG9+65v+MXjY+ND22Ec/2m9crI70LJp6DQZ2HuWiHnXI+bQroVu4J8FGcSVa71RC3ppQIiw9HlUuAmU+nNh///3QQewtHHfdeXe78qqr0Ec8PGNIHgQDmAm1TekImhJz90PLNnA4inXnE9IViP/Y5QXY9BgV5vQUQ4NgoEVviyCqj/YRFUNQkQtFpwRgEBlzpZoz5gBSr776ar13zW/8nIcbxpr2vJNOQjcikeZk0hoAXf7MTXQ+D1ZhEXxKZ5zUrBk9JJ9NBlDywQWAgINV75ZLdvj5L3hB27QJFyIw8cPrp59+un3i4GBVqd1J6+GPg1PEfHIHv2pXYlHxQnqpBBLtwjHYgdJZpCNq52WbTFoGwISJCiX3VaYhShYZWgZBpI8vjPzyssvanXfylw7gxhwdf9zj2oEHHGAewZghqcRqHIhbGUvNX8CirOqbn/sEOf/slBGHaBZpJqqGRzIXIThEiQ7iPP/Jy17aNm3cJAs/sHD22WfBw7/cHIQlPcSRpOihxsEGe4AQUSqJOs2FnBkEKuw3BGWEWQ8HqUPW/THDRabdUA5yhyOssqsINa9hQlWWkhVoTVaKss21L33p5LaA998w8ndF3/WudzNZtGXQZzWlyKw8KJzKCFcloB990y2ciiYqWRkE1CklBiKKTFxo1gDjUempTc2czbKCtNsuu7ZDHnqI7Bz06tX3tssvuxzyluDEtKBWe2wqcrpvFJQKLubHwbaqqZgImmkAUbqdHTTCl2ZyqUlHUYvD/iTJmeRn+3kQXkAlLZrkgD1dz0DOk8dk/aabbmoXXnCRufAdfvjD9WkeRdOkvwhXm7nwQ7ME/M4ImFYiwfxecDpIhscTL+uA2ehMMSOpR0MwTUE49KGH6nu+6eY7N7773e/CSi4JOS0Ry6q7BKchL5xoSw9Twqd2UAS9asVx9ZzACJmc0TyNnelTAW3GQosxBLk3gKreF4Km0tH3sd1/+Id/bEuWLAbJuU844Qmyi4X/HLVs3gFlSXttUNQSS3e0/XkLT9BYPXFjUvt2D5EJwslOho36ZCi0a2HmtcOPOFzvX6eb78A89ZRT4KwpmkFYlRdaLiTNKVBGw2qCJhR9ip031kXxFMvNmnYp2QeW6L3sOZ1E9yZ81stJdIykmCdVISfGeaEkL4R77r4H1zQ/0of82c+ly5a1x+H+m20oRfY947MxYhD7RekMX3rKuIVTlClsGgugycuJzt7hP9waHDuUfAEyI5wqEgJcaF6tL1/O3xef1zbjVH4XBnrvPfeC7QTjOCIRYGM24YWDzTNqR8Sxglt+yew7/OyN2qAzIYLFvrSu8z442XpEUICV4w4tUxajcpKWLKPPS9BQkHP+BRe09esfhM/9XL5saXvUMY+SnFA+CizC7FxDOSyEJZR2Q+rZsBSwYhDmBwP11juGTEqpwyJ17FowUbH7Iw7Qqz2w62FH0xfTXHfddZKJ6m/tvCrUBqGW6E4u+xIyK08yJfS1HK61QSkMOysYhp04PJ705ag9T2GLeiAJ46ZlllRHumWWyLtlrl1w/vm4SFuvz23zav1JT3pyW7FihchOixJ0nT00sWWd5O0YNIlTr39sNmySt8rSu56nMrnQuG9xCOFIRYGPIgh9grxz+RBjwcJFGBg0xmFwvFhhhqB1IJ8nbzQa7oOkOJITWwyqPZljNovjs8tsvS42NZnJjprtZX8ok1dgjCsVpFK0Fi255qG26NHms5cfyeJ88PKVT7684Y1v9F0fIZ6EapdlHjrt05iIAac/IRkFa/3Y7NixUlLQzEBWVOgC/Tj4n4sQLmsuc2D8OpBDDj6ozVvA54nn6z1at91+m2LI0Fyngnw5MWFVoVqlJSK2nyS2VRdyzJE5aYC9skGgLyMVx7bwr1iWNdnJg86FlwzkvDBGBPeE80nOzFKEzZkExN95113twosugm++LqaOwHXOXnvuCYlJXTGC+fOMpbsc2UmYtsFBsVtmdkhXDGc+gmKa4i8QA6qDPia1qMHxEOQ36hbP8BApH3fc8fpsFHvF09mtt9waH1LIxWDpTls2JLGQnYAiow3ThYADep9wciHHhMUuKHARZIqOSlRJOG8+hSzumAf/9Pe2gHBbcE4W4vCfujhz7bP/8hl90pbqpk2b2kl6Zo0+oPIQ0Uca0X65UmbObCecydEI5JOCBQ+GQpXAf8mpUBnEMjBBGnsZgNB1i097iog/9thH6euf2SZPW9f+6lfycRJ6e3JHc2GNXOpqESl4c7hXsWlYlJAsj6dCCc18h6KHOLbNOGp5TBWnGGcqt124YYAkJYL4H/PNj2F99rOf05mPJ3R+jelRjzwKFPgrZc8nadJn56Gnr8PYG8JjKCrquoULckQjrLiotEimYK/FbU7j1gg3Y4591LEaqHS0fM899yA3CGoXgCg6bJ6XrRzdFIL6AFG3PHKkFgngGIITFiM1BgWGCR2sQrmG2hlYeiZyfxamDQJ9Pn9xySV6dwvPdFyGPXbfo+3Pp1IRozDlmknASelOyMyXo7VtEpFzUojXwyWWI/QhWd2yUA+iBUsWqw4ticHjR4pX7bhKJi7QDddfLz8nilOmG0SEThAO9mf6MAmozimJD4hk08p29IcB2mIwjaOYM+zMlaISdaSrLlTppq34LIaYPqGG1Mw61376k/P0oQIaFuBsx+9s2W233ZyYpEil1vBP1RlZ2tkXm+hSgX0dzVB4rSCMfSU8SaEQ9NcgWOPQLIwk06oVxYQapsMfflia25133y1bZIMdJRsdJt6VvUOajuB1B+M5FapkZ+XJGaODo6OPNdMRo0wkJ+OIPm+Y3JgLlXIMW2xoYP36De3iX1zc+EP7ZKzfsKE99alP9dV55uuBZVOKYQV9XvldmI6Yil8PnwlUv1kkG6IYMYh0+HQMWdQkAUkjIoepfNvTLv69DvR+4Xy+XOpf6Oldy5pmL8owq4DbyalkmUtnC5A7TGHdW37Z5HQCIlQ3BSP+bQoCKxh80ZY281jRmffPPUXfSOONYM19q+NLjwDY+XDsD/7gD+xMMFCJMwGQbgfioMH+gTVBt1vSLdxT0l3q99A2G3fHzbEMAv41ZnUuA8wZ4ykyJ4+VK1f424BB447m+9UjwjmQkDpFLwp15udBkm0ES2o8BFEYSE9yvBHyTQC5OCFEty2nTX7TAXKT59rzBWhQFDLeh7SgzNbcxPySe34vLcP5AtLxxx3ntyXTb5oBQm3MBFWZ0o56EjRFRWsAvA93rcNxGV1UAJMmNWxV4Q+yOiWbk2QGIRXUfJJt7733to08JL3m6qsrn2rNAkUVZe6Ta3gqsBUmNqMWBEiJe0AyC7YfHu1VSUD5OmK71R5S1MDhHlFPLOhwZkNUFN5LyIWz26mnnloXr/xG5Oc//wWVOGNFj9IVk0jrYFLaZtrcFnKedJXOucygSc5U3FsDkVLV2GiPyVeewU5b1Gxnt912l58yP4LEbwfWhhmgJ0+YTPntU5MUqKrD1HtkdkXukmy0BBn/7psXkaBUTxyRKbK5AmNoyyN1RYYJ/e05eqhCkiQ3+osx//C009pivjoGLF+2TG928M9zK5vsOTJpFoHMDKRDDQRKHGwBj7su2qBwIfHH+yi6FKKGIDEvxYBkDnBiZBcRm6teUKYCf7JB+VHwverrH1zvxcIhpiY743vtrEmqCvSSNPFylC3ioSsDVeZmX1GR5YXqG0CgiYeqEJQXR7aRgNv36z1LRBjgy67/ubZ27dr2s5//HA5z999vf33YssdQoo+HZjSYbMhrI1QAhDQONs1L2D0ddmLBmYTJ+J81DrAquSwBOy3XwnTkRBJejG7g5Oo3tiTP6dMp/mViWEBTNg4KPq3DOLmqc/jqcR0Ec2f/HTxAeiSCyH5J80wAsaypWpOeQ1TN2JRReBpQiOMbS1iqiK1mwHbmGWdgo/OdqbDjVn3gQQfGNyxOUV3r0cKYqxTVMCjIgZ4/iZPp0FV67ZveCpAdZZmLn37bsqp2wp2vtFVDUZdOPwbMF1L4kMRm2lw7LRVI+Jc5Y8eRJEQYEHmEkntMnX5Zw9XPEjOAm8xKAfhxPVQWsfFd0mBIQkG7uCijqXbW2WfpJVCOj28/5y88LuancxhTGDYJ0GVGBXMkADqzbmtuAEVEGC7amAIkGhBQTsUFK5JQy4M21XDl/BmwTg0GzOR7snkrxqBg2IAFVx4lIgc+z6ashKTcRCoHZJ8FSFRIQg7ZIXsyqNhN0Kv1oity6C5hhDZmyMzDv8ijSm14HMUD1FUUuWwsGbsZF2j8ChRuMMbw7uzII48shpC51Cf/pZm86VaAPcI0rRN0w+jSKV2p04oEysEijZDZwWyOMt32UklCtxqQaQoxPe4c+Q2T4M+MOw9MlQJ98sxRiaDU44gqB6vNkrGolQsYJ0M25hXBNsJL3g0KZSD/pagwz6JQz+AxlEf6qr8svfj80uHVq/kTIfS3tvb+te2Rev6cKkvbu5gznqahYQF5c5DArDche+TURZs6QDNrOPoEBqiHbYTjOMmcBhBq1wCaCEAm5zbf0C0dhz52RDliax0kULLdiHbqYKyTMresUjFNaSAo+z9IKCJcYF/Rnk02pjv7rKlXH9mHMuKAHYe4YctFCJZiqd1zz916koXgBw123HlHfXkC3ZWzkJapfbRairZRsJWCnapGuxacHVan/G+g05pvIGJRhxS89EuWAH/NEDNmZAaUJg9vwfk7mjqdiuZWmDt5BVFQcIGoqwM8QpSAI0Zf982ZjAiTMgwxKY4SUU0op4M1V5Ena0WVTQHmhZHhv/nNne2OO+6QbfPmze2k5/JTofSykFBQNGIyJeFNad5sWeMHGJN3Tzb3LLhow9DFsLG7MoNvU3RMH36MpdwA/GPLmcNO1VwE/UhLtLdk0WKxmDtzZAbqlu3xhIuNv7AloJYl+uDrBdrtkWaTMgwBgx1m2sM32TQjCX2RJ0yUa+hZC1Dg5Bu7+A4fvj+f4LXLCSecIJlgiPKxPfznUHM2pGZeEbeNCOv5VGdg3oez88pGl2mVMxa5sghkuSuxkeyCTDXnKJETXgiVk7l4iT/ozgRu2wdzZO68xUQrqmoQGaL4DocyTx9u9SNjUh8gC/NHUJ6uizqEVP+AaluD5zH0BiLvYi684Hzng7x585b2lKc+1X6FoJ8KIzmM1ANjW2Nq4re5LEfeOPTUqgLUUcK0IlGAL72JShwbRf8QOTCZxggbBlD3d48tXOiPxhqwMwkOhaBtZVE47aiinzSVT/7QBUp2+FbOSaY5Fo+QOQK3gjeJvNFeniJzI8hLuRISUKI928OJiot88y23+MuHwdlxx1V680OdhVhbdFj2radIEZhqYnqAlIzqKPPCjoom3YcTdrOEMwZpYJLQuP1Oymkjxac7HvDyP0Shz4xNwec7XjQWLiZs/q0UGhhskZKWGjmcZVj4osbOtaLaXCKShI+l5lMBOEREbbfFcLHIVgUGwp5t0SORUJAEl8OYLQ55wLnkF5cgnW0HHXSQbm2M1BNNskY+KJJojBTsex/v4IgYXThX+7CZLCg7TZDncyp1/2kbI5l9krNiew671XmTtCQUURUtBC50LFlbc/99qtnO5s2b2nL+UAu9Eccjm++Pi/sSyEJ7DQ61AhUhiyB3chLMQ37Ep5si5cE0wr4gVMkUlDSD0qUGBlEKz2Z6SIY/PjLRrwKLxOhk9yg/eRXjyfFNxs04OqyzZD7NNDk6YMQhhuZyjm+HluqAEOhywdpEVcjoweFIHuAhKzomgTWtRp22kOTuu++iRe/D5kuDu++2u+PBIavWmBlrcITz5UMjETUBcgaCT5eliLJUdadVWdBEwSbzjE/oUeor+70tGpBmjvvW2273d57b0nbVuJkj2uts/fUBQKNMGvW0y1BKQbNI83AoXwTjfBrJh2CpFq2gSK9rer30RPfa7wN/3QwDFBw33XiT/Hy3Knf6vvvt19tm2lxETkLGa0KYcbBJwBEVD7IqR8jVtzCZiCPMKXhjKADu8E8m1AkyjdwUWBQNShIAm2244dfXa1MLGI/ezkTAxGZ8e3W8WSxxIMY6tZA0H0A6hGzYmUpXPuchdJUuTIJHlWRXY8qJYcRo6wGOQHE339bEu+3w8b5MGOOYOieHKNlDMSzl2FmJxUI2FBFmU+YIRFzC2wkcJKwUKHvttj3pkMibSTndSAkbbrjhRoheVP7tsP32UO1jTkpZEr17KbHNkJRnhPtnpC/ypDlQF23uBurMNDlPQcZ/TxmA4Au3BEnUbXNjPZAv/vOLAXShBhs/Tcofnte4mUs8k1n2TB19qMFjXGmBSNhjYxGjr7q7wZExOXbpYyLkURZ0jHW5lMZajnEwFdwazfP0EWm+B70GiyP9MfNWNH9e+oJcsOCfQ8gMCfbM9/kGfdGjrVALzibY1uzTggKUcadUbvHtsC27gsFUAuhS3IW7776HQfIsXLRATzESXgwHZWhmmyA6Ik4vBKso08Qaui5i+B/tegF7ZkpTzVB46HkFrFFkHiClwauD6Cy/D13fPatwtA5nxSp3aJRrLngMRMBNw85/8dI9kIbxeVuZx6oWnPCYvFhDOJRRwxTkphg2BympsSO1f1FZ8yBvvOEGNMpm57U9dt/TbTG9CwWwdHjkEJiIZOcPCwqxKbhSmi4rW09YY6ul8b8QluIQSoUix0xISoJQbFDd/86GnO7otz5tg2PkKCIbrvnumSI0ADv7JH8gqKKF2TFUYjUg+qlVMaOjEN1eRAVK0w5MzbVKxjErfBkflRz2+WcdJODYc09+xTZEgiYVNKBmgGxEyJkXDWgLKXeYaVfdw1IXaFQOFIzJcahjZoar5lvTRFr4zcx2oPk/CtYQGMxq8FPmd69xoUVhBo2BfvxZiFgKA+DUDWiYD68YgwKyoxjnjPVAsagPIqTCkiwGsWM9UhJtrDUr9Geco7J0GnRSTts4uYzmD8rTooHjcelyXrgkC4JPbdTIp9x1rwKPBDlA9DNLsStPREDUhQ77njkq3bCAEcOxe/z2jKVbkCCTrUTns1L/0Z4t8/Rds1s28xl18PgNVgK9PGBTTNqGWjnCWdTYLCocqzmXQIptqfUSD8t8NdwnQyTaZJeCgwlyYlCyJVb2dIiK5kR0PvmVu7VfXvrLfp+NP39S0mFBEd+RYxHO8rLy8NR/mJKlXlJhAYO72ic+eoSy15TI8FxElhi/1p01juyjNPgz0uM1nxCXtRzwI8lDHvKQ4NvPr9WkTsYws5ErIDoMIoVj8EtMe+TWM3L4k5bxVeKUboEeSI4JuKOs3aF0olZSJ8nDpfPIFvTua+3SSy7xhQstGNk+++zT+ytjVDnLyuecHZRhC5PaUeE+5QplCg2djbCiIRahJjnsWbNUnxQPno32ubHUej30lyKtmjsI6hXEPffA9Qpf+we4mfQlw3zftkC7c6kJ6QlvE5XMObomiBHFjnG5NXBziwzqINIGU+EaLQ9yhhQZ4srjTTdq62lwhwm+42PJkiWyzFu40L+LorfnEmCJyFta6JFU5vCVnaSisJCAyrW73nMoBJXX27ZcFHfYqN6KYh6tBnSI5vjgrZhtDQzJrLnZ2AXqu+2+m4ziwrBmDZ9iHqMCElnAp8oLWetBJZA3SMlcu9ICwc0xscZs28pd531vPSkWeivk+NQHK31oNAecpzAfLFlnxqafZeItnDmWL13q30UBGKeI3gyQCuKVxnkZS6ipCd95yDHAlR5gP1HJooK6LZSSShvnMbMYcIYhhu5o2qTbqBb8H8TQceyy665xC3er996Lh6dmAhxXNFCN0wchKQOSm/0XxrEC2guJkMnQzUt6TIhEHHp4ERPoBnxMHnZQiCCJktENCPLTCsFya9f+6jpcsOE0xt7Axa/XFhgXHWZbHkhEBTcKlLSTg1pi1EC2bzBLOFiFOSyoYQgb47h4TCU9jpxY1cElqn+Mswk1MmoHJAYZpO23265t3By/+YI70vvuu0/v2jWYMUaWcyeFQgK9gK4+xjGucY7BKSnIDNioEATolC5fEqmjcsMmj7Ei0mxlUlYtfwrOz1eKCF+pGrng9LujlHvnNLqwOzV9YpvDv/B7MkQaUElVaDwAy8zAQEvMbH+GJXIGIsIYZtvNUh9sUSeYf9HC+IF3OPks4yyHBo0QadSrWCgDvYBdfmi0T1oTMUfoHtsULCiMjzvQDI10sUgKY5SzAPQ5R06PzwIAlH5qdpB84ecXx/InKnnJxr9Fixb7c2bbgHaqJR/MHTljdpVbV9JsE5Unw1wXOKBaN/KMlalEYKCkLue0yT+B5yVDVUBRNyhEGKuaFyD7tdNOO0nmd6nyq8uI2qOo1TxqxTNGNZCcAaPdOVAgAcdGlTZnILqCO1RMWJCmCJKOFMzSsobbs8faumxkaBVMIoMfkeW7W2jm/Ti/eTA/X7UVYkUis5B5cyKqAtfbjG3xiF6yIQrBEyDPxhMUh/VBGiuyU9CMsh2OSxZKqoMhH/8tp3UKfvc5znEirHtgnZ6P0GYB2U1C4KJRzDlgFbLAAB1WHRI2gvMhm9VIFnR9etS7Ng2q0bolT3qMsbLQVwkFc1klNWXrc+03t/+mHpbwweARj3hEkSsG6DISRBueDCvjwpDsvkV/5aRRJkOzKZLMOZbxgo6jzE2jctJGeBUHCT63gpI2TUQkHUCzM2bB33PjgtvBn/hybufjkaX5tnJDqy0dkSigs55CUPufRtimPFEE3YdjMLB4AjzsDGBDmsqMiDyVwOQQyqrJsRY7Czp/BWHdunXSef912MP40xh0eTjOpQIVLN0Y3fHkCBAka8BKYrqIuZthpkB/GKzGJCcJ8C3ah0oldxu89YjrQjbZVeAQQoi4hCNcMM922y13LI77cdEmwKD5z2BuAukB9S0AeZgF5EkdNduAJD1iOrNLug/PebNsJ1UlGBuUiJSisHBzsWRCbRCnUc3T4AMPPOAPHYDBr5rce+89Facpltk+VyyojbAvaKiDz+CBOBtJmsdgj2O6JikM4tKk8FRYsacmMFpuFYHgbRPlw60Ld2V8qxMn6L61a+NJKLejrOTCl80LUMamKNvFOPeHMuclwr3eUHpcl+bHvHXkyssxiSrUgqKWu2bKRoko1QkQuOA33HAD4jh1fhP+UUcdLWZyHYc6g4SeSzXjy9U5ikcb5MiKwjL6gBjZJosOaHyGpeBJIjCVlceCxyKn7BZRss9EJJCvEwDnrkVFwftwS7HAhPKDgH+3HUmyUbWTbNQxB8xR8wK5aAqvLIIeCjpfmkjQVMmSUz4BTH7Y5uBqKyTe+tQBHKrA5bNs7CCfWeOC77vvviYQ0XFPSASpEYjqRAwi+YD6TEraI4eMQO+37X4mKqwjHUpNUNhY0ZRmwvsFhTuiMRKeA7NscYzy58EC/wsX82PCvDr3GzjtyajImzFQFcoyOkuGRzEFda+GF7cIcnQ2vX5YJtvIIo8JpuRqTr4Mox48UDQP0PMhkMw4la9ZzR+6gR1mfh6aP8Cm+0f6Y/Ucq4iMlJ5XxoTcrDnxULJpg4oNGn6EeT36aHo6CnGUDYCshah+xVzoP7Ko77CTAlPMTICxWfWxLF2yNNrGWS6eR5fakxQUR713FoxsAbYJl6BvzDHG4YDK2vfhLIYEat9W2Fl7wJNcA58QDYFaCHZyGAQX5dbbbs2M+rL8ySLGqvXFC6HsaDtMjHKkDUOayk9oMWhh+9KJiMy+5aHK4zOPTESr/agjj3M4j5Y4AvpiELQ7gFYejOCCG8kmxz0VVIVMTrQ/QpGcjME8Mjy26KFFQyRepYcn96E74UoWyU7ZB4Ua/xlRyBiJJigzOn77b26XnRduu++xhwaTbapkG1i9jBdyNVEPLetQXlkoT+HNBBZTxgQYkYWmSVAudhgdCoytGP3RTPRp6u5Ie+5UgD/Up3z5ejg5GluRS9JaA6knFDL6emjATq5VNR0+VvNt5G5iDWOyMFHJlxBBQQdoQAdjkdTp3JGZLKoN6+N7XABepW6//fbqDE/7jkWmukWgDu5snu5i6e2XxwjqmYIa5WxfXObFf3Jq8aIsgOBbFOR0sU67HLMIG9sY49ABfd1JzFeYQkgZWVWzsJO32CFC6ZQyTYFa3MFRphB43TGf0zHGTuJ6O4PDYNM0+bQzTBm4SecgOMBf//rXaAgPQYK791572QfVAyToy4Ola7r7JuzebSOS5UYBJNH8W0Kq+RBKJ5BHs5OxKYauMfcBROxAVpl+PyyjN2aufHr1UWHQI5y5M5/5Mcc93bQumDsLWtiOnnhRn2NSWdUgx9UbgdXqaYMjQBDXBo9jXrvyyqska3fDte9++4aPJFHHMCEng8P2/ZL1pOR0MFCSikgGUKocUOxJCwCBNh9J8Lg6KXxAzYkQeSWVUchQ2f0fOj3WKPu6oOep8QjmefodyXyZKwwTPWW6Rs26LczXr9I1qYCCZYCMgyJsGcoyBylehJmEbmsQ9lNkHN+pmlQ+LFmxcoX90lka3mwAamZwm5R4AFBDCjhWNhWM6H8ehzluhhbrNV7APhaRvXINiBsEUXYIaXV71OmFHKQ+PDwU24SHYjzTQeO4pxdlo0xk8liNzBOUoTtdzjZ1sOwzkOHxIzeEo9QHQLaU0Vo1yI5GhDlIqt0aqVFFmHLRt2YNXzhZpN3Fger0rr8gIY65KGUs80mmww2xsFg6DshSAfYs82Zs3h2oGTH7bUm1TGnpNucyZAtF9MiRXCPZrHHgX1w07DH7fWxmYSY4jzjFi1U5uqjWoYivROEL2XlClYNCt4+9pyQOBL2nLV0KR0eIfGKBUDBnDCYn8oAVJxodPOwTZGftp1X5aROa+N1svC9LmjuLrMWPKns4pJTKflEfeINbdnedZPyLyw3l26BKEnJDVSGhVGuGuhLt0U6R9ThcV0ESf+hXzB3ftWtD2BJswJ2umGqE9jCqUmEua60EbL7JpG3EGJyndCDagyMJPSxdSozO8UbjSbCHTeiJFqiyExqE/jHQ9bGb/dsn46coMyBuiKVzOcLjJFJQVP+yMk9ugn0bJ1OIxQVLfCiaoMxpoSrCLpSa8Okkplx0k3EosfjZz+JA5cZnTVfZAWWf6XOfDwvkZ0zvDWscbG6w9dxjlOFVUADrDEqay7KSB06sJQ54/J/OgVwOPZVKUJ0/f4Fu7V5XWkxiKVP0IW+P6c+u5U421zKVYXtU6doHT+25KclWOqq0UybSXYCBThrlc+vJSZcEFJZ7z6WyCIU/V5W39mX5mBwMcQCe+nNIjjODAdSTtxU0mTgYjP/O2zoKC46ksk+YsSCBUQ4e++2+p3MIjoYl4o8LzikwN0vzuyUyRBovTirUUY+LQ0hBJtX29BIBEa+2KCIJTcylh0IR674Mfci6ir71NHxR3WvLhmPdR8tABGpKcME6nx8oBPhrCHzK2X13Ep+ZRJROOE9kk5mFj2Sp/xoYjzCWdwq94yXidWSaolOIJLpfLU4OOJyqcpdDkc6u4I9ytOOxeIqz1hSFfeQYaIeiKCGjziXoc2NhVMfrAC8MW4IARTo5+JNN4/CYiEk9xDsnDy/stpCxKSgCHb1vDd+46AXfdRd+ajYyoG1T0ReaZEZfPHFUXMquGU0zWdBCmUBkYOqbr4seHAyb5bDKRWahhtAJDzXIqhzQG7eenAXzF3o+Ebtly2b9IoL+YpJ1QFQU6hw0ORRqQGw7nLIwjKpAIdqXUwkEUeyODeIgTmiNxaasBLdvpCx/kLrX/tTthqZ5pcjSX+pDAxd/5aqV6LsXvzagIvuRF5cMcs4B6nusCQ8lUBI24Eql43Xgf37dr8XCOgFr6tQgyWceO0uwNJM2lUOnARjNbPXeNeo8vfO3PoiKj6LOFgEtJpPXqmZGtgWbG5wCdlrz1q2+BU0W5FLPYrxpN5AzxsfJ9lyQRxtzJdN29YohrCGM3fFmhg2V2+SXAtxAj96qzYepkz5EHqthrHFnDYSLAntQqjjBi7geFT78x3N9XthC2mSKgYc7T0MsNXH4dyw5QQqZ3aFp8eLFeg6dOutccM8QeeRLHKBo1TlKb07HmJt+M8Tnvyr8haxoFPlKktoTMew02kVSr2ULnkQKpVTMaJ0FKdwofHv2hg3rrePYlV+5GfGMzhzO41Lc6HPGhQvoMUOi3w3Q/I4XHN71tofBcztAm1ZC1mFA5cW3o5f08y3Ji7TQlGm1n6gGhWm0l3sCpZuxgs4I3yID0UBUsU5iSU+oN2FKrgAl58M95ubp+YsrAzVbxsURSmjt+uuuawsxD5wzhu273z52QNGZo+auB5EnNk0c35CvIJs6MoNtkEHzhx/GyagEaECmsAO2hpBVuSlweoaORb0KV6T50IynFL96RieO5JbghByoKNWI/UUfpERNFuiMVShNMvccHWLIOj5fT6j9kIzkwhqLY9BuX8ZIQ8Hbg7wofv7zn2myGc+x61cQ9LQX/bB7spVDSRKRUGdW9DGnjVBfZuizitVe5lUDcoXR7bKFEIgMiF0+DDjv18yOxaYSo6X/4EMO8WmcOlz8UAJz9SyGc3RMuhDe2kzJTg7ImizBm1Vdo4kH5Oi9MYwhl7akoBVbsYZs0TGnSA/hFnKeMp6863H/vQR3bQxdtmRpW7VqFcYSeXAkdyvQkU3w7EA9yDnekZK+uoaQkjy9xWmYeAh2lcVQABcTNVwRL2jnJR0yh6qMCoEG28MOe5jjfFZvV19ztW7p6k6FK0CHJtLGrdFXvMBIIVyebtjLAUDuKojq6ywykoCXBHaGsUm2KuSjm6QlOE/c6Drkbe2cc87V08oM5vfL6lM3TASOKrEC2QAR7SeBqsVJRIVMrUYsH6B3vMQuYMFRhYNCBSchOQLrgRPICyOVMeN777W33sNFlV99cc899042jcEIbxiF4VAOFM6YCMfUKGTOrVITnKmCGX3JZyJkto2n2lIpqHM9l3oci1LbBRU3et4Y+B3pt9xys3+gD/+8Sn/ILvyCAHJ7PpeJ0NLPSnllBUoYoqsHAy+YofsqXZNBAcegi+NsQAnySENWSbUJCNoyVsunnb0KjzsJ/nTVFZdf4a/90B8jiKGkkWnDUPswQQePMppQsYlRRl+3sT2jph0yb5lUw8wNxLaz/bwoM4Ey+CIx1lZC05eA79prr9V3zDoCF7EL57cD9j9A7uQyNuMN5zTsSXU6Ei8yy5Rs7QwhVH3Xam6H6ugwOT2QgwuRIUqeGBtKacRcO+DAA1EzB98Bc13btHFj5Akw+RgsRzeMrRmwZ7Oa9JArDqgg6MivPqsdjqqPLIMzTaJk2kWGwHhAJQqtddQJy+bx1n/DDb/Wi0e0z1swvx144EH6YQAtEbmmFkpl7sHZm8BIZGbBLPZJGuwThIrbmyVRiuO9QuN0ID2R8hIpcLYAlhWiEUpou/MbEHQnDg2n9XPOPgd6ZelctBGpgBCiGumzvlxEo4xRQq+BDBNU+WyhrUyJMNZmQGEODcGWI1CdtJFn8euuu76te+AB0deve7A96clPkTdmGVT3yZnLKvQbFnwmARBkti+jpdc4ya8AA2pcpQNyetLyCk+VizggowpJ9ShllRhVfpZM12zoEL/q40c/+tGwsDPQ4iWG/BJnGgGYR0+TxmCLIYfDygiFPKUxHShhkDIkE0BSv1LhP2Wy8gCqD7bx76c//Wl0e65t3LSxnfTc50LuS0mU/FsnhevhNsY+GLMxzA1b9KUAtRbczZtIKXO5fe6hHqxbOv7D5YJ13WRcZwQneI89dm+LFy3WpFE//fQf6UOFQ69DRPvwK7ZczqQyBxELz5KWsE7SFZIkAQf+c3PM8oMhmNHLnBnJKDzcnLEpbDGfX3WiTQbtEDxE3VVfNxqbToxeb/XkDaSU1Q4U505rbK1MRkActAnifekgOFcxndSgqdZSDu62gY/GtPtzd87uUgzu4IMPaYsX85km8LZsbvfiSv3yyy+nkyYAxUyY00TDY6ViSu7TwgWJSSAFh+qKwcGK6Mmq5jjlTjMRPC5GPnYWSiSBioNcclxz7dTvn9LuufteWTdv2tKe8IQneLOBlP3MSNa5eeiTEe3VeFSGmTxTAd+I/k/gq3SAlcQSUCHzoGZLOmz3JHBB2aDGAbXPiclU+eQLoZ2NY/OWTVpw7UzGicUhOUaH/jV0NygtZMWEWTUl9gd8ThKctgRoGAGV/dQzXNpx0U4iEydPBfRJHspBEFyz9A1grn34Ix9tS5ctkZ0fRHjyk58s2encayLrCWgsXrBFjHmQRFNq1os2Iro6XxNuGip20qJsk6ycTNZxFA9KydDA62FJbvqNj6OOOipV/Ur+GWecoUnR4igHu54xkFAFPeBFEbUXUVtWriGocuMQIwcoTjjGViYNwpc81M7LIuNCGmNsFpmn8iuvuAIRHtUueOy9/wH7e1xKiSL5xCRRwrNYZ09AesQ6s0TB8yivUDVpOOIqPXb3MFO5bBkgdoJGqqhlHVxUMiYowZvXXvayl7UH1vpLAfhV0meccaa+r8xniSSzghAyMaanLB1FDjat6vNoUs3c3Kxgc7E1Rk8I45UjuBnSm0ZOhTPWur3RFu36G0Azqi2bN7Xvfe97bbvtd/D44Dj00Ie1fffeR7FOh3oMnk001Oy2YlRGq0GR3c6w9T7N1v2UHjs/nymbJTKj5LyFsAV2OPS0EubxiBgUPJU/8cQntj333ktxxNq197d//Me/11t9BJozkSn/PwA52iHYdanSCBqQSAuTVtddJ7gBqIdvcKmrOsywQhUaU4eVpWSr7W5co5x15llhm9fWrlvXXvqyl/rxOGzOkjXQQ42c56FWnzWeZLpmjpjSaY6AbFHouXSDEZSZFjWSMi8tuUNZOrN9Vt2BaK9ix16YO9cWLFrQTjrpJL0hn7YFCxe1f/j7f2i33nYb9EzoUCFtatlHSvaZrPthglURSAm/NMoYA20ilgPwLSam1G4BWuYKhm3oR7SZtyVnREkB/nPPOadddvllUJ3g4IMObE844QS5BQmlSVSotWFMAwcMrXfFZfaOSY6oxVJIfNQoPZnIg8Dh/2HHQ9A/GHRYBZCyOBE0gFy6+ZaeZzz96W3VjjsGZ66tWLWqfe6zn2384baCFgXIwFiknHR5WcjXh09dTBlgD4fSsIPqhCsd4fc2cqwR3GhEogZIHQcSmkuevAIltsPvpHvPu9+tryYjbzMelbzv/e9HWMRHdCLbJ+jpGhGaBtFFAfo0k5G27rPEcD0Oz01fBA6CejTQW+B050RCHji8K5APci2BfCiUDn+oH/7wh7cDDzjADLTDSfiP734Xt/JbNFkRpFoSiWokjnTTIV+0RUDU2Uh52NcEexT9leweJsPbyHA2EZVnektjbqtG8ATkBJ9v9PjY33+sreUza/Dx3upoXKzy0IIPfKVCkXNYOoreoykYXh7O+UCbTN9MPDXGasGzD+ajlME1k9BOqCM1wRwgKjZKnsSZbtLHJKqp46HJkiXtLW95i96Uz0yc7FtuvbV98G/+Rm9wTJ49AeZlI7BwAcQZOyZYyYW1nKDNk0iW+sQ6iYG6W0mgLbcKpEuDNrJFSs7e2qW/vLR959vfCbvfw/dHf/RHbeVKv3jUAT8D1ECMiVBY6jF/6XTKqOyr5SBILX109Jh6po2D5Q7NIaohSUFWo9ERFOmnLZnZyYTmj1z0gl7q3DCPf/zj23Of+xydxhm7cMGC9v3vn9I+/olPVIzhGA4iB8b5pqhb3jD5JIkrk/vCKSFiaqS5t9kXuW2HIUeS6DlIpgUFRFpCMzTLzLmlvf99f93u4u+6iOXXEF7wghdAGnNH+5KsUxYjkqu/4rAHYQSSL0Y3A8jhwctNaeIm0M9acDU22S5EhLEKFystQCkULOoxOJzySYdMmzXJBN/q81d/9S5/pTQS0MrPm33+c59vPz3vPFv0zxhGkkGtD91NZ0sAxTi6yHKsEYME1PtQ2WdUbmgCqo7NDAxOuYNnjwfXrW8f/NCH2/nn/9xvZQJ16dIl7ctf/orfyzYE5bhoY+VxsBPqXMFn02lfDRu0z0Yb+0aVoqspYKgFn3VTqwkdXJGvY1aRDpb/ZXPHCAhh5w+1vRSPyzflO1gB/qbZm9/85nb99ddjwhztknCsBk9fd4Ts3lZThfH2wfhBUxpEKKdNREaMzQzujnLOtf/361/Hhv1cW6wfkPXzDK/589e0/fhZeFLMDEw195nb2Vt7xg1khulm81BGC1hTdYI4i8fMEhQVgELy74gmFJk8Kt7Zjup2DmQqWebj7xe/8EXtgosujDf4eTevXLGy/cvn/qUdccQRwXZ0zzxk5BnF5imCzsrobRtDb3rqCRw7jXNUYp5e1z/zzLPb69/wOr/Gz3FgEg499ND2pZNPbivxKGTbyJ6NuVkgv+Zim10KDH3fBn5XrF884SqNNImUIVBOhMzmpIAyvfWysxZ7rpxU+BTvJLTyNP7pf/l0O/roo3HBJqO8966+t73+da+vlxXdXgdjK0s0Y3TeuNPZbsb0/Q2LRDmnCIr7PXUyD0tS+Hnvf/3iv2KxX6vfJZMdjv3337994pOf1OfHiGySlQ4YctuMY5Ml5p19s6eEgWnu7LwknDngCQzwog1ejwlF1LxPEocO+meC/IqRyChdGySj4hFiubVraRz4IKxYsaJ96EMfxOPxFdLp5eP1226/rT3vpOe1T3/6M23D+g20KkRQ4qhQhIq6cyjRrqUpMxmd41F68VwQsI78TNQrzceD6x5sn/rUp9r73//X+tV/3d/iWLlyh/bf//t/b3vvtWe1pBzMhQQUdW1ji/6E7IRq2PwPnethl4H+jXMI0FXuQNedyJsOreHKUrJyhjCmU6cqeiRUFP7dqTFOCArz1sQpWWe6I3Pt6quvbm9961vblVdeqffAdda8duKJT2ivfOUr22Me+1hd0dPRM3SpgipYyVH1gD7YseZiBGfWH8hbE+Mvvuii9ncf+7v2ox/9uC1ZvARj8w/n8gsHP/KRj7SnPOUpscjeTEMawfPBjLXcym/N7cxGZR7VY9Ka3AHbTmEqdqvdqDRmFgSqbcXRxgYHGlAp0DYGCaEGrIDgmVbzHy7UnPDWbrjpxvaKl7+i3XLzLbLp+8SDwfKpT31a++hHP9KWLlumdmQE+rRFzkwsDMqkMzOgi0hfUHMsDF279gG1/8UvftGbMvLRz++t+fKXvtwOPvhg942A22MtIc3VjBKDTxuR9jAHwqvAMhqwTeZTVBTiDU6B8xwLzgk27NVjOnYkYwNkuXv0xYLg31mSm/vVPDol0RmmaSZSvKi/ueMOPS354x+foackKy8OfRARfy94/gvaE5/4xHbkI49se+6xl94Jq5RKxFra70B1YoowV5/wtxmn68uvuKL95Cc/aZ/97Gfb7bfd3uZjsTUUEPnY+/DDD29//dd/3Y488kiP8XdhG01rCRC3zUjO3ayPOYgwRvgkd8z4EBe6z+iMoLG7BXHohh3/VJU9eBo0aztYAJ3bFxz/JvV0mRN6zpEZvn/85re+2d72tre35bg16/Ul0wF/5Hjp0qW6At5vv/3a7//+77enPe1p7SEP2RletsqkjLKGQrmloUH122bYYXViv3Va9rm2es2a9p3vfKd99Stf0SLfceedeqil76dxsrZp06b2n1/zmvbaP/9zvd6fGWOA1lV1m8erXqkdcYSU0+O6LAyklnQhbFGxznlivKMHwD8Pg8RahHvwu2OhCGOKLvdb+eBnB1QMQzKZkhJbQokeVjsiOw9/xO3uu+9q/+W/vENvJOBLqfPn86290Ra4jOPns/hmigfXrcOC79Ief8Lx7WEPfZhu/bwgXIaNwbuARYsXtwX8PDb4fAjI57zZd76pkF9lve7BdW31vavbWWed1c499yftggsvwGZbro86sy/RNTXKBdtn373b+977PrR3gp7MqFuhh2R5AgVXnaXnjOOJeGIIJo/YKt/g0BmCIidEcHZWfkq5R/uU3v0ACH2b9JpQXJKjlu23Q6ziRi1Y7hYPPpG2B7AY55330/b1r3+tnXLKKRgUbrlwMo4gj+nFR8G7gc0beVeAbNBXrlyliymeEQQFsy23zM+8rblvjX7messW/uTzAn92OxgEc3My+QmSww47rL3iFa9oz3jGM3Cr3snO4LhXMSaLASjb3gXChDqCYfirBfst8QKTsNpWM0PzOKXj8lI7Y7BqgYDBroah6iFBmKWTFiUhiQWk2fseLYIkRECgPBMpSchVVC6fbm+84cb2kY9+uH3vP77XlmAB/WkO/nLvfL0qpWjFOIhtZLw3wJAfSLeaimD30YvNswC/cYqj4Gv5H/7wh9szn/lMnCnwSCGuG7wgrKlHY2FRrb6gpgmw1suMnPDRGfcDtW6h6WVMSmFjQUR+IRyZWQgebnyYKih6MYLI0Ufl4N9So8hFZQfHgBwOkc+GedLJgJ55gi8MIuU8HSlTFMxxyy23tJ/97Oc41V+gh3H8KA9/U4VfmLMQp33+ED27o6GxIcUSSM6cg0mbIMawCffJfAKFF2K8Njj0YQ9rRxz+8Pb44x/fjn30o8X1OBQCgbHMNUwtE8sX7iLbpsLBQaDNqnPZ1MNoiQoGaXD2zRv+SmR4rm1TqCTUfcFp7Mskwsgk2AsiOtyHafuoy4KkQXUexGuDqIapBgwC/+mjqviUOzKNBGDL3Gb9Ftr6B9frIuvMM85oF//iF+2SSy5pv7z00rYOPn54UV9qi1ukoKaiPfRj0+ZN+kmtox55dDvyiCPaUcccrUcAuu/HsXgJHmczDn2r9gX3MTHarcEf4+u+9AaHfWCR46ZOftZhywQUtQbBz1kaKMBMgImGNnssuB1BVJXpRgwZxHWmPDuM3GSOqF2nMBRbTeLvBuMZw1j1DKpvwbYlsh3WvH++/fbf6FeENvK7TmHjhdj2O2zfHrLTQ/T4Wd8SqdS9J5Kird7DaKvTAuZMmb2PMs7WI3JcW/loIMIo/7YSAJljK0z5WHAyO9I97fAYBBmDliXsIyV3D615Ki9Ep3JBSB1P20WdKIGw9bnppKTKR0F+VGFgtS1UHBJSzoyzNbEtWzZIGwXNAbVx0BkArvaKizBOMbVuzal5o6ySjJRos++3pHc8F3z0p9wTbgPsPGtOVAQwSY1zCA53YaIPvImn7BC4uWDOmGSxB3JDG+d3xKRPQo+2OLPREgoMyti40CNqASZJ1DP8uSZYMqXk4gGzkzbT1iSt8Nstv60uhEGvh4+OlNlhySSqpmDFt4i+2ASrpEqJ4HAbIIQZRyhKQgxM2GyFbZKALvgqhL0gwoBKEgsck8klOKFCzzuhRJwDcQwLoLwEhJTHuwDZWOCw1X2TTBuEpGf8xJDGGlzEdjYkWIpnMTLUNFIf7YUIjW9xMntaxsmiMoVOkE/7JGtfXC2XyBGjIpCu8PG0P4zRgM65KHvU4sPBdnTLI7Q5sq9SVeuAnH2ZbYOqTKNdKW1gmeshFC8SR6m8MMmKomgJ+WesqbKWX5rrodHsc9bycLwRQz1TUAmaeYW0MhQzVad0lhGUkymZQmYQZ5pOSLuDoUJGPTkd0kdUePCAvBYokiouIpfSOSzT55iMkA9KNU+mdHohgO9uVIYo6aUfQowp7RMgmXpBp9JFn5waUuYgOe3BSZTfsCoihN4vYqBVnFaIVHl7sp6HQkRSjfkMy4DW/jfVtFZxlS3EYgAAAABJRU5ErkJggg==;" vertex="1" parent="27">
                    <mxGeometry x="10.180000000000007" y="20" width="99.64" height="180" as="geometry"/>
                </mxCell>
                <mxCell id="29" value="" style="verticalLabelPosition=bottom;verticalAlign=top;html=1;shape=mxgraph.basic.pie;fillColor=#d5e8d4;strokeColor=#82b366;startAngle=0.899640432935442;endAngle=0.4968173254495136;aspect=fixed;" vertex="1" parent="27">
                    <mxGeometry x="41" y="5" width="39.99" height="39.99" as="geometry"/>
                </mxCell>
                <mxCell id="41" value="48.8" style="text;html=1;align=center;verticalAlign=middle;whiteSpace=wrap;rounded=0;fontStyle=1" vertex="1" parent="27">
                    <mxGeometry x="31.18" y="10" width="60" height="30" as="geometry"/>
                </mxCell>
                <mxCell id="19" value="Zero" style="strokeWidth=1;shadow=0;dashed=0;align=center;html=1;shape=mxgraph.mockup.buttons.button;strokeColor=#666666;fontColor=#333333;mainText=;buttonStyle=round;fontSize=17;fontStyle=1;fillColor=#f5f5f5;whiteSpace=wrap;" vertex="1" parent="2">
                    <mxGeometry x="235" y="310" width="80" height="40" as="geometry"/>
                </mxCell>
                <mxCell id="31" value="" style="ellipse;whiteSpace=wrap;html=1;aspect=fixed;" vertex="1" parent="2">
                    <mxGeometry x="250" y="217" width="50" height="50" as="geometry"/>
                </mxCell>
                <mxCell id="33" value="" style="verticalLabelPosition=bottom;verticalAlign=top;html=1;shape=mxgraph.basic.pie;startAngle=0.4951294309442457;endAngle=0.7531826745504864;aspect=fixed;fillColor=#000000;" vertex="1" parent="2">
                    <mxGeometry x="250" y="217" width="50" height="50" as="geometry"/>
                </mxCell>
                <mxCell id="34" value="" style="verticalLabelPosition=bottom;verticalAlign=top;html=1;shape=mxgraph.basic.pie;startAngle=0.4951294309442457;endAngle=0.7531826745504864;aspect=fixed;fillColor=#000000;rotation=-180;" vertex="1" parent="2">
                    <mxGeometry x="250" y="217" width="50" height="50" as="geometry"/>
                </mxCell>
                <mxCell id="35" value="" style="endArrow=none;dashed=1;html=1;exitX=0;exitY=0.5;exitDx=0;exitDy=0;entryX=1;entryY=0.5;entryDx=0;entryDy=0;" edge="1" parent="2" source="18" target="24">
                    <mxGeometry width="50" height="50" relative="1" as="geometry">
                        <mxPoint x="110" y="280" as="sourcePoint"/>
                        <mxPoint x="160" y="230" as="targetPoint"/>
                    </mxGeometry>
                </mxCell>
                <mxCell id="36" value="" style="verticalLabelPosition=bottom;verticalAlign=top;html=1;shape=mxgraph.basic.pie;fillColor=#d5e8d4;strokeColor=none;startAngle=0.899640432935442;endAngle=0.4968173254495136;aspect=fixed;" vertex="1" parent="2">
                    <mxGeometry x="277" y="170.01" width="39.99" height="39.99" as="geometry"/>
                </mxCell>
                <mxCell id="37" value="" style="verticalLabelPosition=bottom;verticalAlign=top;html=1;shape=mxgraph.basic.pie;fillColor=#f8cecc;strokeColor=none;startAngle=0.5031826745504864;endAngle=0.9;aspect=fixed;" vertex="1" parent="2">
                    <mxGeometry x="277" y="170.01" width="40" height="40" as="geometry"/>
                </mxCell>
                <mxCell id="38" value="" style="ellipse;whiteSpace=wrap;html=1;aspect=fixed;fillColor=none;strokeColor=#3333FF;strokeWidth=2;" vertex="1" parent="2">
                    <mxGeometry x="275.5" y="168.51" width="43" height="43" as="geometry"/>
                </mxCell>
                <mxCell id="39" value="74.5" style="text;html=1;align=center;verticalAlign=middle;whiteSpace=wrap;rounded=0;fontStyle=1" vertex="1" parent="2">
                    <mxGeometry x="266.99" y="175.01" width="60" height="30" as="geometry"/>
                </mxCell>
            </root>
        </mxGraphModel>
    </diagram>
</mxfile>
